<svg xmlns="http://www.w3.org/2000/svg" width="658.949" height="537.676" viewBox="0 0 658.949 537.676">
  <g id="Group_385" data-name="Group 385" transform="translate(-1047.56 -4756.181)">
    <g id="Group_2" data-name="Group 2" transform="translate(1068.5 4756.181)">
      <path id="Path_1" data-name="Path 1" d="M543.116,461.3c44.756-45.306,64.783-112.945,54.44-180.037a227.821,227.821,0,0,0-11.825-45.334,246.866,246.866,0,0,0-29.856-56.251,258.189,258.189,0,0,0-24.641-29.69c-47.251-48.944-112.25-79-179.478-89.424C280,49.438,202.692,61.056,143.805,103.536A227.078,227.078,0,0,0,60,221c-21.487,71.1-4.437,153.293,45.78,208.025,33.505,36.518,79.49,59.938,127.344,72.828,52.293,14.087,107.988,22.567,162.216,18.652C447.705,516.729,505.3,499.579,543.116,461.3Z" transform="translate(-9.984 -56.593)" fill="#ffeec8"/>
      <g id="Group_1" data-name="Group 1" transform="translate(0 66.263)">
        <path id="Path_2" data-name="Path 2" d="M122.4,330.214c4.458-.062,9.037-.148,13.16-1.846s7.734-5.4,7.958-9.853c.25-4.963-4-9.435-8.871-10.405s-9.987,1.042-13.723,4.316c-2-5.167-9.376-7.285-13.817-3.968a19.572,19.572,0,0,0-18.532-15.74,19.573,19.573,0,0,0-18.77,15.455,12.635,12.635,0,0,0-16.138,4.965c-4.357-3.991-12.768-.982-13.6,4.868-3.3-1.134-6.743-2.189-10.223-1.89-7.308.627-11.953,9.275-5.34,14.154,5.538,4.087,20.214,1.024,26.5.937Z" transform="translate(-42.265 -69.306)" fill="#faaf41"/>
        <path id="Path_3" data-name="Path 3" d="M408.116,169.783c4.456-.062,9.037-.148,13.158-1.846s7.735-5.4,7.959-9.853c.249-4.961-4-9.435-8.871-10.4s-9.987,1.04-13.724,4.315c-2-5.167-9.376-7.284-13.817-3.968a18.95,18.95,0,0,0-37.3-.285,12.635,12.635,0,0,0-16.138,4.965c-4.357-3.991-12.767-.982-13.6,4.868-3.3-1.134-6.745-2.187-10.224-1.89-7.308.627-11.952,9.275-5.339,14.154,5.537,4.087,20.213,1.024,26.5.937Z" transform="translate(79.243 -171.962)" fill="#faaf41"/>
        <path id="Path_4" data-name="Path 4" d="M154.265,126.653a21.085,21.085,0,0,0,7.778-1.092c2.436-1,4.572-3.193,4.705-5.824.148-2.933-2.364-5.577-5.243-6.15a9.779,9.779,0,0,0-8.113,2.551,5.59,5.59,0,0,0-8.167-2.345,11.2,11.2,0,0,0-22.049-.169,7.469,7.469,0,0,0-9.539,2.934c-2.575-2.359-7.547-.58-8.039,2.878a14.967,14.967,0,0,0-6.043-1.116c-4.319.371-7.065,5.483-3.156,8.366,3.273,2.416,11.948.606,15.662.553Z" transform="translate(6.745 -104.489)" fill="#faaf41"/>
      </g>
    </g>
    <path id="Path_5" data-name="Path 5" d="M263.264,166.8l-77.977-13.379L149.433,261.126l19.52,3.236" transform="translate(1117.056 4736.719)" fill="none" stroke="#173756" stroke-miterlimit="10" stroke-width="1.022" stroke-dasharray="2.896"/>
    <path id="Path_6" data-name="Path 6" d="M249.238,170.368,550.509,220.3l-22.753,69.436" transform="translate(1155.329 4743.219)" fill="none" stroke="#173756" stroke-miterlimit="10" stroke-width="1.022" stroke-dasharray="2.896"/>
    <path id="Path_7" data-name="Path 7" d="M231.5,246.289l20.317,3.367,9.765-29.334,161.783,26.821" transform="translate(1148.526 4762.375)" fill="none" stroke="#173756" stroke-miterlimit="10" stroke-width="1.022" stroke-dasharray="2.896"/>
    <path id="Path_8" data-name="Path 8" d="M114.536,312.02l2.94-8.832,78.986,13.092" transform="translate(1103.673 4794.153)" fill="none" stroke="#173756" stroke-miterlimit="10" stroke-width="1.022" stroke-dasharray="2.896"/>
    <g id="Group_5" data-name="Group 5" transform="translate(1573.118 5037.429)">
      <path id="Path_9" data-name="Path 9" d="M375.063,267.939c-5.184.131-5.4-7.922-.206-8.055s5.4,7.922.206,8.055Z" transform="translate(-371.068 -259.883)" fill="#fff"/>
    </g>
    <g id="Group_6" data-name="Group 6" transform="translate(1400.33 4927.347)">
      <path id="Path_10" data-name="Path 10" d="M250.169,188.37c-5.183.133-5.4-7.922-.2-8.055s5.4,7.922.2,8.055Z" transform="translate(-246.175 -180.314)" fill="#452c6d"/>
    </g>
    <g id="Group_7" data-name="Group 7" transform="translate(1265.338 5066.302)">
      <path id="Path_11" data-name="Path 11" d="M150.6,284.781c-2.591.065-2.7-3.961-.1-4.027s2.7,3.961.1,4.027Z" transform="translate(-148.602 -280.752)" fill="#452c6d"/>
    </g>
    <g id="Group_8" data-name="Group 8" transform="translate(1462.398 4958.54)">
      <path id="Path_12" data-name="Path 12" d="M293.036,206.889c-2.591.066-2.7-3.961-.1-4.027s2.7,3.961.1,4.027Z" transform="translate(-291.039 -202.86)" fill="#452c6d"/>
    </g>
    <g id="Group_9" data-name="Group 9" transform="translate(1628.501 5170.391)">
      <path id="Path_13" data-name="Path 13" d="M413.1,360.018c-2.591.066-2.7-3.961-.1-4.027s2.7,3.961.1,4.027Z" transform="translate(-411.1 -355.989)" fill="#452c6d"/>
    </g>
    <g id="Group_10" data-name="Group 10" transform="translate(1254.756 4977.139)">
      <path id="Path_14" data-name="Path 14" d="M142.951,220.333c-2.593.066-2.7-3.961-.1-4.027s2.7,3.961.1,4.027Z" transform="translate(-140.953 -216.304)" fill="#fff"/>
    </g>
    <g id="Group_11" data-name="Group 11" transform="translate(1152.269 5107.813)">
      <path id="Path_15" data-name="Path 15" d="M68.871,314.786c-2.591.066-2.7-3.961-.1-4.027s2.7,3.961.1,4.027Z" transform="translate(-66.873 -310.757)" fill="#fff"/>
    </g>
    <g id="Group_12" data-name="Group 12" transform="translate(1598.082 5012.158)">
      <path id="Path_16" data-name="Path 16" d="M391.11,245.645c-2.591.066-2.7-3.961-.1-4.027s2.7,3.961.1,4.027Z" transform="translate(-389.113 -241.616)" fill="#f95b5e"/>
    </g>
    <g id="Group_13" data-name="Group 13" transform="translate(1318.597 4863.508)">
      <path id="Path_17" data-name="Path 17" d="M189.095,138.2c-2.591.065-2.7-3.962-.1-4.027s2.7,3.961.1,4.027Z" transform="translate(-187.098 -134.17)" fill="#f95b5e"/>
    </g>
    <g id="Group_14" data-name="Group 14" transform="translate(1307.346 4876.491)">
      <path id="Path_18" data-name="Path 18" d="M180.963,147.583c-2.591.066-2.7-3.961-.1-4.027s2.7,3.961.1,4.027Z" transform="translate(-178.965 -143.554)" fill="#f95b5e"/>
    </g>
    <g id="Group_16" data-name="Group 16" transform="translate(1460.057 4940.691)">
      <path id="Path_20" data-name="Path 20" d="M291.344,193.988c-2.591.066-2.7-3.961-.1-4.027s2.7,3.961.1,4.027Z" transform="translate(-289.347 -189.959)" fill="#f95b5e"/>
    </g>
    <g id="Group_17" data-name="Group 17" transform="translate(1251.506 5078.225)">
      <path id="Path_21" data-name="Path 21" d="M140.6,293.4c-2.591.066-2.7-3.961-.1-4.027s2.7,3.961.1,4.027Z" transform="translate(-138.603 -289.37)" fill="#f95b5e"/>
    </g>
    <g id="Group_18" data-name="Group 18" transform="translate(1595.839 4961.405)">
      <path id="Path_22" data-name="Path 22" d="M389.489,208.96c-2.591.066-2.7-3.961-.1-4.027s2.7,3.961.1,4.027Z" transform="translate(-387.491 -204.931)" fill="#f95b5e"/>
    </g>
    <g id="Group_19" data-name="Group 19" transform="translate(1175.914 5070.729)">
      <path id="Path_23" data-name="Path 23" d="M85.962,287.981c-2.591.066-2.7-3.961-.1-4.027s2.7,3.961.1,4.027Z" transform="translate(-83.965 -283.952)" fill="#f95b5e"/>
    </g>
    <g id="Group_21" data-name="Group 21" transform="translate(1277.337 4921.67)">
      <path id="Path_25" data-name="Path 25" d="M159.27,180.239c-2.59.066-2.7-3.961-.1-4.027s2.7,3.961.1,4.027Z" transform="translate(-157.274 -176.21)" fill="#fff"/>
    </g>
    <g id="Group_22" data-name="Group 22" transform="translate(1255.507 5082.811)">
      <path id="Path_26" data-name="Path 26" d="M143.493,296.714c-2.591.066-2.7-3.961-.1-4.027s2.7,3.961.1,4.027Z" transform="translate(-141.496 -292.685)" fill="#fff"/>
    </g>
    <g id="Group_23" data-name="Group 23" transform="translate(1373.827 5046.594)">
      <path id="Path_27" data-name="Path 27" d="M229.016,270.537c-2.591.065-2.7-3.962-.1-4.029s2.7,3.962.1,4.029Z" transform="translate(-227.018 -266.507)" fill="#fff"/>
    </g>
    <g id="Group_24" data-name="Group 24" transform="translate(1389.993 5131.24)">
      <path id="Path_28" data-name="Path 28" d="M240.7,331.719c-2.591.065-2.7-3.961-.1-4.027s2.7,3.961.1,4.027Z" transform="translate(-238.703 -327.69)" fill="#fff"/>
    </g>
    <path id="Path_30" data-name="Path 30" d="M439.738,391.908l-.014-.537a4.029,4.029,0,1,1,8.055-.2l.014.537a4.029,4.029,0,0,1-8.055.2Z" transform="translate(1228.378 4826.386)" fill="#452c6d"/>
    <g id="Group_26" data-name="Group 26" transform="translate(1143.69 5183.703)">
      <path id="Path_31" data-name="Path 31" d="M62.919,370.139c-2.914.075-3.034-4.452-.116-4.527s3.034,4.452.116,4.527Z" transform="translate(-60.673 -365.611)" fill="#452c6d"/>
    </g>
    <g id="Group_27" data-name="Group 27" transform="translate(1179.21 5089.446)">
      <path id="Path_32" data-name="Path 32" d="M90.341,305.537c-5.183.133-5.4-7.922-.2-8.055s5.4,7.922.2,8.055Z" transform="translate(-86.347 -297.481)" fill="#452c6d"/>
    </g>
    <g id="Group_28" data-name="Group 28" transform="translate(1350.09 4953.482)">
      <path id="Path_33" data-name="Path 33" d="M213.856,207.261c-5.184.133-5.4-7.922-.206-8.055s5.4,7.922.206,8.055Z" transform="translate(-209.861 -199.205)" fill="#452c6d"/>
    </g>
    <g id="Group_29" data-name="Group 29" transform="translate(1593.211 5167.534)">
      <path id="Path_34" data-name="Path 34" d="M389.586,361.98c-5.183.133-5.4-7.922-.2-8.055s5.4,7.922.2,8.055Z" transform="translate(-385.592 -353.924)" fill="#fff"/>
    </g>
    <g id="Group_30" data-name="Group 30" transform="translate(1386.646 5148.241)">
      <path id="Path_35" data-name="Path 35" d="M240.279,348.035c-5.183.133-5.4-7.922-.206-8.055s5.4,7.922.206,8.055Z" transform="translate(-236.285 -339.979)" fill="#fff"/>
    </g>
    <g id="Group_33" data-name="Group 33" transform="translate(1146.123 4964.801)">
      <g id="Group_32" data-name="Group 32" transform="translate(0 0)">
        <path id="Path_36" data-name="Path 36" d="M62.431,207.386l43.5,45.49.495,19.386Z" transform="translate(-62.431 -207.386)" fill="#faaf41"/>
        <path id="Path_37" data-name="Path 37" d="M94.858,259.746l.829-19.722-3.094.6Z" transform="translate(-50.865 -194.87)" fill="#faaf41"/>
        <path id="Path_38" data-name="Path 38" d="M62.431,207.386l5.854,59.82,37.645-14.33Z" transform="translate(-62.431 -207.386)" fill="#faaf41"/>
        <path id="Path_39" data-name="Path 39" d="M62.431,207.386l76.608,38.354-33.11,7.136Z" transform="translate(-62.431 -207.386)" fill="#ffd77e"/>
      </g>
      <path id="Path_40" data-name="Path 40" d="M96.05,259.475a20.571,20.571,0,0,0,12.415,14.781,24.977,24.977,0,0,0,19.561-.672c2.839-1.294,5.631-3.291,6.577-6.264,1.3-4.087-1.732-8.762-5.858-9.936s-8.727.715-11.512,3.976-3.95,7.66-4.062,11.948a16.438,16.438,0,0,0,1.958,8.9c2.548,4.251,7.558,6.39,12.421,7.35a40.492,40.492,0,0,0,26.545-3.907" transform="translate(-49.539 -188.347)" fill="none" stroke="#173756" stroke-miterlimit="10" stroke-width="0.869" stroke-dasharray="2.896"/>
    </g>
    <g id="Group_35" data-name="Group 35" transform="translate(1501.815 4854.785)">
      <g id="Group_34" data-name="Group 34" transform="translate(61.295 0)">
        <path id="Path_41" data-name="Path 41" d="M383.446,149.588l.322,12.614,63.684-31.55Z" transform="translate(-356.314 -126.796)" fill="#e5713e"/>
        <path id="Path_42" data-name="Path 42" d="M456.557,127.865l-73.346,22.708,36.6,11.449Z" transform="translate(-356.404 -127.865)" fill="#faaf41"/>
        <path id="Path_43" data-name="Path 43" d="M463.988,127.865,363.835,143.672l27.132,6.985Z" transform="translate(-363.835 -127.865)" fill="#e5713e"/>
      </g>
      <path id="Path_44" data-name="Path 44" d="M403.907,158.071a55.265,55.265,0,0,1-42.639,14.163c-5.743-.6-11.555-2.2-16.075-5.8-2.1-1.669-3.969-3.965-4.067-6.645-.107-2.9,1.87-5.454,3.979-7.453,4.228-4.009,10.384-7.07,15.783-4.88,6.81,2.763,8.086,12.691,4.09,18.856s-11.329,9.232-18.4,11.226a109.917,109.917,0,0,1-27.046,4.084" transform="translate(-319.53 -120.631)" fill="none" stroke="#173756" stroke-miterlimit="10" stroke-width="0.869" stroke-dasharray="2.896"/>
    </g>
    <g id="Group_56" data-name="Group 56" transform="translate(1113.289 4960)">
      <g id="Group_55" data-name="Group 55" transform="translate(0 0)">
        <g id="Group_54" data-name="Group 54">
          <g id="Group_53" data-name="Group 53">
            <path id="Path_45" data-name="Path 45" d="M232.177,354.588l287.979,47.517c4.565-2.468,10.044-4.762,14.19-4.393l.178,6.764L359.369,479.993,38.828,401.169Z" transform="translate(-38.649 -146.136)" fill="#a7a9ac"/>
            <path id="Path_46" data-name="Path 46" d="M38.7,383.367l.178,6.765s19.607-1.3,21.8-2.857S38.7,383.367,38.7,383.367Z" transform="translate(-38.698 -135.099)" fill="#a7a9ac"/>
            <g id="Group_52" data-name="Group 52" transform="translate(193.228)">
              <path id="Path_47" data-name="Path 47" d="M179.568,407.828l301.268,47.665a2.374,2.374,0,0,0,2.4-1.673l67.7-200a1.575,1.575,0,0,0-1.081-2.223L248.583,203.935a2.373,2.373,0,0,0-2.4,1.674l-67.7,200A1.576,1.576,0,0,0,179.568,407.828Z" transform="translate(-178.366 -203.916)" fill="#173756"/>
              <path id="Path_48" data-name="Path 48" d="M188.037,394.879l284.289,44.979,61.64-182.1L249.677,212.776Z" transform="translate(-174.658 -200.519)" fill="#ffd77e"/>
              <path id="Path_49" data-name="Path 49" d="M472.325,417.995l50.168-148.21c-30.536,1.747-61.044,4.442-91.34,7.457-74.443,7.409-149.3,16.789-222.083,33.635l-21.033,62.139Z" transform="translate(-174.658 -178.656)" fill="#faaf41"/>
              <g id="Group_48" data-name="Group 48" transform="translate(46.078 37.765)">
                <path id="Path_50" data-name="Path 50" d="M417.585,325.253l-64.979-10.336,21.754-63,64.979,10.336Z" transform="translate(-157.626 -223.275)" fill="none" stroke="#fff" stroke-miterlimit="10" stroke-width="1.022" stroke-dasharray="2.896"/>
                <path id="Path_51" data-name="Path 51" d="M276.651,361.23l-64.979-10.336,21.755-63,64.979,10.336Z" transform="translate(-211.672 -209.478)" fill="none" stroke="#fff" stroke-miterlimit="10" stroke-width="1.022" stroke-dasharray="2.896"/>
                <g id="Group_38" data-name="Group 38" transform="translate(169.156 106.153)">
                  <path id="Path_52" data-name="Path 52" d="M398.7,381.559l-64.763-10.75,22.169-62.867,64.763,10.75Z" transform="translate(-333.94 -307.942)" fill="#173756"/>
                  <g id="Group_37" data-name="Group 37" transform="translate(5.539 56.007)">
                    <path id="Path_53" data-name="Path 53" d="M396.368,359.67l-58.424-9.7.546-1.548,58.424,9.7Z" transform="translate(-337.943 -348.424)" fill="#0c253a"/>
                    <path id="Path_54" data-name="Path 54" d="M381.815,356.463l-43.395-7.2.164-.465,43.395,7.2Z" transform="translate(-337.76 -348.282)" fill="#fff"/>
                  </g>
                  <path id="Path_55" data-name="Path 55" d="M385.421,339.683c-2.833,8.035-11.841,13.435-20.119,12.061s-12.691-9-9.857-17.036,11.841-13.436,20.119-12.063S388.254,331.647,385.421,339.683Z" transform="translate(-326.022 -302.385)" fill="#122d44"/>
                  <path id="Path_56" data-name="Path 56" d="M363.5,334.386l2.48-7.032,5.034,4.558,5.034,4.558-7.514,2.475-7.514,2.475Z" transform="translate(-323.556 -300.498)" fill="#fff"/>
                </g>
                <g id="Group_42" data-name="Group 42" transform="translate(83.825 91.717)">
                  <path id="Path_57" data-name="Path 57" d="M338.3,372.577l-66.041-10.962,22.607-64.108,66.041,10.962Z" transform="translate(-272.262 -297.507)" fill="#ea3636"/>
                  <g id="Group_41" data-name="Group 41" transform="translate(19.702 20.084)">
                    <g id="Group_39" data-name="Group 39" transform="translate(0 6.219)">
                      <path id="Path_58" data-name="Path 58" d="M288.6,332.984l24.892,4.131a3.72,3.72,0,0,0,3.946-2.366l3.78-10.715a2.439,2.439,0,0,0-1.934-3.342l-24.892-4.131a3.721,3.721,0,0,0-3.947,2.366l-3.778,10.715A2.439,2.439,0,0,0,288.6,332.984Z" transform="translate(-286.503 -316.519)" fill="#fff"/>
                      <path id="Path_59" data-name="Path 59" d="M293.81,327.915l-2.7,10.052-3.694-11Z" transform="translate(-286.154 -312.512)" fill="#fff"/>
                    </g>
                    <g id="Group_40" data-name="Group 40" transform="translate(17.197)">
                      <path id="Path_60" data-name="Path 60" d="M325.925,332.62l-24.892-4.131a2.439,2.439,0,0,1-1.934-3.342l3.78-10.715a3.72,3.72,0,0,1,3.946-2.366l24.892,4.131a2.439,2.439,0,0,1,1.934,3.342l-3.78,10.715A3.72,3.72,0,0,1,325.925,332.62Z" transform="translate(-298.933 -312.024)" fill="#6e9ce5"/>
                      <path id="Path_61" data-name="Path 61" d="M316.573,324.97l-4.293,9.788,10.613-8.623Z" transform="translate(-293.814 -307.06)" fill="#6e9ce5"/>
                    </g>
                  </g>
                </g>
                <g id="Group_47" data-name="Group 47" transform="translate(24.619)">
                  <path id="Path_62" data-name="Path 62" d="M295.508,306.283l-66.041-10.962,22.607-64.108,66.041,10.962Z" transform="translate(-229.467 -231.213)" fill="#ff5c5c"/>
                  <g id="Group_46" data-name="Group 46" transform="translate(24.135 16.837)">
                    <g id="Group_43" data-name="Group 43">
                      <path id="Path_63" data-name="Path 63" d="M263.793,243.383c-1.419.863-3.795,2.306-5.747,3.479l-11.134,31.574,24.792,4.116,12.61-35.762Z" transform="translate(-246.912 -243.383)" fill="#fff"/>
                    </g>
                    <path id="Path_64" data-name="Path 64" d="M259.229,247.571l1.478-4.188c-1.954,1.175-4.329,2.616-5.747,3.479Z" transform="translate(-243.826 -243.383)" fill="#173756"/>
                    <g id="Group_45" data-name="Group 45" transform="translate(21.219 34.001)">
                      <path id="Path_65" data-name="Path 65" d="M270.106,272.355a4.818,4.818,0,0,1-5.126,3.073,3.16,3.16,0,0,1-2.512-4.341,4.82,4.82,0,0,1,5.126-3.073A3.159,3.159,0,0,1,270.106,272.355Z" transform="translate(-262.249 -267.96)" fill="#173756"/>
                      <g id="Group_44" data-name="Group 44" transform="translate(1.344 1.265)">
                        <path id="Path_66" data-name="Path 66" d="M265.259,273.857l-1.135-.188,1.69-4.794,1.135.188Z" transform="translate(-262.874 -268.874)" fill="#fff"/>
                        <path id="Path_67" data-name="Path 67" d="M263.22,271.082l.388-1.1,4.938.82-.388,1.1Z" transform="translate(-263.22 -268.45)" fill="#fff"/>
                      </g>
                    </g>
                    <path id="Path_68" data-name="Path 68" d="M276.874,252.1l-21.6-3.585.309-.876,21.6,3.585Z" transform="translate(-243.704 -241.75)" fill="#e6e7e8"/>
                    <path id="Path_69" data-name="Path 69" d="M276.294,253.748l-21.6-3.585.309-.876,21.6,3.585Z" transform="translate(-243.927 -241.119)" fill="#e6e7e8"/>
                    <path id="Path_70" data-name="Path 70" d="M275.713,255.394l-21.6-3.585.309-.876,21.6,3.585Z" transform="translate(-244.149 -240.488)" fill="#e6e7e8"/>
                    <path id="Path_71" data-name="Path 71" d="M275.133,257.04l-21.6-3.585.309-.876,21.6,3.585Z" transform="translate(-244.372 -239.856)" fill="#e6e7e8"/>
                    <path id="Path_72" data-name="Path 72" d="M274.552,258.687l-21.6-3.585.309-.876,21.6,3.585Z" transform="translate(-244.595 -239.225)" fill="#e6e7e8"/>
                    <path id="Path_73" data-name="Path 73" d="M273.972,260.333l-21.6-3.585.309-.876,21.6,3.585Z" transform="translate(-244.817 -238.594)" fill="#e6e7e8"/>
                    <path id="Path_74" data-name="Path 74" d="M273.391,261.979l-21.6-3.585.309-.876,21.6,3.585Z" transform="translate(-245.04 -237.962)" fill="#e6e7e8"/>
                    <path id="Path_75" data-name="Path 75" d="M272.811,263.625l-21.6-3.585.309-.876,21.6,3.585Z" transform="translate(-245.262 -237.331)" fill="#e6e7e8"/>
                    <path id="Path_76" data-name="Path 76" d="M272.23,265.271l-21.6-3.585.309-.876,21.6,3.585Z" transform="translate(-245.485 -236.7)" fill="#e6e7e8"/>
                    <path id="Path_77" data-name="Path 77" d="M271.65,266.918l-21.6-3.585.309-.876,21.6,3.585Z" transform="translate(-245.708 -236.068)" fill="#e6e7e8"/>
                    <path id="Path_78" data-name="Path 78" d="M271.069,268.564l-21.6-3.585.309-.876,21.6,3.585Z" transform="translate(-245.93 -235.437)" fill="#e6e7e8"/>
                  </g>
                </g>
              </g>
              <g id="Group_49" data-name="Group 49" transform="translate(156.476 52.363)">
                <path id="Path_79" data-name="Path 79" d="M356.448,315.105l-64.979-10.336,21.754-63L378.2,252.1Z" transform="translate(-291.469 -241.765)" fill="none" stroke="#fff" stroke-miterlimit="10" stroke-width="1.022" stroke-dasharray="2.896"/>
              </g>
              <g id="Group_51" data-name="Group 51" transform="translate(142.818 35.806)">
                <path id="Path_80" data-name="Path 80" d="M346.576,303.138,281.6,292.8l21.755-63,64.979,10.336Z" transform="translate(-281.597 -229.797)" fill="#8dc63f"/>
                <g id="Group_50" data-name="Group 50" transform="translate(11.367 14.746)">
                  <path id="Path_81" data-name="Path 81" d="M289.813,271.7l51.121,8.485-.98-20.936-21.685,5-10.442-12.239Z" transform="translate(-289.813 -236.026)" fill="#fff"/>
                  <ellipse id="Ellipse_1" data-name="Ellipse 1" cx="8.617" cy="7.226" rx="8.617" ry="7.226" transform="translate(42.266 9.401) rotate(-33.056)" fill="#fff"/>
                </g>
              </g>
              <text id="_C_M_S_" data-name="&lt;C M S&gt;" transform="translate(257.863 105.476) rotate(17.752)" fill="#173756" font-size="19" font-family="BebasNeueBold, Bebas Neue"><tspan x="0" y="0">&lt;C M S&gt;</tspan></text>
            </g>
            <path id="Path_82" data-name="Path 82" d="M534.4,399.587,359.24,475.1,38.7,396.278,232.047,349.7Z" transform="translate(-38.699 -148.011)" fill="#e6e7e8"/>
            <path id="Path_83" data-name="Path 83" d="M477.444,401.5,207.695,352.578h0c-8.057,1.187-105.911,27.7-99.269,25.82l270.657,59.27Z" transform="translate(-12.083 -147.096)" fill="#d1d3d4"/>
            <path id="Path_84" data-name="Path 84" d="M245.759,371.065l10.044-3.45,16.2,2.953-9.565,3.615Z" transform="translate(40.706 -141.14)" fill="#173756"/>
            <path id="Path_85" data-name="Path 85" d="M228.593,367.82l10.13-3.323,19.993,3.645L248.7,371.58Z" transform="translate(34.123 -142.336)" fill="#173756"/>
            <path id="Path_86" data-name="Path 86" d="M322.5,385.523l10.636-3.84,20.955,3.82-10.815,3.9Z" transform="translate(70.134 -135.745)" fill="#173756"/>
            <path id="Path_87" data-name="Path 87" d="M260.311,373.835l9.594-3.626,16.234,2.96-9.728,3.677Z" transform="translate(46.286 -140.146)" fill="#173756"/>
            <path id="Path_88" data-name="Path 88" d="M305.735,382.368l10.436-3.767,19.82,3.613-10.605,3.829Z" transform="translate(63.706 -136.927)" fill="#173756"/>
            <path id="Path_89" data-name="Path 89" d="M212.587,364.785l10.385-3.172,18.125,3.3L231,368.228Z" transform="translate(27.985 -143.442)" fill="#173756"/>
            <path id="Path_90" data-name="Path 90" d="M289.18,379.252l10.238-3.7,19.53,3.561-10.405,3.756Z" transform="translate(57.357 -138.095)" fill="#173756"/>
            <path id="Path_91" data-name="Path 91" d="M274.443,376.495l9.757-3.688,17.3,3.153-10.207,3.685Z" transform="translate(51.706 -139.149)" fill="#173756"/>
            <path id="Path_92" data-name="Path 92" d="M182.85,359l13.715-2.373,33.9,6.18-10.348,3.161Z" transform="translate(16.582 -145.353)" fill="#173756"/>
            <path id="Path_93" data-name="Path 93" d="M373.742,389.076l-13.129,3.6-20.541-3.841,10.846-3.916Z" transform="translate(76.874 -134.506)" fill="#173756"/>
            <path id="Path_94" data-name="Path 94" d="M328.163,393.164l21.406,4.241-11.422,4.146L316.974,397.2Z" transform="translate(68.016 -131.342)" fill="#173756"/>
            <path id="Path_95" data-name="Path 95" d="M146.451,378.544l-22.5-4.641,13.29-3.6,21.319,4.542Z" transform="translate(-6.007 -140.109)" fill="#173756"/>
            <path id="Path_96" data-name="Path 96" d="M157.568,374.767l-21.044-4.483,10.436-2.826,20.345,4.334Z" transform="translate(-1.184 -141.2)" fill="#173756"/>
            <path id="Path_97" data-name="Path 97" d="M300.721,393.812l21.184,4.351-12.012,4.361-20.945-4.462Z" transform="translate(57.269 -131.094)" fill="#173756"/>
            <path id="Path_98" data-name="Path 98" d="M313.229,390.324l-19.26-3.816,9.359-3.378,19.528,3.719Z" transform="translate(59.194 -135.191)" fill="#173756"/>
            <path id="Path_99" data-name="Path 99" d="M337.629,389.628l21.653,4.124-10.265,3.727-21.393-4.239Z" transform="translate(72.1 -132.698)" fill="#173756"/>
            <path id="Path_100" data-name="Path 100" d="M330.759,393.828,310.4,389.794l9.674-3.493,20.645,3.932Z" transform="translate(65.494 -133.974)" fill="#173756"/>
            <path id="Path_101" data-name="Path 101" d="M296.721,387.022l-18.978-3.76L286.79,380l19.241,3.665Z" transform="translate(52.972 -136.392)" fill="#173756"/>
            <path id="Path_102" data-name="Path 102" d="M194.228,371.648l-19.35-3.974,10.3-2.789,18.918,3.748Z" transform="translate(13.524 -142.187)" fill="#173756"/>
            <path id="Path_103" data-name="Path 103" d="M177.865,368.009l-19.35-3.974,11.024-2.64,18.919,3.748Z" transform="translate(7.249 -143.526)" fill="#173756"/>
            <path id="Path_104" data-name="Path 104" d="M220.259,371.682l-18.678-3.7,8.433-2.575,18.587,3.54Z" transform="translate(23.764 -141.987)" fill="#173756"/>
            <path id="Path_105" data-name="Path 105" d="M167.107,371.744l-20.07-4.275,10.853-2.939,19.633,4.032Z" transform="translate(2.848 -142.323)" fill="#173756"/>
            <path id="Path_106" data-name="Path 106" d="M252.106,378.086l-17.262-3.42,8.492-2.917,16.979,3.234Z" transform="translate(36.52 -139.555)" fill="#173756"/>
            <path id="Path_107" data-name="Path 107" d="M185.379,364.71l8.695-2.354,18.306,3.487-8.374,2.558Z" transform="translate(17.551 -143.157)" fill="#173756"/>
            <path id="Path_108" data-name="Path 108" d="M170.162,361.159l7.99-2.074,18.306,3.487-7.668,2.277Z" transform="translate(11.716 -144.411)" fill="#173756"/>
            <path id="Path_109" data-name="Path 109" d="M279.687,383.634l-16.058-3.181,8.514-3.219,16.544,3.151Z" transform="translate(47.559 -137.451)" fill="#173756"/>
            <path id="Path_110" data-name="Path 110" d="M237.849,375.216l-20.129-3.988,8.4-2.754,20.174,3.842Z" transform="translate(29.954 -140.811)" fill="#173756"/>
            <path id="Path_111" data-name="Path 111" d="M265.557,380.808l-15.789-3.128,8.255-3.12,16,3.048Z" transform="translate(42.244 -138.477)" fill="#173756"/>
            <path id="Path_112" data-name="Path 112" d="M201.141,379.065l-9.072,3.116-20.722-4.414,9.331-3.061Z" transform="translate(12.17 -138.421)" fill="#173756"/>
            <path id="Path_113" data-name="Path 113" d="M283.75,390.32l10.592-3.824,19.26,3.816-10.839,3.913Z" transform="translate(55.275 -133.899)" fill="#173756"/>
            <path id="Path_114" data-name="Path 114" d="M283.629,390.32l20.1,4.128L292,398.682l-19.834-4.225Z" transform="translate(50.834 -132.433)" fill="#173756"/>
            <path id="Path_115" data-name="Path 115" d="M254.085,384.191l9.763-3.691,15.953,3.161-10.26,3.7Z" transform="translate(43.899 -136.199)" fill="#173756"/>
            <path id="Path_116" data-name="Path 116" d="M310.852,389.751l20.362,4.034-11.144,4.023-20.1-4.128Z" transform="translate(61.495 -132.651)" fill="#173756"/>
            <path id="Path_117" data-name="Path 117" d="M267.733,387l10.3-3.72,18.978,3.76-10.548,3.808Z" transform="translate(49.133 -135.132)" fill="#173756"/>
            <path id="Path_118" data-name="Path 118" d="M191.564,371.168l9.924-3.031,18.846,3.734-9.76,3.2Z" transform="translate(19.923 -140.94)" fill="#173756"/>
            <path id="Path_119" data-name="Path 119" d="M240.4,381.355l9.525-3.6,15.789,3.128-9.721,3.674Z" transform="translate(38.65 -137.252)" fill="#173756"/>
            <path id="Path_120" data-name="Path 120" d="M207.906,374.576l9.81-3.218,20.237,4.009-9.8,3.367Z" transform="translate(26.19 -139.705)" fill="#173756"/>
            <path id="Path_121" data-name="Path 121" d="M225.081,378.148l9.847-3.382,17.481,3.464-9.482,3.584Z" transform="translate(32.776 -138.398)" fill="#173756"/>
            <path id="Path_122" data-name="Path 122" d="M258.783,391.376l-8.795,3.175L231.5,390.613l8.795-3.175Z" transform="translate(35.239 -133.538)" fill="#173756"/>
            <path id="Path_123" data-name="Path 123" d="M216.544,382.362,208,385.591l-19.171-4.084,9.072-3.116Z" transform="translate(18.875 -137.008)" fill="#173756"/>
            <path id="Path_124" data-name="Path 124" d="M229.007,385.048l-8.542,3.229L205.074,385l8.542-3.229Z" transform="translate(25.104 -135.712)" fill="#173756"/>
            <path id="Path_125" data-name="Path 125" d="M164.132,371.158l19.5,4.154-9.332,3.061-19.9-4.24Z" transform="translate(5.669 -139.782)" fill="#173756"/>
            <path id="Path_126" data-name="Path 126" d="M291.938,398.439l-8.795,3.175-19.833-4.225,8.795-3.175Z" transform="translate(47.436 -130.94)" fill="#173756"/>
            <path id="Path_127" data-name="Path 127" d="M154.966,374.154l20.063,4.274-11.293,3.7-20.827-4.3Z" transform="translate(1.265 -138.632)" fill="#173756"/>
            <path id="Path_128" data-name="Path 128" d="M288.883,397.788l20.957,4.464-8.764,3.182-20.988-4.471Z" transform="translate(53.871 -129.569)" fill="#173756"/>
            <path id="Path_129" data-name="Path 129" d="M274.862,394.8l-8.794,3.175-18.76-4L256.1,390.8Z" transform="translate(41.3 -132.247)" fill="#173756"/>
            <path id="Path_130" data-name="Path 130" d="M180.748,374.777l10.357-3.4,20.351,4.18-10.348,3.555Z" transform="translate(15.775 -139.696)" fill="#173756"/>
            <path id="Path_131" data-name="Path 131" d="M241.872,387.789l-8.795,3.175-14.493-3.087,8.542-3.229Z" transform="translate(30.285 -134.608)" fill="#173756"/>
            <path id="Path_132" data-name="Path 132" d="M233.186,390.967l-9.636,3.479L209.27,391.5l9.523-3.6Z" transform="translate(26.713 -133.361)" fill="#173756"/>
            <path id="Path_133" data-name="Path 133" d="M283.154,401.637l-8.831,3.189-20.071-4.14,9.069-3.274Z" transform="translate(43.963 -129.713)" fill="#173756"/>
            <path id="Path_134" data-name="Path 134" d="M220.734,388.3l-9.561,3.614L195.6,388.7l9.74-3.682Z" transform="translate(21.472 -134.465)" fill="#173756"/>
            <path id="Path_135" data-name="Path 135" d="M301.022,405.46l-8.51,3.089-21.282-4.388,8.791-3.174Z" transform="translate(50.474 -128.343)" fill="#173756"/>
            <path id="Path_136" data-name="Path 136" d="M197.97,378.494l10.4-3.571,18.059,3.709L216.4,382.42Z" transform="translate(22.38 -138.338)" fill="#173756"/>
            <path id="Path_137" data-name="Path 137" d="M266.151,398l-9.11,3.289-18.984-3.915,9.334-3.37Z" transform="translate(37.753 -131.021)" fill="#173756"/>
            <path id="Path_138" data-name="Path 138" d="M208.576,385.658l-9.778,3.7-20.233-4.173L189.2,381.53Z" transform="translate(14.938 -135.804)" fill="#173756"/>
            <path id="Path_139" data-name="Path 139" d="M250.145,394.575l-9.374,3.384L222.064,394.1l9.6-3.464Z" transform="translate(31.619 -132.312)" fill="#173756"/>
            <path id="Path_140" data-name="Path 140" d="M286.341,390.894l-11.414,4.121-18.76-4,11.161-4.029Z" transform="translate(44.697 -133.711)" fill="#173756"/>
            <path id="Path_141" data-name="Path 141" d="M227.19,384.809l10.311-3.9,15.354,3.153-10.82,3.906Z" transform="translate(33.585 -136.041)" fill="#173756"/>
            <path id="Path_142" data-name="Path 142" d="M213.679,381.905l10.065-3.8,15.593,3.2-10.267,3.881Z" transform="translate(28.404 -137.119)" fill="#173756"/>
            <path id="Path_143" data-name="Path 143" d="M192.634,382.226l-10.674,3.667-21.4-4.413,11.248-3.689Z" transform="translate(8.034 -137.238)" fill="#173756"/>
            <path id="Path_144" data-name="Path 144" d="M240.363,387.622l10.866-3.922,18.735,3.848-11.115,4.013Z" transform="translate(38.637 -134.972)" fill="#173756"/>
            <path id="Path_145" data-name="Path 145" d="M183.542,375.317,164.2,371.2l10.47-3.2,19.173,3.938Z" transform="translate(9.431 -140.993)" fill="#173756"/>
            <path id="Path_146" data-name="Path 146" d="M261.861,404.415,185.768,388.04,124.7,405.161l83.565,19.063Z" transform="translate(-5.717 -133.308)" fill="#bcbec0"/>
            <path id="Path_147" data-name="Path 147" d="M288.645,410.035l20.724-7.523,10.292,1.891,16.078-5.475,10.363,1.9-36.721,13.559Z" transform="translate(57.152 -129.132)" fill="#173756"/>
          </g>
        </g>
      </g>
    </g>
    <g id="Group_58" data-name="Group 58" transform="translate(1572.375 4973.746)">
      <g id="Group_57" data-name="Group 57" transform="translate(0 0)">
        <path id="Path_148" data-name="Path 148" d="M377.459,272.617l82.44,13.665a9.288,9.288,0,0,0,9.666-5.613L485,241.1c1.454-3.727-.516-7.3-4.377-7.941L398.186,219.5a9.287,9.287,0,0,0-9.666,5.613l-15.438,39.568C371.628,268.4,373.6,271.977,377.459,272.617Z" transform="translate(-369.737 -211.725)" fill="#e5713e"/>
        <path id="Path_149" data-name="Path 149" d="M386.155,224.563l3.565-10.712,86.667,17.14-11.809,26.132Z" transform="translate(-364.54 -213.852)" fill="#fff"/>
        <path id="Path_150" data-name="Path 150" d="M458.339,286.264,375.9,272.6a6.3,6.3,0,0,1-5.113-8.063l11.141-40.28a8.133,8.133,0,0,1,8.93-5.735L473.3,232.187a6.3,6.3,0,0,1,5.115,8.063L467.27,280.528A8.135,8.135,0,0,1,458.339,286.264Z" transform="translate(-370.531 -212.098)" fill="#faaf41"/>
        <path id="Path_151" data-name="Path 151" d="M422.028,227.063l1.152-3.46a2.654,2.654,0,0,1,2.849-1.739l22.3,3.7-1.966,5.909Z" transform="translate(-350.783 -210.791)" fill="#faaf41"/>
      </g>
      <text id="_" data-name="&lt;/&gt;" transform="translate(26.924 49.087) rotate(17.752)" fill="#82561c" font-size="34" font-family="BebasNeueBold, Bebas Neue"><tspan x="0" y="0">&lt;/&gt;</tspan></text>
    </g>
    <g id="Group_59" data-name="Group 59" transform="translate(1301.312 5096.983)" opacity="0.95">
      <path id="Path_152" data-name="Path 152" d="M237.124,362.787l-52.831-8.756c-7.357-1.22-11.387-8.016-9-15.18L183.6,313.88c2.385-7.164,10.282-11.982,17.638-10.762l52.833,8.756c7.357,1.22,11.387,8.016,9,15.18l-8.313,24.97A16.427,16.427,0,0,1,237.124,362.787Z" transform="translate(-174.603 -302.929)" fill="#ea3636"/>
      <path id="Path_153" data-name="Path 153" d="M201.851,326.172l3.007-9.034,6.531,5.849,6.531,5.849-9.538,3.185-9.539,3.185Z" transform="translate(-165.307 -297.481)" fill="#fff"/>
    </g>
    <g id="Group_60" data-name="Group 60" transform="translate(1394.907 5138.037)">
      <path id="Path_154" data-name="Path 154" d="M276.662,372.263s-27.256,26.2-34.407,31.507c0,0,46.225,1.671,85.6-17.018s52.5-39.562,61.3-54.15c0,0-43.783,7.276-53.292,8.315a62.793,62.793,0,0,1-23.411,37.844S298.6,379.1,276.662,372.263Z" transform="translate(-242.255 -332.603)" fill="#fff"/>
      <path id="Path_155" data-name="Path 155" d="M242.255,393.75s46.225,1.671,85.6-17.018a165.349,165.349,0,0,0,30.015-18,112.76,112.76,0,0,1-45.416,10.008s-13.856.34-35.792-6.5C276.662,362.243,249.406,388.447,242.255,393.75Z" transform="translate(-242.255 -322.583)" fill="#e3c8fc"/>
    </g>
    <g id="Group_63" data-name="Group 63" transform="translate(1286.6 4959.87)">
      <path id="Path_156" data-name="Path 156" d="M238.74,289.024,163.969,276.63l24.236-72.808,74.771,12.394Z" transform="translate(-163.969 -203.822)" fill="#8dc63f"/>
      <g id="Group_62" data-name="Group 62" transform="translate(27.754 22.892)">
        <path id="Path_157" data-name="Path 157" d="M218.508,224.023a10.359,10.359,0,0,1,10.873-.259l-8.219,4.931c-1.929,1.157-2.72,3.464-1.757,5.126s3.329,2.078,5.259.92l8.219-4.929a10.738,10.738,0,0,1-5.49,9.556,10.358,10.358,0,0,1-10.873.257L189.7,255.711c-1.929,1.158-4.294.744-5.257-.92s-.173-3.969,1.757-5.127l26.82-16.086A10.736,10.736,0,0,1,218.508,224.023Z" transform="translate(-184.03 -219.61)" fill="#fff"/>
        <g id="Group_61" data-name="Group 61" transform="translate(0.513)">
          <path id="Path_158" data-name="Path 158" d="M206.917,236.206l-7.2-11.447s5.228-3.235,8.861-1.4a1.123,1.123,0,0,0,1.013-.062c.407-.317.548-.558-.322-1.2s-5.982-4.712-15.931,2.486c0,0-.689,4.69-5.371,3.211l-3.568,2.133,3.89,6.388,3.643-2.268a2.864,2.864,0,0,1,1.822-3.3,2.54,2.54,0,0,1,3.52.906l4.193,7.772Z" transform="translate(-184.401 -220.369)" fill="#fff"/>
          <path id="Path_159" data-name="Path 159" d="M213.81,250.261l-7.472-11.953-5.979,3.4,6.479,12.144s2.849,2.288,5.055.632S214.147,250.963,213.81,250.261Z" transform="translate(-178.282 -213.49)" fill="#fff"/>
        </g>
      </g>
    </g>
    <g id="Group_67" data-name="Group 67" transform="translate(1153.388 5102.9)">
      <g id="Group_64" data-name="Group 64" transform="translate(0 0)">
        <path id="Path_160" data-name="Path 160" d="M75.32,371.991l90.887,15.065a10.238,10.238,0,0,0,10.657-6.187l17.02-43.621c1.6-4.11-.569-8.049-4.827-8.755L98.17,313.428a10.237,10.237,0,0,0-10.656,6.188l-17.021,43.62C68.891,367.347,71.062,371.286,75.32,371.991Z" transform="translate(-66.807 -304.862)" fill="#f97f40"/>
        <path id="Path_161" data-name="Path 161" d="M81,318.454l2.736-9.954,105.648,19.762L170.357,376.3Z" transform="translate(-62.576 -306.71)" fill="#d3d3d3"/>
        <path id="Path_162" data-name="Path 162" d="M84.906,319.015l3.931-11.809,95.546,18.9-13.018,28.809Z" transform="translate(-61.077 -307.206)" fill="#fff"/>
        <path id="Path_163" data-name="Path 163" d="M164.486,387.037,73.6,371.972a6.944,6.944,0,0,1-5.638-8.889l12.281-44.406a8.969,8.969,0,0,1,9.846-6.323l90.885,15.065a6.946,6.946,0,0,1,5.639,8.889l-12.283,44.406A8.967,8.967,0,0,1,164.486,387.037Z" transform="translate(-67.682 -305.273)" fill="#faaf41"/>
        <path id="Path_164" data-name="Path 164" d="M124.455,321.771l1.27-3.814a2.924,2.924,0,0,1,3.141-1.917l24.586,4.074-2.168,6.515Z" transform="translate(-45.911 -303.832)" fill="#faaf41"/>
      </g>
      <g id="Group_66" data-name="Group 66" transform="translate(41.587 34.559)">
        <path id="Path_165" data-name="Path 165" d="M122.278,356.451l-23.665-3.922a1,1,0,0,1-.844-.754,1.255,1.255,0,0,1,.389-1.166l18.475-17.995a1.463,1.463,0,0,1,1.231-.411,1,1,0,0,1,.843.754l5.189,21.917a1.251,1.251,0,0,1-.389,1.166A1.459,1.459,0,0,1,122.278,356.451Zm-20.816-5.91,19.518,3.236L116.7,335.7Z" transform="translate(-97.742 -332.186)" fill="#8e5d1c"/>
        <g id="Group_65" data-name="Group 65" transform="translate(13.261 7.665)">
          <path id="Path_166" data-name="Path 166" d="M107.386,347.492a1.166,1.166,0,0,1,1.277-.818.789.789,0,0,1,.628,1.133,1.152,1.152,0,0,1-1.277.818A.8.8,0,0,1,107.386,347.492Zm1.152-2.182,2.287-7.584,1.549.256-2.738,7.511Z" transform="translate(-107.327 -337.726)" fill="#8e5d1c"/>
        </g>
      </g>
    </g>
    <g id="Group_70" data-name="Group 70" transform="translate(1381.579 4889.529)">
      <g id="Group_69" data-name="Group 69" transform="translate(0 0)">
        <path id="Path_167" data-name="Path 167" d="M238.484,202.7l69.753,11.562a7.86,7.86,0,0,0,8.179-4.749l13.063-33.479a4.747,4.747,0,0,0-3.7-6.718l-69.753-11.562a7.858,7.858,0,0,0-8.179,4.748l-13.063,33.479A4.748,4.748,0,0,0,238.484,202.7Z" transform="translate(-231.95 -151.179)" fill="#f97f40"/>
        <path id="Path_168" data-name="Path 168" d="M242.841,161.611l2.1-7.64,81.083,15.167-14.6,36.871Z" transform="translate(-228.703 -152.598)" fill="#d3d3d3"/>
        <path id="Path_169" data-name="Path 169" d="M245.841,162.042l3.017-9.063,73.33,14.5L312.2,189.591Z" transform="translate(-227.552 -152.979)" fill="#fff"/>
        <path id="Path_170" data-name="Path 170" d="M306.917,214.248l-69.753-11.562a5.331,5.331,0,0,1-4.328-6.822l9.426-34.082a6.885,6.885,0,0,1,7.557-4.852l69.754,11.562a5.331,5.331,0,0,1,4.328,6.822L314.473,209.4A6.883,6.883,0,0,1,306.917,214.248Z" transform="translate(-232.622 -151.495)" fill="#faaf41"/>
        <g id="Group_68" data-name="Group 68" transform="translate(23.534 18.518)">
          <path id="Path_171" data-name="Path 171" d="M283.962,194.71l-32.814-5.447a1.755,1.755,0,0,1-1.395-2.41l6.613-18.753a2.68,2.68,0,0,1,2.846-1.707l32.813,5.447a1.756,1.756,0,0,1,1.395,2.411L286.807,193A2.678,2.678,0,0,1,283.962,194.71Zm-30.727-8.322L284.02,191.5l5.919-16.784-30.785-5.109Z" transform="translate(-249.633 -166.363)" fill="#8e5d1c"/>
          <path id="Path_172" data-name="Path 172" d="M268.349,182.742a1.368,1.368,0,0,1-.762-.383l-12.794-12.985a1.5,1.5,0,0,1,.273-2.182,1.731,1.731,0,0,1,2.327-.1l12.154,12.335,20.116-7a1.433,1.433,0,0,1,1.969.873,1.8,1.8,0,0,1-1.267,2l-21.126,7.356A1.8,1.8,0,0,1,268.349,182.742Z" transform="translate(-247.791 -166.238)" fill="#8e5d1c"/>
        </g>
        <path id="Path_173" data-name="Path 173" d="M276.194,164.156l.974-2.927a2.245,2.245,0,0,1,2.411-1.471l18.868,3.127-1.663,5Z" transform="translate(-215.912 -150.389)" fill="#faaf41"/>
      </g>
    </g>
  </g>
</svg>
