<svg xmlns="http://www.w3.org/2000/svg" width="724.102" height="434.944" viewBox="0 0 724.102 434.944">
  <g id="Group_370" data-name="Group 370" transform="translate(-1075.898 -283)">
    <path id="Path_195" data-name="Path 195" d="M-1866.433,136.489h-19.941c-4.54-16.73-2.617-40.14-25.064-49.194q-1.318-.532-2.722-.956V51.349h47.727v85.14" transform="translate(3489.41 294.239)" fill="#b5d1ef"/>
    <path id="Path_196" data-name="Path 196" d="M-1914.16,532.689h0V198.263q1.4.425,2.722.956c22.447,9.054,20.524,32.464,25.064,49.194h-27.786V532.689" transform="translate(3489.41 182.314)" fill="#acd1f1"/>
    <path id="Path_197" data-name="Path 197" d="M-2194.02,781.212h0V524.477h47.725v59.169h-47.725V781.212" transform="translate(3702.619 -66.209)" fill="#acd1f1"/>
    <path id="Path_200" data-name="Path 200" d="M-2473.89,640.387h0V339.629h47.728v69.316h-47.728V640.387" transform="translate(3915.835 74.616)" fill="#acd1f1"/>
    <path id="Path_201" data-name="Path 201" d="M-2753.75,925.64h0V714.055h47.727v48.765h-47.727V925.64" transform="translate(4129.043 -210.637)" fill="#acd1f1"/>
    <path id="Path_203" data-name="Path 203" d="M-1866.433,693.114h-47.727V408.839h27.786c1.312,4.839,3.167,9.119,6.309,12.332a45.162,45.162,0,0,0,13.632,9.852V693.114" transform="translate(3489.41 21.888)" fill="#318d9b"/>
    <path id="Path_204" data-name="Path 204" d="M-2146.3,970.486h-47.725V772.921h47.725V970.486" transform="translate(3702.619 -255.484)" fill="#318d9b"/>
    <path id="Path_206" data-name="Path 206" d="M-2426.163,862.12h-47.728V630.678h47.728V862.12" transform="translate(3915.835 -147.117)" fill="#318d9b"/>
    <path id="Path_207" data-name="Path 207" d="M-2706.023,1081.631h-47.727V918.811h47.727v162.82" transform="translate(4129.043 -366.629)" fill="#318d9b"/>
    <path id="Path_208" data-name="Path 208" d="M-2415.021,63.218l-38.03,28.762,14.506.925-90.782,159.775-50.266-75.359-71.1,165.858-45.736-64.963L-2753.44,358.8l3.587,14.423,53.393-75.111,48.346,68.669,70.845-165.249,48.771,73.12,100.506-176.891,9.331,10.035,3.639-44.574Z" transform="translate(4128.808 285.196)" fill="#fff"/>
    <path id="Path_209" data-name="Path 209" d="M-3608.445,624c-54.574-43.459-100.429-99.669-135.148-165.67l-75.062,60.3c40.144,76.312,93.162,141.3,156.261,191.551q26.975-43.09,53.95-86.178Z" transform="translate(4940.332 -15.819)" fill="#357e69"/>
    <path id="Path_210" data-name="Path 210" d="M-3712.078,524.506l-46.627,38.054c3.7,6.9,2.358,16.209-3.156,20.932,35.29,62.4,79.516,116.613,131.017,160.606,4.211-6.321,12.146-7.547,17.85-2.92l34.019-53.51c-5.249-4.258-6-12.963-1.789-19.279-45.227-38.632-84.064-86.24-115.054-141.035-5.51,4.719-12.854,3.5-16.261-2.848Z" transform="translate(4897.063 -66.231)" fill="#fff"/>
    <path id="Path_211" data-name="Path 211" d="M-3458.049,929.209c11.652-15.037,11.541-37.222.549-50.495-11.021-13.237-29.852-13.859-42.878-.476-13.006,13.354-14.249,37.091-1.859,52,12.376,14.921,32.56,13.99,44.188-1.024Z" transform="translate(4705.845 -328.292)" fill="#4dad92"/>
    <path id="Path_212" data-name="Path 212" d="M-3416.944,926.951q-2.2,2.44-4.393,4.875c3.5,6.421,2.761,13.056-1.015,17.393-3.813,4.363-8.082,4.768-14.59.912-4.727-2.67-7-3.458-8.439-1.9-1.219,1.317-1.622,3.708.96,6.973a17.766,17.766,0,0,0,4.046,3.789,4.378,4.378,0,0,1,1.157,5.559,3.142,3.142,0,0,1-4.662,1.35,24.843,24.843,0,0,1-4.262-3.956q-1.9,2.1-3.8,4.194-1.99-2.494-3.957-5.016l4.137-4.485c-3.346-6.461-2.681-12.887,1.2-16.962,4.287-4.5,9.243-3.117,14.925.445,3.94,2.458,6.224,2.846,7.856,1.031,1.72-1.917,1.16-4.839-1.007-7.6a19.313,19.313,0,0,0-4.916-4.416,4.192,4.192,0,0,1-1-5.554c.041-.072.082-.143.123-.212a3.155,3.155,0,0,1,4.455-1.369,26.2,26.2,0,0,1,5.392,4.8q2.063-2.247,4.125-4.5,1.821,2.336,3.664,4.649Z" transform="translate(4663.969 -368.708)" fill="#357e69"/>
    <path id="Path_213" data-name="Path 213" d="M-3242.4,1177.732q-18.655-15.976-35.925-33.821-2.958,3.844-5.914,7.69,17.5,18.08,36.428,34.295,2.7-4.083,5.411-8.164Z" transform="translate(4533.191 -538.119)" fill="#4dad92"/>
    <path id="Path_214" data-name="Path 214" d="M-3730.326,864.158c-68.549-8.7-135.776-31.63-198.14-67.6l-35.568,83.332C-3891.927,921.481-3814.2,948-3734.94,958.05q2.3-46.945,4.613-93.892Z" transform="translate(5051.086 -273.494)" fill="#357e69"/>
    <path id="Path_215" data-name="Path 215" d="M-3894.842,855.046l-21.8,52.24c6.582,3.727,9.97,11.748,7.5,18.1,61.1,32.84,125.936,54.96,192.08,65.53.56-7.007,6.838-11.729,14.044-10.753q1.657-29.276,3.315-58.547c-6.63-.9-11.536-7.452-10.977-14.454-58.087-9.281-115.026-28.708-168.678-57.544a10.568,10.568,0,0,1-15.485,5.425Z" transform="translate(5014.982 -313.917)" fill="#fff"/>
    <path id="Path_216" data-name="Path 216" d="M-3504.369,1089c2.745-17.44-8.2-35-24.215-40.332-16.024-5.294-32.648,3.11-37.394,19.889-4.741,16.745,5.79,36.172,23.815,42.142,18.021,5.992,35.059-4.287,37.794-21.7Z" transform="translate(4748.697 -464.362)" fill="#4dad92"/>
    <path id="Path_217" data-name="Path 217" d="M-3468.518,1076.136q-.711,2.976-1.423,5.947c6.176,3.439,8.777,9.055,7.625,14.282-1.17,5.266-4.672,7.6-12.2,7.621-5.4.114-7.756.562-8.241,2.482-.412,1.622.407,3.711,4.242,5.08a18.617,18.617,0,0,0,5.359,1.1,4.048,4.048,0,0,1,3.721,3.863,3.092,3.092,0,0,1-3.379,3.275,25.831,25.831,0,0,1-5.628-1.124q-.621,2.565-1.243,5.125-2.945-1.039-5.882-2.11.7-2.758,1.392-5.516c-6.06-3.546-8.624-8.957-7.251-14.027,1.513-5.6,6.485-6.845,13.153-6.7,4.616.088,6.785-.684,7.312-2.9.553-2.334-1.362-4.389-4.591-5.556a20.236,20.236,0,0,0-6.419-1.181,3.863,3.863,0,0,1-3.584-3.934c0-.074,0-.15,0-.224a3.1,3.1,0,0,1,3.191-3.194,27.547,27.547,0,0,1,7.019,1.257q.688-2.758,1.376-5.518,2.72.993,5.448,1.955Z" transform="translate(4691.31 -484.996)" fill="#357e69"/>
    <path id="Path_218" data-name="Path 218" d="M-3213.113,486.059a42.407,42.407,0,0,1-4.88-1.947,24.539,24.539,0,0,0-5.563-2.089c-3.08-.474-8.367-.158-11.288,3-3.638,3.933-10.1.71-8.8,21.312,1.474,23.318,14.485,20.759,14.8,20.364s11.6-14.918,11.6-14.918,3.946,8.6,3.946,8.288,20.153-27.307.183-34.009Z" transform="translate(4502.396 -33.732)" fill="#0c2328"/>
    <path id="Path_219" data-name="Path 219" d="M-3618.346,1145.011c-53.933,21.308-113.439,31.049-175.384,28.71l12.333,79.074c71.622,2.705,140.425-8.557,202.782-33.195q-19.866-37.292-39.732-74.589Z" transform="translate(4921.342 -538.957)" fill="#357e69"/>
    <path id="Path_220" data-name="Path 220" d="M-3766.508,1216.657q4.046,24.685,8.092,49.368c6.506.193,12.656,5.018,13.773,10.948,59.585.436,116.979-8.957,170.021-27.831a9.928,9.928,0,0,1,5.294-14.071q-12.224-23.346-24.454-46.689c-5.244,2.015-11.827-1.053-14.632-6.7-46.579,16.574-96.978,24.823-149.3,24.44,1.116,5.926-2.805,10.713-8.792,10.536Z" transform="translate(4900.603 -566.894)" fill="#fff"/>
    <path id="Path_221" data-name="Path 221" d="M-3402.828,1317.307c-6-14.628-22.036-23.742-36.153-21.325-14.106,2.456-22.36,15.764-18.117,30.7,4.231,14.906,20.82,25.64,36.693,22.889,15.88-2.732,23.574-17.659,17.577-32.261Z" transform="translate(4665.732 -653.678)" fill="#4dad92"/>
    <path id="Path_222" data-name="Path 222" d="M-3389.148,1314.831q.847,2.593,1.692,5.187c6.078.136,10.551,3.42,12.11,7.938,1.565,4.556.086,7.8-5.389,10.891-3.883,2.3-5.393,3.608-4.865,5.294.444,1.424,2,2.705,5.423,2.2a14.79,14.79,0,0,0,4.406-1.346,3.639,3.639,0,0,1,4.484,1.469,2.612,2.612,0,0,1-.958,3.92,20.566,20.566,0,0,1-4.616,1.431q.724,2.24,1.446,4.477-2.624.4-5.255.769-.757-2.419-1.516-4.837c-6.043-.269-10.4-3.41-11.721-7.9-1.468-4.954,1.583-7.952,6.506-10.569,3.4-1.82,4.631-3.3,4-5.233-.669-2.034-3.007-2.841-5.9-2.427a16.082,16.082,0,0,0-5.219,1.712,3.484,3.484,0,0,1-4.417-1.579c-.033-.06-.067-.117-.1-.176a2.621,2.621,0,0,1,.86-3.777,21.756,21.756,0,0,1,5.691-1.9q-.765-2.418-1.531-4.837,2.438-.343,4.867-.712Z" transform="translate(4620.985 -668.333)" fill="#357e69"/>
    <path id="Path_223" data-name="Path 223" d="M-3159.349,1324.031q-19.241,6.82-39.257,11.865,1.545,3.726,3.09,7.449,20.281-5.112,39.808-12.032-1.822-3.64-3.641-7.283Z" transform="translate(4467.953 -675.342)" fill="#4dad92"/>
    <path id="Path_224" data-name="Path 224" d="M-3430.947,1510.011v19.31c0,3.122,34.824,5.652,77.782,5.652s77.781-2.529,77.781-5.652v-19.31Z" transform="translate(4644.959 -817.029)" fill="#e38c25"/>
    <path id="Path_225" data-name="Path 225" d="M-3374.658,1534.756v-24.745h-56.289v19.31c0,2.579,23.785,4.756,56.289,5.435Z" transform="translate(4644.959 -817.029)" fill="#e89e3e"/>
    <path id="Path_226" data-name="Path 226" d="M-3183.6,1534.806c6.042.11,12.365.167,18.874.167,9.7,0,18.981-.129,27.543-.365v-24.6H-3183.6v24.795Z" transform="translate(4456.521 -817.029)" fill="#e89e3e"/>
    <path id="Path_227" data-name="Path 227" d="M-2975.61,1534.518c27.712-.865,47.12-2.865,47.12-5.2v-19.31h-47.12v24.507Z" transform="translate(4298.065 -817.029)" fill="#e89e3e"/>
    <path id="Path_228" data-name="Path 228" d="M-3275.384,1491.073c0,3.122-34.824,5.654-77.781,5.654s-77.782-2.532-77.782-5.654,34.824-5.652,77.782-5.652,77.781,2.532,77.781,5.652Z" transform="translate(4644.959 -798.295)" fill="#e38c25"/>
    <path id="Path_229" data-name="Path 229" d="M-3245.193,1496.619c0,2.165-28.677,3.92-64.051,3.92s-64.052-1.755-64.052-3.92,28.677-3.918,64.052-3.918,64.051,1.755,64.051,3.918Z" transform="translate(4601.039 -803.841)" fill="#fabf68"/>
    <path id="Path_230" data-name="Path 230" d="M-3486.824,1424.221v19.31c0,3.12,34.824,5.651,77.781,5.651s77.781-2.532,77.781-5.651v-19.31Z" transform="translate(4687.528 -751.67)" fill="#e38c25"/>
    <path id="Path_231" data-name="Path 231" d="M-3430.535,1448.963v-24.742h-56.289v19.31c0,2.579,23.785,4.756,56.289,5.432Z" transform="translate(4687.528 -751.67)" fill="#e89e3e"/>
    <path id="Path_232" data-name="Path 232" d="M-3239.474,1449.016c6.042.107,12.364.167,18.873.167,9.7,0,18.981-.129,27.543-.364v-24.6h-46.416v24.795Z" transform="translate(4499.088 -751.67)" fill="#e89e3e"/>
    <path id="Path_233" data-name="Path 233" d="M-3031.49,1448.725c27.712-.865,47.12-2.865,47.12-5.194v-19.31h-47.12v24.5Z" transform="translate(4340.637 -751.67)" fill="#e89e3e"/>
    <path id="Path_234" data-name="Path 234" d="M-3331.262,1405.283c0,3.122-34.823,5.651-77.781,5.651s-77.781-2.529-77.781-5.651,34.824-5.651,77.781-5.651,77.781,2.529,77.781,5.651Z" transform="translate(4687.528 -732.937)" fill="#e38c25"/>
    <path id="Path_235" data-name="Path 235" d="M-3301.071,1410.821c0,2.165-28.677,3.918-64.051,3.918s-64.051-1.753-64.051-3.918,28.677-3.92,64.051-3.92,64.051,1.755,64.051,3.92Z" transform="translate(4643.608 -738.475)" fill="#fabf68"/>
    <path id="Path_236" data-name="Path 236" d="M-3449.6,1336.151v19.308c0,3.122,34.824,5.652,77.782,5.652s77.781-2.529,77.781-5.652v-19.308Z" transform="translate(4659.167 -684.575)" fill="#e38c25"/>
    <path id="Path_237" data-name="Path 237" d="M-3393.306,1360.893v-24.742H-3449.6v19.308c0,2.579,23.785,4.756,56.289,5.435Z" transform="translate(4659.167 -684.575)" fill="#e89e3e"/>
    <path id="Path_238" data-name="Path 238" d="M-3202.245,1360.943c6.043.11,12.364.167,18.873.167,9.7,0,18.981-.129,27.543-.365v-24.595h-46.417v24.792Z" transform="translate(4470.725 -684.575)" fill="#e89e3e"/>
    <path id="Path_239" data-name="Path 239" d="M-2994.26,1360.655c27.712-.865,47.12-2.865,47.12-5.2v-19.308h-47.12v24.5Z" transform="translate(4312.273 -684.575)" fill="#e89e3e"/>
    <path id="Path_240" data-name="Path 240" d="M-3294.032,1317.2c0,3.122-34.824,5.654-77.781,5.654s-77.782-2.532-77.782-5.654,34.824-5.651,77.782-5.651,77.781,2.532,77.781,5.651Z" transform="translate(4659.167 -665.834)" fill="#e38c25"/>
    <path id="Path_241" data-name="Path 241" d="M-3263.842,1322.749c0,2.165-28.677,3.92-64.051,3.92s-64.052-1.755-64.052-3.92,28.676-3.918,64.052-3.918,64.051,1.755,64.051,3.918Z" transform="translate(4615.245 -671.38)" fill="#fabf68"/>
    <path id="Path_242" data-name="Path 242" d="M-3486.824,1249.281v19.308c0,3.122,34.824,5.654,77.781,5.654s77.781-2.532,77.781-5.654v-19.308Z" transform="translate(4687.528 -618.394)" fill="#e38c25"/>
    <path id="Path_243" data-name="Path 243" d="M-3430.535,1274.023v-24.742h-56.289v19.308c0,2.582,23.785,4.756,56.289,5.435Z" transform="translate(4687.528 -618.394)" fill="#e89e3e"/>
    <path id="Path_244" data-name="Path 244" d="M-3239.474,1274.073c6.042.109,12.364.169,18.873.169,9.7,0,18.981-.131,27.543-.367v-24.595h-46.416v24.792Z" transform="translate(4499.088 -618.394)" fill="#e89e3e"/>
    <path id="Path_245" data-name="Path 245" d="M-3031.49,1273.785c27.712-.865,47.12-2.865,47.12-5.2v-19.308h-47.12v24.5Z" transform="translate(4340.637 -618.394)" fill="#e89e3e"/>
    <path id="Path_246" data-name="Path 246" d="M-3331.262,1230.335c0,3.12-34.823,5.652-77.781,5.652s-77.781-2.532-77.781-5.652,34.824-5.654,77.781-5.654,77.781,2.532,77.781,5.654Z" transform="translate(4687.528 -599.653)" fill="#e38c25"/>
    <path id="Path_247" data-name="Path 247" d="M-3301.071,1235.881c0,2.162-28.677,3.918-64.051,3.918s-64.051-1.755-64.051-3.918,28.677-3.92,64.051-3.92,64.051,1.755,64.051,3.92Z" transform="translate(4643.608 -605.199)" fill="#fabf68"/>
    <path id="Path_284" data-name="Path 284" d="M-2893.93,1511.914l1.851,9.831c.1,1.276.064,4.508.341,5.625,1.038,4.2,18.684-6,14.054-6.821a19.192,19.192,0,0,1-4.151-4.447,38.977,38.977,0,0,1-2.322-6.483l-9.772,2.293Z" transform="translate(4235.838 -816.731)" fill="#f1907e"/>
    <path id="Path_285" data-name="Path 285" d="M-2882.676,1548.415a68.741,68.741,0,0,1-6.874,1.36c-2.317.231-5.292-3.37-6.954-2.689-1.831.75-2.827,12.175-2.827,12.175s29.105,1.327,35.984-.574c2.727-.753-10.272-6.8-19.329-10.272Z" transform="translate(4239.953 -845.208)" fill="#e85b46"/>
    <path id="Path_286" data-name="Path 286" d="M-2723.53,1510.035l1.85,9.831c.1,1.279.064,4.508.341,5.625,1.038,4.2,18.36-5.33,13.73-6.149-.419-.074-3.13-3.818-3.825-5.118a38.977,38.977,0,0,1-2.322-6.483l-9.774,2.294Z" transform="translate(4106.021 -815.299)" fill="#f1907e"/>
    <path id="Path_287" data-name="Path 287" d="M-2714.146,1548.415a68.881,68.881,0,0,1-6.874,1.36c-2.317.231-5.292-3.37-6.954-2.689-1.832.75-2.827,12.175-2.827,12.175s29.105,1.327,35.984-.574c2.727-.753-10.272-6.8-19.329-10.272Z" transform="translate(4111.56 -845.208)" fill="#e85b46"/>
    <path id="Path_288" data-name="Path 288" d="M-3150.265,1057.738l52.95-12.282s23.744-6.278,29.477,1.091,30.072,109.075,30.072,109.075-12.556,1.091-13.375.545L-3080.53,1104a45.457,45.457,0,0,1-5.42-16.045l-2.086-14.937-21.561,6.278s-24.837,5.458-34.936-.817-5.732-20.744-5.732-20.744Z" transform="translate(4431.84 -461.213)" fill="#0c2328"/>
    <path id="Path_289" data-name="Path 289" d="M-3087.493,721.7c.836.035,3.127.8,6.481,7.111,4.28,8.06,10.533,32.412,10.533,32.412l-18.671,6.928-2.4-5.082-3.951-39.128s7.776-2.25,8.007-2.241Z" transform="translate(4389.403 -216.462)" fill="#e89e3e"/>
    <path id="Path_290" data-name="Path 290" d="M-3271.439,706.962c5.339.007,18.548,1.56,24.68,3.512,0,0,4.5,38.583-4.056,67.9-1.915,6.564,1.586,27.2,1.586,27.2l-55.325-.726s6.554-49.9,4.085-57.966S-3303,710.733-3303,710.733s.379-.059,12.43-2.135a125.654,125.654,0,0,1,19.128-1.637Z" transform="translate(4548.668 -205.233)" fill="#fabf68"/>
    <path id="Path_291" data-name="Path 291" d="M-3328.141,740.618c5.173-1.934,7.7,44.516,8.4,63.635,9.16.876,25.126,0,29.1-.293,1.87-.138,6.18-1.712,8.041-1.955a18.76,18.76,0,0,1,4.568-.217c.345.06,9.893,3.951,10.71,4.806,1.012,1.057,3.751,3.727,3.289,4.882s-5.266-3.218-5.266-3.218l-2.348-1.312c2.922,2.846,8.5,6.595,7.7,7.959-.783,1.331-5.813-2.472-9.4-5.066,3.075,2.767,6.9,7.721,6.014,8.493-.791.693-5.135-5.039-9.779-6.692-1.72-.612-3.435,1.084-4.79,1.288a9.807,9.807,0,0,1-3.506.2l-4.663-.45a24.353,24.353,0,0,0-3.849.56c-2.008.426-5.3.874-7.859,1.5-14.724,3.587-19.634,5.251-24.142,5.249-13.654-.01-14.446-74.792-2.221-79.361Z" transform="translate(4573.21 -230.829)" fill="#f1907e"/>
    <path id="Path_292" data-name="Path 292" d="M-3342.96,770.342c-.969-19.584-.827-43.722,10.188-47.84,4.346-1.625,12.009,8.146,10.631,48.238-5.881.483-14.514.874-20.819-.4Z" transform="translate(4578.213 -216.945)" fill="#e89e3e"/>
    <path id="Path_293" data-name="Path 293" d="M-3142.4,873.637l-52.124,3.4a3.4,3.4,0,0,0-3.006,2.315l-13.494,40.192-28.735,1.877a1.461,1.461,0,0,0-1.36,1.55,1.457,1.457,0,0,0,1.55,1.358l81.786-5.342a5.718,5.718,0,0,0,4.987-3.711l13.808-37.055a3.4,3.4,0,0,0-3.413-4.587Z" transform="translate(4500.342 -332.207)" fill="#e85b46"/>
    <path id="Path_294" data-name="Path 294" d="M-2953.87,967.01a3.074,3.074,0,0,1-3.032,3.084,3.072,3.072,0,0,1-2.658-3.413,3.074,3.074,0,0,1,3.032-3.084,3.073,3.073,0,0,1,2.658,3.413Z" transform="translate(4285.843 -400.746)" fill="#fff"/>
    <path id="Path_295" data-name="Path 295" d="M-3305.948,1077.7l57.7-9.962s24.948-3.8,30.68,3.568,22.38,102.9,22.38,102.9-12.556,1.093-13.373.545c-.636-.421-15.835-32.268-22.663-46.617a54.608,54.608,0,0,1-4.53-14.359l-2.194-13-7.261,2.5a88.574,88.574,0,0,1-39.747,4.254c-5.607-.7-10.839-1.893-14.085-3.911-10.1-6.278-6.908-25.912-6.908-25.912Z" transform="translate(4550.095 -479.339)" fill="#113744"/>
    <path id="Path_296" data-name="Path 296" d="M-3199.115,635.426l1.124,8.332s2.515,12-.722,14.318-13.765-14.66-13.765-14.66l1.112-21.113,12.25,13.123Z" transform="translate(4478.521 -140.737)" fill="#f1907e"/>
    <path id="Path_297" data-name="Path 297" d="M-3209.316,629.146c2.674,7.2,9.042,11.628,13.562,13.345l-.952-7.064-12.25-13.123-.359,6.843Z" transform="translate(4476.112 -140.737)" fill="#e85b46"/>
    <path id="Path_298" data-name="Path 298" d="M-3204.38,525.38a11.136,11.136,0,0,1,12.839,11.236,84.23,84.23,0,0,1-.941,10.687c-1.491,9.618-8.076,18.088-12.429,17.332s-15.309-9.053-13.38-22.741c1.191-8.45,6.713-15.356,13.911-16.514Z" transform="translate(4483.121 -66.789)" fill="#f1907e"/>
    <path id="Path_299" data-name="Path 299" d="M-3225.145,587.916c-.367,2.115-2.067,3.586-3.8,3.286s-2.834-2.259-2.467-4.374,2.067-3.586,3.8-3.286,2.834,2.259,2.467,4.374Z" transform="translate(4492.997 -111.178)" fill="#f1907e"/>
    <path id="Path_300" data-name="Path 300" d="M-3220.557,528.943s5.264,1.3,7.219-2.071,8.938-10.656,17.819-7.637-7.816-7.341-8.526-7.341-9.236-.059-9.236-.059-6.57,5.387-6.807,5.979-2.131,7.045-2.131,7.045l1.662,4.083Z" transform="translate(4485.942 -56.579)" fill="#0c2328"/>
    <path id="Path_301" data-name="Path 301" d="M-2132.14,1447.762H-2001.1v-47.692H-2132.14v47.692Z" transform="translate(3655.476 -733.272)" fill="#4dad92"/>
    <path id="Path_302" data-name="Path 302" d="M-2132.14,1435.388H-2001.1v-6.137H-2132.14v6.137Z" transform="translate(3655.476 -755.502)" fill="#8cc8b8"/>
    <path id="Path_303" data-name="Path 303" d="M-2132.14,1485.708H-2001.1v-6.137H-2132.14v6.137Z" transform="translate(3655.476 -793.838)" fill="#8cc8b8"/>
    <path id="Path_304" data-name="Path 304" d="M-2132.14,1536.036H-2001.1V1529.9H-2132.14v6.135Z" transform="translate(3655.476 -832.181)" fill="#8cc8b8"/>
    <path id="Path_305" data-name="Path 305" d="M-2132.14,1580.7H-2001.1v-6.135H-2132.14v6.135Z" transform="translate(3655.476 -866.205)" fill="#8cc8b8"/>
    <path id="Path_306" data-name="Path 306" d="M-1927.32,1447.762h27.253v-47.692h-27.253v47.692Z" transform="translate(3499.436 -733.272)" fill="#fabf68"/>
    <path id="Path_308" data-name="Path 308" d="M-3286.768,1597.481h-724.1v4.13h724.1v-4.13Z" transform="translate(5086.768 -883.667)" fill="#0c2328"/>
    <path id="Path_309" data-name="Path 309" d="M-3056.8-6.074h-105.393c-.05-.517-.076-1.041-.076-1.571a16.193,16.193,0,0,1,16.192-16.194A16.121,16.121,0,0,1-3138.2-21.8a23.6,23.6,0,0,1,22.187-15.542A23.586,23.586,0,0,1-3095.8-25.921a19.124,19.124,0,0,1,5.7-.863,19.142,19.142,0,0,1,17.345,11.042,13.011,13.011,0,0,1,3.284-.419A13.012,13.012,0,0,1-3056.8-6.074" transform="translate(4440.271 361.804)" fill="#fbfdfe"/>
    <path id="Path_310" data-name="Path 310" d="M-2775.323,288.119h-79.757c-.038-.391-.06-.788-.06-1.189a12.255,12.255,0,0,1,12.256-12.255,12.19,12.19,0,0,1,5.957,1.546,17.867,17.867,0,0,1,16.79-11.761,17.85,17.85,0,0,1,15.3,8.64,14.473,14.473,0,0,1,4.311-.653A14.486,14.486,0,0,1-2787.4,280.8a9.84,9.84,0,0,1,2.484-.317,9.847,9.847,0,0,1,9.593,7.633" transform="translate(4206.287 131.882)" fill="#fbfdfe"/>
    <path id="Path_311" data-name="Path 311" d="M-3383,259.873h-69.549a8.587,8.587,0,0,1,8.365-6.656,8.6,8.6,0,0,1,2.167.277,12.629,12.629,0,0,1,11.445-7.287,12.625,12.625,0,0,1,3.76.569,15.564,15.564,0,0,1,13.34-7.534,15.579,15.579,0,0,1,14.641,10.256,10.634,10.634,0,0,1,5.2-1.348,10.686,10.686,0,0,1,10.685,10.686q0,.525-.05,1.037" transform="translate(4661.416 151.094)" fill="#fbfdfe"/>
    <path id="Path_312" data-name="Path 312" d="M-2834.32,511.189l.929,11.3,6.564-7.392,21.227-17.386-18.1,5.7s-8.912,4.33-9.322,4.9a23.283,23.283,0,0,0-1.3,2.874Z" transform="translate(4190.425 -45.818)" fill="#966700"/>
    <path id="Path_313" data-name="Path 313" d="M-2874.71,506.334l38.339-8.623-28.72,13.478-9.619-4.856Z" transform="translate(4221.196 -45.818)" fill="#ffb000"/>
    <path id="Path_314" data-name="Path 314" d="M-2810.212,519.557l-11.817-5.9,25.792-15.95-13.975,21.846Z" transform="translate(4181.062 -45.818)" fill="#ffb000"/>
    <path id="Path_315" data-name="Path 315" d="M-2854.049,575.427a14.03,14.03,0,0,1,3.089-.811l-.086-.822a14.664,14.664,0,0,0-3.294.86l.291.773Z" transform="translate(4205.677 -103.781)" fill="#ffb000"/>
    <path id="Path_316" data-name="Path 316" d="M-2922.936,596.716a15.013,15.013,0,0,1,3.584-5.269l.569.6a14.158,14.158,0,0,0-3.389,4.981l-.765-.313Zm-1.038,12.478a30.234,30.234,0,0,1-.312-6.271l.824.051a29.519,29.519,0,0,0,.3,6.1l.007.048-.819.113,0-.038Zm.924,6.22.817-.117c.348,2.417.593,4.392.779,6.216l-.822.083c-.184-1.812-.429-3.776-.774-6.182Zm1.177,12.383.824-.019a53.046,53.046,0,0,1-.2,6.289l-.822-.079a52.911,52.911,0,0,0,.2-6.192Zm-3.337,18.066c.405-.85.777-1.736,1.107-2.634a33.049,33.049,0,0,0,.984-3.156l.8.2a33.764,33.764,0,0,1-1.007,3.237c-.338.922-.722,1.831-1.136,2.7l-.746-.355Zm-7.35,9.8a33.715,33.715,0,0,0,4.156-4.544l.66.5a34.205,34.205,0,0,1-4.26,4.658l-.555-.61Z" transform="translate(4265.269 -117.23)" fill="#ffb000"/>
    <path id="Path_198" data-name="Path 198" d="M-1630.27,418.117v-30.7h47.727v25.57c-1.893-.167-3.767-.242-5.628-.242-7.931,0-15.58,1.359-23.023,2.719a143.823,143.823,0,0,1-19.077,2.656" transform="translate(3273.131 38.211)" fill="#b5d1ef"/>
    <path id="Path_199" data-name="Path 199" d="M-1630.27,757.811h0V499.136a143.828,143.828,0,0,0,19.077-2.656c7.443-1.359,15.092-2.719,23.023-2.719,1.86,0,3.734.075,5.628.242v41.124h-47.727V757.811" transform="translate(3273.131 -42.809)" fill="#acd1f1"/>
    <path id="Path_202" data-name="Path 202" d="M-1777.549,431.022a45.161,45.161,0,0,1-13.632-9.852c-3.141-3.213-5-7.492-6.309-12.332h19.941v22.183" transform="translate(3400.526 21.888)" fill="#99bde6"/>
    <path id="Path_205" data-name="Path 205" d="M-1582.543,890.134h-47.727V667.45h47.727V890.134" transform="translate(3273.131 -175.132)" fill="#318d9b"/>
    <path id="Path_248" data-name="Path 248" d="M-1678.73,1503.091v18.567c0,3-33.49,5.437-74.8,5.437s-74.8-2.434-74.8-5.437v-18.567Z" transform="translate(3424.021 -811.756)" fill="#e38c25"/>
    <path id="Path_249" data-name="Path 249" d="M-1427.47,1526.883v-23.792h54.131v18.567c0,2.481-22.873,4.575-54.131,5.225Z" transform="translate(3118.63 -811.756)" fill="#e89e3e"/>
    <path id="Path_250" data-name="Path 250" d="M-1580.834,1526.933c-5.811.1-11.889.162-18.148.162-9.326,0-18.255-.124-26.488-.352v-23.652h44.636v23.842Z" transform="translate(3269.475 -811.756)" fill="#e89e3e"/>
    <path id="Path_251" data-name="Path 251" d="M-1783.015,1526.657c-26.65-.833-45.315-2.758-45.315-5v-18.567h45.315v23.566Z" transform="translate(3424.021 -811.756)" fill="#e89e3e"/>
    <path id="Path_252" data-name="Path 252" d="M-1828.33,1484.876c0,3,33.49,5.435,74.8,5.435s74.8-2.434,74.8-5.435-33.49-5.435-74.8-5.435-74.8,2.432-74.8,5.435Z" transform="translate(3424.021 -793.739)" fill="#e38c25"/>
    <path id="Path_253" data-name="Path 253" d="M-1772.88,1490.209c0,2.082,27.577,3.768,61.6,3.768s61.6-1.686,61.6-3.768-27.579-3.768-61.6-3.768-61.6,1.686-61.6,3.768Z" transform="translate(3381.778 -799.072)" fill="#fabf68"/>
    <path id="Path_254" data-name="Path 254" d="M-1624.992,1420.581v18.569c0,3-33.488,5.435-74.8,5.435s-74.8-2.434-74.8-5.435v-18.569Z" transform="translate(3383.08 -748.897)" fill="#e38c25"/>
    <path id="Path_255" data-name="Path 255" d="M-1373.74,1444.376v-23.795h54.131v18.569c0,2.482-22.873,4.573-54.131,5.225Z" transform="translate(3077.697 -748.897)" fill="#e89e3e"/>
    <path id="Path_256" data-name="Path 256" d="M-1527.1,1444.426c-5.811.1-11.891.16-18.15.16-9.326,0-18.255-.124-26.488-.35v-23.654h44.638v23.845Z" transform="translate(3228.541 -748.897)" fill="#e89e3e"/>
    <path id="Path_257" data-name="Path 257" d="M-1729.275,1444.147c-26.65-.831-45.315-2.756-45.315-5v-18.569h45.315v23.566Z" transform="translate(3383.08 -748.897)" fill="#e89e3e"/>
    <path id="Path_258" data-name="Path 258" d="M-1774.59,1402.366c0,3,33.488,5.437,74.8,5.437s74.8-2.434,74.8-5.437-33.488-5.435-74.8-5.435-74.8,2.434-74.8,5.435Z" transform="translate(3383.08 -730.88)" fill="#e38c25"/>
    <path id="Path_259" data-name="Path 259" d="M-1719.15,1407.7c0,2.082,27.577,3.77,61.6,3.77s61.6-1.689,61.6-3.77-27.577-3.768-61.6-3.768-61.6,1.686-61.6,3.768Z" transform="translate(3340.844 -736.212)" fill="#fabf68"/>
    <path id="Path_260" data-name="Path 260" d="M-1660.792,1335.881v18.57c0,3-33.488,5.435-74.8,5.435s-74.8-2.432-74.8-5.435v-18.57Z" transform="translate(3410.354 -684.369)" fill="#e38c25"/>
    <path id="Path_261" data-name="Path 261" d="M-1409.54,1359.676v-23.795h54.131v18.57c0,2.481-22.873,4.575-54.131,5.225Z" transform="translate(3104.971 -684.369)" fill="#e89e3e"/>
    <path id="Path_262" data-name="Path 262" d="M-1562.9,1359.726c-5.809.1-11.889.16-18.148.16-9.327,0-18.255-.124-26.488-.35v-23.654h44.636v23.845Z" transform="translate(3255.815 -684.369)" fill="#e89e3e"/>
    <path id="Path_263" data-name="Path 263" d="M-1765.075,1359.447c-26.65-.831-45.315-2.755-45.315-5v-18.57h45.315v23.566Z" transform="translate(3410.354 -684.369)" fill="#e89e3e"/>
    <path id="Path_264" data-name="Path 264" d="M-1810.39,1317.668c0,3,33.488,5.435,74.8,5.435s74.8-2.434,74.8-5.435-33.488-5.437-74.8-5.437-74.8,2.434-74.8,5.437Z" transform="translate(3410.354 -666.352)" fill="#e38c25"/>
    <path id="Path_265" data-name="Path 265" d="M-1754.95,1323c0,2.079,27.577,3.768,61.6,3.768s61.6-1.689,61.6-3.768-27.577-3.77-61.6-3.77-61.6,1.688-61.6,3.77Z" transform="translate(3368.118 -671.685)" fill="#fabf68"/>
    <path id="Path_266" data-name="Path 266" d="M-1624.992,1252.351v18.567c0,3-33.488,5.437-74.8,5.437s-74.8-2.434-74.8-5.437v-18.567Z" transform="translate(3383.08 -620.733)" fill="#e38c25"/>
    <path id="Path_267" data-name="Path 267" d="M-1373.74,1276.143v-23.792h54.131v18.567c0,2.481-22.873,4.575-54.131,5.225Z" transform="translate(3077.697 -620.733)" fill="#e89e3e"/>
    <path id="Path_268" data-name="Path 268" d="M-1527.1,1276.193c-5.811.1-11.891.162-18.15.162-9.326,0-18.255-.124-26.488-.352v-23.652h44.638v23.842Z" transform="translate(3228.541 -620.733)" fill="#e89e3e"/>
    <path id="Path_269" data-name="Path 269" d="M-1729.275,1275.917c-26.65-.833-45.315-2.758-45.315-5v-18.567h45.315v23.566Z" transform="translate(3383.08 -620.733)" fill="#e89e3e"/>
    <path id="Path_270" data-name="Path 270" d="M-1774.59,1234.136c0,3,33.488,5.435,74.8,5.435s74.8-2.434,74.8-5.435-33.488-5.435-74.8-5.435-74.8,2.432-74.8,5.435Z" transform="translate(3383.08 -602.715)" fill="#e38c25"/>
    <path id="Path_271" data-name="Path 271" d="M-1719.15,1239.461c0,2.081,27.577,3.767,61.6,3.767s61.6-1.686,61.6-3.767-27.577-3.77-61.6-3.77-61.6,1.689-61.6,3.77Z" transform="translate(3340.844 -608.041)" fill="#fabf68"/>
    <path id="Path_272" data-name="Path 272" d="M-1419,1041.809l-4.492,15.688c-.726,2.536-29.606-3.513-64.506-13.508s-62.6-20.156-61.874-22.692l4.494-15.685,126.377,36.2Z" transform="translate(3211.894 -432.756)" fill="#e38c25"/>
    <path id="Path_273" data-name="Path 273" d="M-1216.5,1122.7l5.756-20.1,45.729,13.1-4.492,15.688c-.6,2.1-20.429-1.672-46.994-8.686Z" transform="translate(2957.905 -506.647)" fill="#e89e3e"/>
    <path id="Path_274" data-name="Path 274" d="M-1345.967,1085.635c-4.935-1.317-10.083-2.741-15.371-4.256-7.878-2.258-15.39-4.523-22.292-6.707l5.723-19.982,37.71,10.8-5.771,20.144Z" transform="translate(3085.231 -470.148)" fill="#e89e3e"/>
    <path id="Path_275" data-name="Path 275" d="M-1512.8,1036.484c-22.313-7.152-37.615-13.294-37.072-15.187l4.494-15.685,38.28,10.965-5.7,19.908Z" transform="translate(3211.894 -432.756)" fill="#e89e3e"/>
    <path id="Path_276" data-name="Path 276" d="M-1530.8,1003.062c-.726,2.534,26.974,12.694,61.874,22.69s63.777,16.045,64.5,13.508-26.974-12.694-61.874-22.692-63.777-16.042-64.5-13.506Z" transform="translate(3197.366 -430.374)" fill="#e38c25"/>
    <path id="Path_277" data-name="Path 277" d="M-1483.956,1017.236c-.5,1.758,22.385,9.857,51.123,18.088s52.443,13.48,52.948,11.722-22.385-9.857-51.123-18.088-52.443-13.48-52.948-11.722Z" transform="translate(3161.67 -441.355)" fill="#fabf68"/>
    <path id="Path_278" data-name="Path 278" d="M-1573.966,704.275l4.785,15.6c.774,2.522-26.736,13.194-61.443,23.837s-63.467,17.229-64.241,14.706l-4.785-15.6,125.684-38.545Z" transform="translate(3325.988 -203.187)" fill="#e38c25"/>
    <path id="Path_279" data-name="Path 279" d="M-1356.74,738.212l-6.13-19.991,45.477-13.946,4.785,15.6c.638,2.084-18.038,9.736-44.131,18.336Z" transform="translate(3069.415 -203.187)" fill="#e89e3e"/>
    <path id="Path_280" data-name="Path 280" d="M-1485.577,785.593c-4.854,1.586-9.948,3.2-15.207,4.811-7.835,2.4-15.366,4.6-22.342,6.53l-6.094-19.872,37.5-11.5,6.142,20.032Z" transform="translate(3196.147 -249.877)" fill="#e89e3e"/>
    <path id="Path_281" data-name="Path 281" d="M-1655.507,836.889c-22.6,6.168-38.782,9.36-39.358,7.478l-4.785-15.6,38.07-11.677,6.073,19.8Z" transform="translate(3325.988 -289.134)" fill="#e89e3e"/>
    <path id="Path_282" data-name="Path 282" d="M-1699.911,740.4c.774,2.522,29.534-4.063,64.241-14.706s62.214-21.316,61.443-23.838-29.537,4.062-64.244,14.7-62.214,21.318-61.44,23.84Z" transform="translate(3326.199 -200.935)" fill="#e38c25"/>
    <path id="Path_283" data-name="Path 283" d="M-1653.31,748.594c.536,1.748,24.14-3.939,52.719-12.706s51.314-17.287,50.778-19.036-24.14,3.939-52.719,12.7-51.316,17.288-50.778,19.039Z" transform="translate(3290.691 -212.528)" fill="#fabf68"/>
    <path id="Path_307" data-name="Path 307" d="M-1588.61,1447.762h19.789v-47.692h-19.789v47.692Z" transform="translate(3241.394 -733.272)" fill="#357e69"/>
    <path id="Icon_awesome-ethereum" data-name="Icon awesome-ethereum" d="M50.378,42.751l-24.9,15.212L.563,42.751,25.479,0Zm-24.9,20.1L.563,47.636,25.479,83.928,50.395,47.636,25.479,62.848Z" transform="translate(1439.278 303.624)" fill="#ffb000"/>
    <path id="Icon_ionic-logo-bitcoin" data-name="Icon ionic-logo-bitcoin" d="M40.192,28.536a6.374,6.374,0,0,0-2.988-3.2,10.436,10.436,0,0,0-2.7-1.063,6.616,6.616,0,0,0,1.733-1.17A5.994,5.994,0,0,0,37.9,20.624a8.2,8.2,0,0,0,.372-3,8.918,8.918,0,0,0-1.4-4.764,8.768,8.768,0,0,0-4-2.871,15.015,15.015,0,0,0-4.838-.946V2.25H23.774V9.055h-3.4V2.25h-4.36V9.055H6.75v5.1H9.717a4.8,4.8,0,0,1,1.871.245,1.406,1.406,0,0,1,.691.638,5.115,5.115,0,0,1,.2,1.861V35.32a5.122,5.122,0,0,1-.2,1.85c-.138.276-.213.521-.542.67s-.34.138-1.255.138H7.675l-.925,5.1H16v6.805h4.36V43.082h3.4v6.805h4.253V43.04a20.792,20.792,0,0,0,6.316-1.1,10.372,10.372,0,0,0,4.753-3.35,10.369,10.369,0,0,0,1.68-5.444A11.981,11.981,0,0,0,40.192,28.536ZM20.361,14.8h3.4v7.869h-3.4Zm0,22.543V27.77h3.4v9.57Zm7.656-22.128a3.725,3.725,0,0,1,1.467,1.35,3.776,3.776,0,0,1,.691,2.276,3.518,3.518,0,0,1-.8,2.18,3.42,3.42,0,0,1-1.361,1.18Zm3.062,19.852a6.451,6.451,0,0,1-2.35,1.467,5.961,5.961,0,0,1-.712.2v-8.8a4.332,4.332,0,0,1,1.2.362,4.78,4.78,0,0,1,2.105,1.4,4.659,4.659,0,0,1,.851,2.626A3.363,3.363,0,0,1,31.079,35.064Z" transform="translate(1575.806 280.633) rotate(1)" fill="#ffb000"/>
  </g>
</svg>
