<svg xmlns="http://www.w3.org/2000/svg" width="100.721" height="75.835" viewBox="0 0 100.721 75.835">
  <g id="Group_21" data-name="Group 21" transform="translate(-950.454 -1149.323)">
    <path id="Icon_awesome-money-check" data-name="Icon awesome-money-check" d="M0,41.1a2.989,2.989,0,0,0,2.988,2.988H56.776A2.989,2.989,0,0,0,59.764,41.1V11.215H0ZM41.835,21.673a1.494,1.494,0,0,1,1.494-1.494h8.965a1.494,1.494,0,0,1,1.494,1.494v2.988a1.494,1.494,0,0,1-1.494,1.494H43.329a1.494,1.494,0,0,1-1.494-1.494Zm0,11.206a.747.747,0,0,1,.747-.747H53.041a.747.747,0,0,1,.747.747v1.494a.747.747,0,0,1-.747.747H42.582a.747.747,0,0,1-.747-.747ZM5.976,23.914a.747.747,0,0,1,.747-.747H35.111a.747.747,0,0,1,.747.747v1.494a.747.747,0,0,1-.747.747H6.723a.747.747,0,0,1-.747-.747Zm0,8.965a.747.747,0,0,1,.747-.747H23.159a.747.747,0,0,1,.747.747v1.494a.747.747,0,0,1-.747.747H6.723a.747.747,0,0,1-.747-.747ZM58.27,2.25H1.494A1.494,1.494,0,0,0,0,3.744V8.226H59.764V3.744A1.494,1.494,0,0,0,58.27,2.25Z" transform="translate(950.454 1147.073)" fill="#ffb000"/>
    <path id="Icon_metro-coins" data-name="Icon metro-coins" d="M50.368,43.272H28.991a18.462,18.462,0,0,0,1.424-4.183H50.368a2.126,2.126,0,0,1,0,4.183Zm0-6.275H30.754a18.223,18.223,0,0,0,0-4.183H50.368a2.126,2.126,0,0,1,0,4.183Zm0-6.275H30.415a18.547,18.547,0,0,0-1.424-4.183H50.368a1.941,1.941,0,0,1,1.746,2.092A1.942,1.942,0,0,1,50.368,30.721Zm0-6.275H27.8a14.982,14.982,0,0,0-4.135-4.183h26.7a1.941,1.941,0,0,1,1.746,2.092A1.942,1.942,0,0,1,50.368,24.446Zm0-6.275H22.437a1.942,1.942,0,0,1-1.746-2.092,1.941,1.941,0,0,1,1.746-2.092H50.368a1.941,1.941,0,0,1,1.746,2.092A1.942,1.942,0,0,1,50.368,18.171Zm0-6.275H22.437A1.942,1.942,0,0,1,20.692,9.8a1.941,1.941,0,0,1,1.746-2.092H50.368A1.941,1.941,0,0,1,52.114,9.8,1.942,1.942,0,0,1,50.368,11.9ZM29.42,34.9c0,8.087-5.473,14.642-12.22,14.642S4.981,42.992,4.981,34.9,10.452,20.263,17.2,20.263,29.42,26.818,29.42,34.9ZM21.526,36.5a4.669,4.669,0,0,0-.688-1.305,4.785,4.785,0,0,0-.971-.954,10.732,10.732,0,0,0-1.112-.713q-.553-.3-1.112-.594a6.9,6.9,0,0,1-.976-.6,2.675,2.675,0,0,1-.688-.732,1.8,1.8,0,0,1-.257-.975,2.254,2.254,0,0,1,.113-.715,1.526,1.526,0,0,1,.349-.579,1.629,1.629,0,0,1,.583-.377,2.221,2.221,0,0,1,.819-.136,3.316,3.316,0,0,1,1.1.174,5.678,5.678,0,0,1,.883.391q.382.213.644.4a.819.819,0,0,0,.382.18.242.242,0,0,0,.19-.077.554.554,0,0,0,.108-.249,2.91,2.91,0,0,0,.054-.431c.01-.176.016-.391.016-.644,0-.226,0-.416-.01-.567a3.525,3.525,0,0,0-.037-.381,1.361,1.361,0,0,0-.065-.243.982.982,0,0,0-.148-.22,1.723,1.723,0,0,0-.447-.324,4.674,4.674,0,0,0-.773-.349,5.9,5.9,0,0,0-.937-.247c-.068-.013-.138-.008-.206-.019V24.042H16.626v2.163a5.4,5.4,0,0,0-.918.228,4.1,4.1,0,0,0-1.5.908,4.348,4.348,0,0,0-1.014,1.527,6.355,6.355,0,0,0-.115,3.951,4.7,4.7,0,0,0,.683,1.314,4.783,4.783,0,0,0,.953.952,9.491,9.491,0,0,0,1.1.713c.379.209.745.406,1.1.594a7.005,7.005,0,0,1,.953.6,2.855,2.855,0,0,1,.683.732,1.807,1.807,0,0,1,.262.987,2.576,2.576,0,0,1-.152.906,1.827,1.827,0,0,1-.442.68,1.971,1.971,0,0,1-.7.425,2.739,2.739,0,0,1-.939.151,4.156,4.156,0,0,1-1.4-.215,5.829,5.829,0,0,1-1.042-.479,6.678,6.678,0,0,1-.714-.477.835.835,0,0,0-.431-.215.282.282,0,0,0-.19.071.487.487,0,0,0-.131.243,2.385,2.385,0,0,0-.072.446c-.016.184-.023.41-.023.68a5.532,5.532,0,0,0,.059.922,1.045,1.045,0,0,0,.2.489,2.381,2.381,0,0,0,.463.389,4.417,4.417,0,0,0,.8.42,7.105,7.105,0,0,0,1.107.343,6.177,6.177,0,0,0,1.358.14c.021,0,.04,0,.063,0V45.64H18.34V43.355c.082-.025.169-.038.25-.065a4.677,4.677,0,0,0,1.658-1.012A4.786,4.786,0,0,0,21.373,40.6a6.117,6.117,0,0,0,.412-2.339,5.38,5.38,0,0,0-.258-1.765ZM27.8,45.364H50.368a2.126,2.126,0,0,1,0,4.183h-26.7A14.982,14.982,0,0,0,27.8,45.364Z" transform="translate(999.062 1175.611)" fill="#ffb000"/>
    <g id="Icon_feather-arrow-down-right" data-name="Icon feather-arrow-down-right" transform="translate(1009.609 1153.981)">
      <path id="Path_17" data-name="Path 17" d="M10.5,10.5,22.017,22.017" fill="none" stroke="#ffb000" stroke-linecap="round" stroke-linejoin="round" stroke-width="2"/>
      <path id="Path_18" data-name="Path 18" d="M22.017,10.5V22.017H10.5" fill="none" stroke="#ffb000" stroke-linecap="round" stroke-linejoin="round" stroke-width="2"/>
    </g>
  </g>
</svg>
