<svg xmlns="http://www.w3.org/2000/svg" xmlns:xlink="http://www.w3.org/1999/xlink" width="564" height="575" viewBox="0 0 564 575">
  <defs>
    <clipPath id="clip-path">
      <rect id="Rectangle_70" data-name="Rectangle 70" width="46.092" height="99.839" transform="translate(-1125.817 2439.879)" fill="none"/>
    </clipPath>
    <clipPath id="clip-path-2">
      <rect id="Rectangle_76" data-name="Rectangle 76" width="57.956" height="54.129" transform="translate(-955.988 2485.643)" fill="none"/>
    </clipPath>
    <clipPath id="clip-path-3">
      <rect id="Rectangle_77" data-name="Rectangle 77" width="216.315" height="289.707" transform="translate(-1034.945 2169.11)" fill="none"/>
    </clipPath>
    <clipPath id="clip-path-4">
      <rect id="Rectangle_78" data-name="Rectangle 78" width="216.313" height="289.312" transform="translate(-1058.866 2169.505)" fill="none"/>
    </clipPath>
    <clipPath id="clip-path-5">
      <rect id="Rectangle_81" data-name="Rectangle 81" width="57.956" height="54.129" transform="translate(-979.911 2485.643)" fill="none"/>
    </clipPath>
    <clipPath id="clip-path-6">
      <rect id="Rectangle_83" data-name="Rectangle 83" width="28.287" height="15.341" transform="translate(-864.77 2259.198)" fill="none"/>
    </clipPath>
    <clipPath id="clip-path-7">
      <rect id="Rectangle_84" data-name="Rectangle 84" width="25.815" height="11.12" transform="translate(-799.398 2256.374)" fill="none"/>
    </clipPath>
    <clipPath id="clip-path-8">
      <rect id="Rectangle_85" data-name="Rectangle 85" width="7.395" height="26.935" transform="translate(-829.113 2242.842)" fill="none"/>
    </clipPath>
    <clipPath id="clip-path-9">
      <rect id="Rectangle_86" data-name="Rectangle 86" width="42.353" height="6.734" transform="translate(-841.643 2282.03)" fill="none"/>
    </clipPath>
    <clipPath id="clip-path-10">
      <rect id="Rectangle_87" data-name="Rectangle 87" width="4.902" height="4.987" transform="translate(-815.38 2262.269)" fill="none"/>
    </clipPath>
    <clipPath id="clip-path-11">
      <rect id="Rectangle_88" data-name="Rectangle 88" width="3.598" height="15.564" transform="translate(-797.845 2245.803)" fill="none"/>
    </clipPath>
  </defs>
  <g id="Group_383" data-name="Group 383" transform="translate(-1107 -4657)">
    <g id="Ellipse_58" data-name="Ellipse 58" transform="translate(1539 4657)" fill="#a3a09a" stroke="#707070" stroke-width="1" opacity="0.13">
      <circle cx="66" cy="66" r="66" stroke="none"/>
      <circle cx="66" cy="66" r="65.5" fill="none"/>
    </g>
    <path id="Path_317" data-name="Path 317" d="M-901.562,2538.058c-17.233-8.16-24.111-27.555-26.541-45.624-.4-3.016-1.27-6.121-.289-8.994s4.007-5.234,6.905-4.424c2.4.671,3.814,3.1,5.422,5.029a17.782,17.782,0,0,0,8.17,5.528c2.077.668,4.542.875,6.251-.485,2.346-1.864,2.046-5.489,1.522-8.469q-1.462-8.331-2.924-16.66a28.189,28.189,0,0,1-.6-9.01c.448-2.988,2.054-5.964,4.756-7.24s6.489-.232,7.582,2.586a27.918,27.918,0,0,1,.713,3.7c.293,1.224,1.1,2.5,2.336,2.642s2.3-.9,3.043-1.923c2.569-3.532,4-7.764,5.3-11.953s2.527-8.459,4.765-12.217,5.661-7.013,9.892-7.978,9.227.9,11.016,4.913.063,8.7-2.031,12.558A67.506,67.506,0,0,1-867.9,2455.6a5.545,5.545,0,0,0-1.9,2.886c-.312,2.1,1.906,3.754,3.98,4.075,2.349.365,4.722-.274,7.094-.394s5.064.48,6.316,2.53c1.738,2.842-.271,6.469-2.427,8.985a57.867,57.867,0,0,1-15.23,12.6c-2.059,1.174-4.248,2.268-5.757,4.109s-2.123,4.7-.7,6.622,4.282,2.131,6.509,1.316,4.071-2.412,6.122-3.608c3.837-2.24,9.178-2.853,12.4.245a9.575,9.575,0,0,1,2.416,8.177,22.048,22.048,0,0,1-3.274,8.136,58.162,58.162,0,0,1-21.577,21.352c-8.951,4.906-17.61,7.288-27.644,5.431" transform="translate(2287 2656)" fill="#f2f2f2"/>
    <path id="Path_318" data-name="Path 318" d="M-898.829,2526.011a270.489,270.489,0,0,1,5.74-30.568q.97-4.02,1.916-7.936c.635-2.6,1.265-5.185,2.036-7.672a135.624,135.624,0,0,1,5.255-14.036c1.887-4.384,3.837-8.475,5.689-12.287s3.662-7.327,5.44-10.464a107.307,107.307,0,0,1,9.486-14.162c1.246-1.578,2.252-2.771,2.946-3.57l.794-.905a2.382,2.382,0,0,1,.285-.295,2.03,2.03,0,0,1-.241.333c-.188.234-.437.544-.751.94-.666.822-1.646,2.036-2.865,3.633a113.754,113.754,0,0,0-9.312,14.223c-1.752,3.141-3.528,6.661-5.367,10.474s-3.765,7.91-5.635,12.288a137.08,137.08,0,0,0-5.2,13.992c-.764,2.475-1.386,5.034-2.02,7.644s-1.267,5.255-1.914,7.932a277.891,277.891,0,0,0-5.773,30.5" transform="translate(2287 2656)" fill="#d8d8d8"/>
    <path id="Path_319" data-name="Path 319" d="M-888.983,2479.787a6.209,6.209,0,0,1-.506-1.223c-.3-.8-.686-1.965-1.147-3.416-.924-2.9-2.064-6.944-3.3-11.41s-2.435-8.486-3.4-11.362c-.48-1.44-.878-2.6-1.166-3.4a6.111,6.111,0,0,1-.385-1.266,5.96,5.96,0,0,1,.587,1.186c.348.777.8,1.921,1.333,3.349,1.065,2.853,2.324,6.87,3.564,11.343,1.212,4.41,2.308,8.4,3.146,11.447.386,1.375.714,2.533.976,3.463a5.973,5.973,0,0,1,.3,1.29" transform="translate(2287 2656)" fill="#d8d8d8"/>
    <path id="Path_320" data-name="Path 320" d="M-851.847,2466.133a8.469,8.469,0,0,1-1.5.442c-.969.254-2.373.614-4.094,1.115-3.448.972-8.164,2.484-13.294,4.38s-9.7,3.825-12.96,5.31c-1.637.732-2.946,1.358-3.854,1.787a8.245,8.245,0,0,1-1.435.62,8.368,8.368,0,0,1,1.337-.816c.879-.488,2.165-1.172,3.786-1.952,3.23-1.582,7.789-3.568,12.933-5.48a137.2,137.2,0,0,1,13.385-4.234c1.739-.452,3.162-.755,4.149-.943a8.334,8.334,0,0,1,1.546-.229" transform="translate(2287 2656)" fill="#d8d8d8"/>
    <path id="Path_321" data-name="Path 321" d="M-898.478,2525.226a2,2,0,0,1-.342-.423c-.24-.346-.534-.766-.89-1.276-.769-1.113-1.838-2.75-3.133-4.791-2.594-4.08-6-9.828-9.67-16.223s-7.021-12.169-9.525-16.3c-1.223-2.006-2.231-3.655-2.98-4.882l-.8-1.333a2.08,2.08,0,0,1-.249-.486,2.037,2.037,0,0,1,.343.425l.891,1.275c.767,1.112,1.838,2.749,3.132,4.79,2.594,4.08,6,9.829,9.671,16.226s7.019,12.167,9.524,16.3l2.98,4.88c.322.533.586.973.8,1.333a1.926,1.926,0,0,1,.248.486" transform="translate(2287 2656)" fill="#d8d8d8"/>
    <path id="Path_322" data-name="Path 322" d="M-850.3,2500.182a2.071,2.071,0,0,1-.471.294c-.376.2-.837.447-1.4.747l-5.158,2.691c-4.355,2.274-10.333,5.483-16.934,9.038s-12.617,6.714-17.02,8.9c-2.2,1.093-3.991,1.959-5.24,2.532l-1.442.652a2.035,2.035,0,0,1-.52.192,2.154,2.154,0,0,1,.471-.3l1.4-.745,5.157-2.692c4.354-2.273,10.334-5.483,16.936-9.039s12.615-6.712,17.017-8.9c2.2-1.093,3.991-1.959,5.241-2.532l1.442-.652a2.036,2.036,0,0,1,.52-.192" transform="translate(2287 2656)" fill="#d8d8d8"/>
    <path id="Path_323" data-name="Path 323" d="M-1026.6,2323.411s-11.882,1.651-5.211,27.674,12.329,39.435,12.329,39.435.9,5.894-3.855,5.712-14.44-4.04-17.726,1.087c-3.408,5.318-.429,11.724,7.024,18.431s23.242,22,24.664,23.388c1.4,1.362,2.455,4.25-.8,4.645s-26.384-2.321-27.016,8.731,23.2,26.324,25.774,28.043,2.979,3.065,2.4,4.56-8.265-.151-14.875-.653-14.361.073-14.191,6.48,12.683,22.595,49.19,34.634l17.28,4.47,12.775-12.58c25.7-28.588,28.512-48.854,25.476-54.5s-10.05-2.291-15.536,1.43-11.34,8.969-12.583,7.958-1.56-2.38-.181-5.151,14.47-27.866,8.43-37.143-24.761,4.572-27.784,5.848-3.538-1.755-3-3.632c.544-1.912,6.647-23.029,9.781-32.552s2.536-16.564-3.064-19.484c-5.4-2.817-11.889,5.345-15.922,7.865s-6.185-3.041-6.185-3.041-1.754-14.451-8.9-40.349-18.531-21.257-18.531-21.257" transform="translate(2287 2656)" fill="#e7e6e6"/>
    <path id="Path_324" data-name="Path 324" d="M-971.633,2534.346c-5.171-19.04-13.793-53.035-21.347-82.183s-14.412-55.512-19.486-74.577c-2.542-9.512-4.6-17.219-6.032-22.571-.706-2.648-1.256-4.712-1.636-6.139-.177-.686-.314-1.217-.412-1.6-.09-.362-.122-.551-.122-.551s.069.179.177.535c.11.379.265.906.464,1.586.4,1.42.988,3.475,1.737,6.111,1.5,5.309,3.621,13.006,6.2,22.527,5.171,19.04,12.094,45.4,19.645,74.539s16.115,63.156,21.189,82.22" transform="translate(2287 2656)" fill="#d8d8d8"/>
    <path id="Path_325" data-name="Path 325" d="M-1027.731,2403.262a5.8,5.8,0,0,1,1.138.61c.716.421,1.732,1.06,2.98,1.861,2.493,1.607,5.881,3.914,9.572,6.527l9.426,6.724,2.867,2.018a5.78,5.78,0,0,1,1.026.784,5.668,5.668,0,0,1-1.143-.6c-.715-.423-1.732-1.062-2.971-1.876-2.478-1.633-5.834-3.983-9.525-6.6l-9.47-6.653-2.879-2.005a5.827,5.827,0,0,1-1.021-.792" transform="translate(2287 2656)" fill="#d8d8d8"/>
    <path id="Path_326" data-name="Path 326" d="M-999.282,2420.941c-.129-.083,4.319-7.275,9.935-16.062s10.273-15.849,10.4-15.766-4.318,7.273-9.936,16.064-10.272,15.846-10.4,15.764" transform="translate(2287 2656)" fill="#d8d8d8"/>
    <path id="Path_327" data-name="Path 327" d="M-989.7,2466.217a5.957,5.957,0,0,1,.947-.916l2.7-2.359c2.272-1.995,5.4-4.762,8.737-7.942s6.276-6.151,8.379-8.323c.99-1.022,1.825-1.883,2.493-2.571a6.026,6.026,0,0,1,.963-.9,6.03,6.03,0,0,1-.8,1.046c-.544.65-1.348,1.574-2.368,2.7-2.032,2.245-4.925,5.274-8.282,8.457s-6.525,5.919-8.866,7.839c-1.175.956-2.134,1.719-2.813,2.227a6.112,6.112,0,0,1-1.084.749" transform="translate(2287 2656)" fill="#d8d8d8"/>
    <path id="Path_328" data-name="Path 328" d="M-1018.954,2455.891a5.069,5.069,0,0,1,1.185.286l3.164.98c2.664.849,6.332,2.058,10.372,3.427s7.69,2.637,10.322,3.581q1.838.679,3.108,1.146a5.246,5.246,0,0,1,1.115.492,5.111,5.111,0,0,1-1.184-.287l-3.165-.979c-2.664-.849-6.332-2.059-10.374-3.428s-7.688-2.637-10.32-3.581l-3.108-1.146a5.281,5.281,0,0,1-1.115-.491" transform="translate(2287 2656)" fill="#d8d8d8"/>
    <path id="Path_329" data-name="Path 329" d="M-1015.574,2496.936a8.44,8.44,0,0,1,1.512.383l4.06,1.239c3.42,1.069,8.134,2.583,13.328,4.287s9.892,3.279,13.28,4.443l4.005,1.407a8.5,8.5,0,0,1,1.445.587,8.367,8.367,0,0,1-1.512-.382l-4.06-1.239c-3.42-1.07-8.134-2.583-13.33-4.288s-9.889-3.278-13.278-4.443l-4.005-1.406a8.437,8.437,0,0,1-1.445-.588" transform="translate(2287 2656)" fill="#d8d8d8"/>
    <path id="Path_330" data-name="Path 330" d="M-978.761,2508.734a9.6,9.6,0,0,1,1.171-1.191l3.31-3.114c2.792-2.632,6.634-6.282,10.761-10.43s7.778-7.994,10.4-10.8l3.1-3.321a9.7,9.7,0,0,1,1.186-1.176,9.6,9.6,0,0,1-1.024,1.32c-.687.825-1.7,2.005-2.975,3.44-2.547,2.875-6.152,6.774-10.294,10.925s-8.025,7.768-10.887,10.328c-1.435,1.278-2.606,2.3-3.432,2.987a9.777,9.777,0,0,1-1.315,1.03" transform="translate(2287 2656)" fill="#d8d8d8"/>
    <path id="Path_331" data-name="Path 331" d="M-1078.2,2168.239l-9.759-3.045s-2.556,8.194-11.117,5.685a8.274,8.274,0,0,1-6.075-7.426,9.161,9.161,0,0,1,3.161-7.688c2.507-2.212,6.908-3.561,13.123-.351l6.865-22-9.65-3.01-4.021,12.889s-14.625-.723-19.278,14.192c-4.453,14.27,7.311,21.577,12.789,23.286,4.189,1.306,18.775,4.746,23.962-12.528" transform="translate(2287 2656)" fill="#f2f2f2"/>
    <rect id="Rectangle_63" data-name="Rectangle 63" width="9.581" height="10.259" transform="translate(1196.644 4781.83) rotate(-72.674)" fill="#f2f2f2"/>
    <path id="Path_332" data-name="Path 332" d="M-1051.266,2143.4l3.908-1.031a3.435,3.435,0,0,1,2.529-4.24,3.273,3.273,0,0,1,3.595,1.211,3.624,3.624,0,0,1,.556,3.239c-.375,1.268-1.565,2.644-4.321,2.875l2.324,8.811,3.865-1.019-1.362-5.161a7.8,7.8,0,0,0,3.474-8.8c-1.507-5.714-6.982-5.69-9.175-5.111-1.678.442-7.286,2.355-5.393,9.23" transform="translate(2287 2656)" fill="#e7e6e6"/>
    <rect id="Rectangle_64" data-name="Rectangle 64" width="4.056" height="3.788" transform="translate(1244.793 4812.079) rotate(-14.77)" fill="#e7e6e6"/>
    <path id="Path_333" data-name="Path 333" d="M-728.456,2244.606l3.8,1.376a3.434,3.434,0,0,1,4.492-2.046,3.27,3.27,0,0,1,2.267,3.041,3.623,3.623,0,0,1-1.386,2.98c-1.029.829-2.791,1.283-5.189-.1l-3.1,8.568,3.758,1.362,1.818-5.019a7.805,7.805,0,0,0,7.867-5.261c2.013-5.557-2.5-8.653-4.635-9.426-1.631-.59-7.332-2.209-9.688,4.521" transform="translate(2287 2656)" fill="#e7e6e6"/>
    <rect id="Rectangle_65" data-name="Rectangle 65" width="3.788" height="4.055" transform="matrix(0.341, -0.94, 0.94, 0.341, 1557.484, 4919.752)" fill="#e7e6e6"/>
    <path id="Path_334" data-name="Path 334" d="M-1131.744,2288.129l8.042-3.1s-2.6-6.753,4.369-9.577a6.972,6.972,0,0,1,7.9,1.726,7.724,7.724,0,0,1,1.938,6.734c-.5,2.775-2.7,5.97-8.488,7.1l6.987,18.133,7.951-3.063-4.092-10.622s10.043-7.18,5.309-19.471c-4.532-11.76-16.13-10.428-20.645-8.689-3.452,1.329-14.89,6.7-9.272,20.824" transform="translate(2287 2656)" fill="#f2f2f2"/>
    <path id="Path_470" data-name="Path 470" d="M-1131.744,2288.129l8.042-3.1s-2.6-6.753,4.369-9.577a6.972,6.972,0,0,1,7.9,1.726,7.724,7.724,0,0,1,1.938,6.734c-.5,2.775-2.7,5.97-8.488,7.1l6.987,18.133,7.951-3.063-4.092-10.622s10.043-7.18,5.309-19.471c-4.532-11.76-16.13-10.428-20.645-8.689-3.452,1.329-14.89,6.7-9.272,20.824" transform="translate(4015.696 3890.478) rotate(45)" fill="#f2f2f2"/>
    <rect id="Rectangle_66" data-name="Rectangle 66" width="8.649" height="8.078" transform="translate(1177.421 4968.895) rotate(-21.069)" fill="#f2f2f2"/>
    <rect id="Rectangle_92" data-name="Rectangle 92" width="8.649" height="8.078" transform="translate(1595.62 4741.339) rotate(24)" fill="#f2f2f2"/>
    <path id="Path_335" data-name="Path 335" d="M-725.33,2318.638l-5.7,2.2s1.843,4.784-3.1,6.785a4.941,4.941,0,0,1-5.6-1.223,5.47,5.47,0,0,1-1.372-4.771c.353-1.966,1.913-4.231,6.014-5.035l-4.95-12.849-5.636,2.171,2.9,7.527a11.79,11.79,0,0,0-3.761,13.8c3.21,8.334,11.429,7.39,14.628,6.157,2.447-.942,10.552-4.744,6.571-14.757" transform="translate(2287 2656)" fill="#f2f2f2"/>
    <rect id="Rectangle_67" data-name="Rectangle 67" width="6.129" height="5.724" transform="translate(1538.185 4953.95) rotate(-21.072)" fill="#f2f2f2"/>
    <rect id="Rectangle_68" data-name="Rectangle 68" width="500" height="500" transform="translate(1107 4732)" fill="none"/>
    <path id="Path_336" data-name="Path 336" d="M-709.229,2539.772c0,.144-98.851.26-220.761.26-121.952,0-220.781-.116-220.781-.26s98.829-.261,220.781-.261c121.91,0,220.761.117,220.761.261" transform="translate(2287 2656)" fill="#1c262b"/>
    <rect id="Rectangle_69" data-name="Rectangle 69" width="500" height="500" transform="translate(1107 4732)" fill="none"/>
    <path id="Path_337" data-name="Path 337" d="M-1087.363,2513.8c.949-3.678-1.462-7.369-4.166-10.037s-5.934-5.059-7.34-8.587c-2.279-5.716.784-13.116-3.1-17.885-2.287-2.8-6.388-3.744-8.418-6.741a15.343,15.343,0,0,1-1.827-5.355,54.4,54.4,0,0,0-13.529-25.317,47.192,47.192,0,0,0,5.308,24.4c1.574,3,3.508,5.921,4.029,9.267.848,5.434-2.185,11.031-.85,16.366,1.526,6.1,8.38,10.186,8.7,16.467.275,5.31-4.354,9.971-4.009,15.277a14.321,14.321,0,0,0,2.363,6.3c4.106,6.827,10.137,11.528,19.279,11.374l11.2.393Z" transform="translate(2287 2656)" fill="#e03848"/>
    <g id="Group_333" data-name="Group 333" transform="translate(2287 2656)" opacity="0.3">
      <g id="Group_332" data-name="Group 332">
        <g id="Group_331" data-name="Group 331" clip-path="url(#clip-path)">
          <path id="Path_338" data-name="Path 338" d="M-1087.363,2513.8c.949-3.678-1.462-7.369-4.166-10.037s-5.934-5.059-7.34-8.587c-2.279-5.716.784-13.116-3.1-17.885-2.287-2.8-6.388-3.744-8.418-6.741a15.343,15.343,0,0,1-1.827-5.355,54.4,54.4,0,0,0-13.529-25.317,47.192,47.192,0,0,0,5.308,24.4c1.574,3,3.508,5.921,4.029,9.267.848,5.434-2.185,11.031-.85,16.366,1.526,6.1,8.38,10.186,8.7,16.467.275,5.31-4.354,9.971-4.009,15.277a14.321,14.321,0,0,0,2.363,6.3c4.106,6.827,10.137,11.528,19.279,11.374l11.2.393Z" fill="#040405"/>
        </g>
      </g>
    </g>
    <path id="Path_339" data-name="Path 339" d="M-1077.457,2540.012a8.957,8.957,0,0,0,3.083-.066,18.856,18.856,0,0,0,3.639-.916,15.455,15.455,0,0,0,4.493-2.462,6.268,6.268,0,0,0,1.849-2.463,11.59,11.59,0,0,0,.527-3.346,32.257,32.257,0,0,1,.262-3.622,10,10,0,0,1,1.368-3.6c1.32-2.318,3.512-4.514,4.22-7.663.767-3.1.217-6.449-.3-9.815s-1.024-7.021.261-10.52c1.2-3.5,3.657-6.663,4.885-10.611,1.222-3.987.653-8.275.91-12.506a16.609,16.609,0,0,1,1.46-6.217c.906-1.982,2.162-3.851,3.143-5.938,1.988-4.218,2.339-9,2.883-13.685q.4-3.54.8-7.155a35,35,0,0,1,1.244-7.16,63.324,63.324,0,0,1,2.678-6.931,22.976,22.976,0,0,0,1.3-3.619,36.369,36.369,0,0,0,.361-3.85,45.341,45.341,0,0,0-.3-7.751c-.3-2.585-.77-5.147-1.048-7.737-.017-.152-.034-.3-.05-.446l-.058-.516-.459.23a17.291,17.291,0,0,0-6.027,5.087,27.41,27.41,0,0,0-3.7,6.825c-1.871,4.81-2.544,9.852-3.487,14.663-.92,4.812-2.134,9.544-4.6,13.543-1.227,1.994-2.711,3.814-4.011,5.76a15.817,15.817,0,0,0-2.778,6.382c-.663,4.737,1.947,8.9,1.4,13.091a14.534,14.534,0,0,1-2.043,5.812c-1.017,1.789-2.212,3.447-3.345,5.115a32.863,32.863,0,0,0-3.006,5.166,16.36,16.36,0,0,0-1.376,5.613c-.273,3.777.262,7.359-.013,10.741a24.714,24.714,0,0,1-2.764,9.2c-1.355,2.755-2.861,5.246-4.123,7.662a39.441,39.441,0,0,0-1.7,3.568,17.577,17.577,0,0,0-.983,3.539,22.364,22.364,0,0,0-.082,6.392,16.089,16.089,0,0,0,3.2,8.15,7.748,7.748,0,0,0,.906.982,4.5,4.5,0,0,0,.735.624c.418.307.641.449.641.449a14.131,14.131,0,0,1-2.168-2.145,16.2,16.2,0,0,1-3.04-8.095,22.231,22.231,0,0,1,.143-6.3,17.216,17.216,0,0,1,.99-3.456,39.09,39.09,0,0,1,1.708-3.522c1.272-2.393,2.794-4.875,4.178-7.647a25.151,25.151,0,0,0,2.86-9.365c.294-3.453-.226-7.048.059-10.736a15.809,15.809,0,0,1,1.35-5.424,32.351,32.351,0,0,1,2.972-5.064c1.133-1.656,2.342-3.321,3.387-5.147a15.138,15.138,0,0,0,2.137-6.05c.54-4.468-2.05-8.655-1.377-13.059a15.181,15.181,0,0,1,2.684-6.1c1.279-1.909,2.771-3.732,4.035-5.776,2.544-4.114,3.777-8.937,4.707-13.768.952-4.841,1.627-9.829,3.464-14.541a26.75,26.75,0,0,1,3.606-6.646,16.607,16.607,0,0,1,5.774-4.878l-.516-.285c.016.142.034.3.051.451.281,2.62.749,5.188,1.05,7.742a44.715,44.715,0,0,1,.3,7.632,36.405,36.405,0,0,1-.345,3.736,22.566,22.566,0,0,1-1.256,3.491,63.772,63.772,0,0,0-2.7,7.006,35.6,35.6,0,0,0-1.261,7.28q-.4,3.615-.794,7.16c-.535,4.705-.886,9.409-2.8,13.482-.946,2.027-2.2,3.9-3.133,5.949a17.251,17.251,0,0,0-1.5,6.447c-.244,4.321.318,8.545-.851,12.373-1.16,3.81-3.6,6.987-4.837,10.6-1.321,3.65-.774,7.431-.24,10.779.541,3.371,1.084,6.652.363,9.63-.647,3.008-2.776,5.184-4.124,7.568a10.367,10.367,0,0,0-1.389,3.745,32.267,32.267,0,0,0-.235,3.665,11.366,11.366,0,0,1-.478,3.255,6,6,0,0,1-1.737,2.357,15.338,15.338,0,0,1-4.387,2.473,19.246,19.246,0,0,1-3.586.974,14.385,14.385,0,0,1-2.278.22c-.515-.019-.783-.01-.783-.01" transform="translate(2287 2656)" fill="#1c262b"/>
    <path id="Path_340" data-name="Path 340" d="M-1042.077,2408.1a1.292,1.292,0,0,0-.108.338c-.066.268-.147.6-.247,1.009-.221.881-.484,2.213-.906,3.877-.44,1.658-1.456,3.535-2.324,5.847-.9,2.295-1.819,4.955-2.662,7.944s-1.611,6.3-2.4,9.854c-.817,3.545-1.631,7.349-3.585,10.936-.917,1.818-1.951,3.659-2.771,5.674a26.35,26.35,0,0,0-1.613,6.424,130,130,0,0,1-2.414,13.547c-2.245,9.177-4.384,17.916-6.331,25.874-1.994,7.932-3.791,15.078-5.306,21.1-1.475,5.969-2.672,10.82-3.518,14.242q-.583,2.463-.92,3.881l-.222,1.013a1.249,1.249,0,0,0-.051.352,1.375,1.375,0,0,0,.122-.333l.292-1c.255-.935.606-2.22,1.051-3.847.9-3.408,2.172-8.239,3.739-14.185,1.557-6.014,3.405-13.148,5.455-21.065,1.966-7.96,4.125-16.7,6.391-25.881a128.274,128.274,0,0,0,2.41-13.6,25.823,25.823,0,0,1,1.552-6.27c.791-1.963,1.808-3.795,2.726-5.632,1.971-3.655,2.791-7.574,3.575-11.1.767-3.561,1.492-6.868,2.31-9.848s1.684-5.637,2.547-7.934c.824-2.306,1.807-4.205,2.219-5.919.388-1.7.6-3.023.777-3.921.072-.414.131-.751.177-1.022a1.291,1.291,0,0,0,.037-.354" transform="translate(2287 2656)" fill="#1c262b"/>
    <path id="Path_341" data-name="Path 341" d="M-1075.481,2540.046c7.314-4.348,9.413-17.543,6.362-25.485s-8.391-15.2-9.215-23.669c-.632-6.51,1.5-13.191-.017-19.553-2.046-8.587-10.429-15.238-10.332-24.064.054-4.953,2.871-9.613,2.647-14.561-.275-6.068-4.933-10.883-7.818-16.229-4.416-8.183-4.707-17.858-6.216-27.033s-5.007-19-13.139-23.51c-1.2,7.79-3.251,13.125-2.606,23.677.23,3.79,4.633,11.045,5.232,19.351.358,4.964.606,9.935.91,14.9.295,4.834.608,9.757,2.341,14.279,1.328,3.466,3.461,6.616,4.447,10.194,1.855,6.731-.582,14.023.916,20.844,1.269,5.778,5.268,10.751,6.085,16.611,1.148,8.232-4.18,16.786-1.452,24.639,1.353,3.9,4.558,7.025,5.468,11.049.705,3.122-.064,6.427.575,9.563,1.03,5.053,10.667,8.976,15.814,8.665" transform="translate(2287 2656)" fill="#e03848"/>
    <path id="Path_342" data-name="Path 342" d="M-1111.193,2373.675a2.048,2.048,0,0,0,.032.439c.042.328.1.749.165,1.281.168,1.125.356,2.777.736,4.913.409,2.148,1.516,4.565,2.4,7.481.934,2.907,1.862,6.261,2.683,10.016s1.532,7.906,2.266,12.376c.757,4.437,1.532,9.341,3.749,13.994,1.026,2.338,2.177,4.678,3.04,7.171a32.16,32.16,0,0,1,1.543,7.9,159.673,159.673,0,0,0,2.145,17.038c2.241,11.541,4.374,22.534,6.316,32.541,2.047,9.967,3.891,18.946,5.444,26.505,1.567,7.5,2.84,13.592,3.731,17.857l1.05,4.847c.12.522.217.936.291,1.257a2.043,2.043,0,0,0,.123.424,2.088,2.088,0,0,0-.051-.439c-.057-.324-.13-.744-.221-1.27-.219-1.162-.526-2.795-.918-4.875-.837-4.274-2.033-10.379-3.507-17.9-1.509-7.569-3.3-16.558-5.292-26.537l-6.257-32.531a161.572,161.572,0,0,1-2.152-16.982,32.772,32.772,0,0,0-1.6-8.062c-.89-2.546-2.057-4.9-3.084-7.214-2.2-4.585-2.978-9.374-3.767-13.826-.758-4.462-1.488-8.628-2.358-12.387s-1.823-7.123-2.8-10.03c-.93-2.926-2.07-5.323-2.509-7.416-.416-2.1-.654-3.765-.867-4.876-.1-.526-.175-.944-.236-1.269a1.973,1.973,0,0,0-.1-.428" transform="translate(2287 2656)" fill="#1c262b"/>
    <rect id="Rectangle_71" data-name="Rectangle 71" width="500" height="500" transform="translate(1107 4732)" fill="none"/>
    <path id="Path_343" data-name="Path 343" d="M-758.526,2164.773h-3.981a3.383,3.383,0,0,1-3.473,3.4,3.22,3.22,0,0,1-3.12-2.055,3.562,3.562,0,0,1,.284-3.224c.675-1.114,2.154-2.126,4.837-1.653v-8.976h-3.936v5.258a7.687,7.687,0,0,0-5.521,7.511c0,5.821,5.221,7.173,7.455,7.173,1.709,0,7.53-.413,7.455-7.436" transform="translate(2287 2656)" fill="#e03848"/>
    <rect id="Rectangle_72" data-name="Rectangle 72" width="3.995" height="3.731" transform="translate(1519.038 4802.687)" fill="#e03848"/>
    <path id="Path_344" data-name="Path 344" d="M-736.724,2159.447a2.872,2.872,0,0,0,.008-.5c-.01-.366-.024-.855-.042-1.48-.015-.326-.015-.691-.048-1.092-.057-.4-.117-.836-.184-1.305s-.14-.982-.218-1.524q-.2-.8-.422-1.7a27.564,27.564,0,0,0-3.6-8.252,29.612,29.612,0,0,0-8.312-8.535,29.87,29.87,0,0,0-13.578-4.842,30.039,30.039,0,0,0-3.99-.08c-.675.046-1.36.033-2.041.131l-2.055.31a29.3,29.3,0,0,0-8.121,2.773,31.319,31.319,0,0,0-7.3,5.3,30.715,30.715,0,0,0-5.49,7.642,27.791,27.791,0,0,0-2.859,9.315,18.528,18.528,0,0,0-.211,2.484,22.375,22.375,0,0,0-.046,2.512,29.758,29.758,0,0,0,.636,5.03,29.378,29.378,0,0,0,4.214,10.015l-.031-.3q-2.09,5.206-4.094,10.2l-.242.6.627-.173,10.9-3-.269-.052a29.248,29.248,0,0,0,12.461,5.443,26.456,26.456,0,0,0,6.385.4,20.522,20.522,0,0,0,3.066-.289l1.493-.232c.49-.091.965-.24,1.444-.357a29.166,29.166,0,0,0,16.591-11.381,27.883,27.883,0,0,0,3.573-6.773q.282-.79.546-1.525.192-.754.368-1.448t.328-1.326c.082-.424.125-.835.185-1.219.1-.771.231-1.449.26-2.043s.037-1.083.05-1.5c.009-.379.016-.681.021-.915a1.4,1.4,0,0,0-.011-.31,1.346,1.346,0,0,0-.043.309c-.018.233-.042.534-.071.912-.029.413-.062.908-.1,1.489s-.195,1.26-.307,2.023a28.981,28.981,0,0,1-5.11,12.1,28.887,28.887,0,0,1-16.408,11.095c-.471.111-.938.256-1.42.343l-1.466.22a19.919,19.919,0,0,1-3.011.27,25.977,25.977,0,0,1-6.258-.413,28.739,28.739,0,0,1-12.191-5.369l-.122-.092-.147.04-10.911,2.977.383.431,4.107-10.2.064-.16-.095-.144a28.8,28.8,0,0,1-4.117-9.791,29.432,29.432,0,0,1-.622-4.917,22.108,22.108,0,0,1,.045-2.456,17.875,17.875,0,0,1,.205-2.429,27.209,27.209,0,0,1,2.785-9.109,30.156,30.156,0,0,1,5.358-7.486,30.748,30.748,0,0,1,7.132-5.209,28.758,28.758,0,0,1,7.946-2.743l2.014-.311c.667-.1,1.34-.088,2-.137a29.628,29.628,0,0,1,3.916.062,29.476,29.476,0,0,1,13.367,4.684,29.457,29.457,0,0,1,8.262,8.346,27.8,27.8,0,0,1,3.66,8.119q.237.89.447,1.681.133.806.248,1.508c.076.465.148.9.213,1.294.044.4.055.76.08,1.082.046.622.081,1.11.107,1.473a2.873,2.873,0,0,0,.06.5" transform="translate(2287 2656)" fill="#1c262b"/>
    <rect id="Rectangle_73" data-name="Rectangle 73" width="500" height="500" transform="translate(1107 4732)" fill="none"/>
    <path id="Path_345" data-name="Path 345" d="M-1034.932,2277.385h57.752s0-48.491,50.394-49.359c26.17-.451,39.74,16.692,45.253,29.825,6.4,15.252,4.465,32.633-4.113,46.776-9.795,16.151-30.893,32.38-69.814,25.522l-.369,128.668h57.106V2382.54s80.093-20.7,80.093-108.969c0-84.451-68.293-102.694-105-103.867-20.423-.652-27.826-1.529-53.086,2.056-32.19,4.57-58.9,41.946-58.22,105.625" transform="translate(2287 2656)" fill="#e03848"/>
    <rect id="Rectangle_74" data-name="Rectangle 74" width="57.956" height="54.129" transform="translate(1331.011 5141.643)" fill="#e03848"/>
    <g id="Group_340" data-name="Group 340" transform="translate(2287 2656)" opacity="0.1">
      <g id="Group_339" data-name="Group 339">
        <g id="Group_338" data-name="Group 338" clip-path="url(#clip-path-2)">
          <rect id="Rectangle_75" data-name="Rectangle 75" width="57.956" height="54.129" transform="translate(-955.989 2485.643)" fill="#040405"/>
        </g>
      </g>
    </g>
    <g id="Group_343" data-name="Group 343" transform="translate(2287 2656)" opacity="0.1">
      <g id="Group_342" data-name="Group 342">
        <g id="Group_341" data-name="Group 341" clip-path="url(#clip-path-3)">
          <path id="Path_346" data-name="Path 346" d="M-1034.932,2277.385h57.752s0-48.491,50.394-49.359c26.17-.451,39.74,16.692,45.253,29.825,6.4,15.252,4.465,32.633-4.113,46.776-9.795,16.151-30.893,32.38-69.814,25.522l-.369,128.668h57.106V2382.54s80.093-20.7,80.093-108.969c0-84.451-68.293-102.694-105-103.867-20.423-.652-27.826-1.529-53.086,2.056-32.19,4.57-58.9,41.946-58.22,105.625" fill="#040405"/>
        </g>
      </g>
    </g>
    <path id="Path_347" data-name="Path 347" d="M-1058.855,2277.385h57.753s0-48.491,50.393-49.359c26.171-.451,39.741,16.692,45.254,29.825,6.4,15.252,4.465,32.633-4.113,46.776-9.8,16.151-31.261,30.831-70.183,23.973v130.217h57.106V2382.54s80.092-20.7,80.092-108.969c0-84.451-75.733-104.065-108.151-104.065-24.79,0-109.241,5.993-108.151,107.879" transform="translate(2287 2656)" fill="#e03848"/>
    <g id="Group_346" data-name="Group 346" transform="translate(2287 2656)" opacity="0.3">
      <g id="Group_345" data-name="Group 345">
        <g id="Group_344" data-name="Group 344" clip-path="url(#clip-path-4)">
          <path id="Path_348" data-name="Path 348" d="M-1058.855,2277.385h57.753s0-48.491,50.393-49.359c26.171-.451,39.741,16.692,45.254,29.825,6.4,15.252,4.465,32.633-4.113,46.776-9.8,16.151-31.261,30.831-70.183,23.973v130.217h57.106V2382.54s80.092-20.7,80.092-108.969c0-84.451-75.733-104.065-108.151-104.065-24.79,0-109.241,5.993-108.151,107.879" fill="#040405"/>
        </g>
      </g>
    </g>
    <rect id="Rectangle_79" data-name="Rectangle 79" width="57.956" height="54.129" transform="translate(1307.089 5141.643)" fill="#e03848"/>
    <g id="Group_349" data-name="Group 349" transform="translate(2287 2656)" opacity="0.3">
      <g id="Group_348" data-name="Group 348">
        <g id="Group_347" data-name="Group 347" clip-path="url(#clip-path-5)">
          <rect id="Rectangle_80" data-name="Rectangle 80" width="57.956" height="54.129" transform="translate(-979.911 2485.643)" fill="#040405"/>
        </g>
      </g>
    </g>
    <path id="Path_349" data-name="Path 349" d="M-944.187,2228.294a5.4,5.4,0,0,1-.864-.052c-.565-.029-1.386-.188-2.461-.2a50.25,50.25,0,0,0-9.056.376,64.881,64.881,0,0,0-13.072,3.074,55.709,55.709,0,0,0-7.284,3.134,38.718,38.718,0,0,0-7.124,4.613,35.374,35.374,0,0,0-5.83,6.159,59.268,59.268,0,0,0-4.369,6.62,58.643,58.643,0,0,0-5.172,12.386,50,50,0,0,0-1.737,8.894c-.123,1.066-.156,1.9-.185,2.463a5.385,5.385,0,0,1-.077.861,5.367,5.367,0,0,1-.028-.864c0-.567-.005-1.4.088-2.478a46.3,46.3,0,0,1,1.585-8.976,57.332,57.332,0,0,1,5.107-12.52,58.653,58.653,0,0,1,4.383-6.7,35.569,35.569,0,0,1,5.905-6.252,38.826,38.826,0,0,1,7.219-4.664,55.2,55.2,0,0,1,7.361-3.133,63.115,63.115,0,0,1,13.187-2.987,46.643,46.643,0,0,1,9.112-.213,24.7,24.7,0,0,1,2.462.3,5.282,5.282,0,0,1,.85.156" transform="translate(2287 2656)" fill="#1c262b"/>
    <path id="Path_350" data-name="Path 350" d="M-857.171,2217.983a1.184,1.184,0,0,1-.187-.228c-.132-.18-.3-.409-.506-.695l-1.9-2.7c-.417-.582-.851-1.251-1.376-1.944q-.832-1.013-1.8-2.188l-2.068-2.516c-.752-.872-1.629-1.722-2.5-2.655-.9-.912-1.787-1.917-2.8-2.875l-3.23-2.92c-.562-.5-1.113-1.031-1.712-1.525l-1.86-1.465c-1.27-.978-2.531-2.045-3.906-3.029a124.973,124.973,0,0,0-18.922-11.175l-5.27-2.384-5.236-2.032c-1.7-.706-3.443-1.208-5.124-1.763-1.692-.525-3.32-1.133-4.969-1.518l-4.783-1.256c-1.55-.411-3.091-.655-4.561-.975-1.478-.276-2.889-.644-4.277-.817l-3.977-.575c-2.526-.433-4.846-.519-6.869-.723-1.014-.08-1.956-.188-2.826-.229l-2.383-.064-3.3-.106-.858-.041a1.259,1.259,0,0,1-.293-.031,1.267,1.267,0,0,1,.292-.022l.859-.01,3.3.008,2.389.018c.873.026,1.818.12,2.835.187,2.031.176,4.36.237,6.9.648l3.995.544c1.393.163,2.811.521,4.3.789,1.478.313,3.026.549,4.582.953l4.807,1.24c1.656.381,3.293.985,4.992,1.507,1.691.552,3.439,1.052,5.149,1.758l5.259,2.033,5.293,2.39a122.891,122.891,0,0,1,18.983,11.259c1.377.994,2.639,2.071,3.909,3.059l1.86,1.482c.6.5,1.149,1.038,1.711,1.542l3.223,2.954c1.012.97,1.9,1.987,2.79,2.911.87.945,1.74,1.807,2.486,2.691l2.045,2.55,1.775,2.222c.514.705.938,1.383,1.342,1.976.777,1.173,1.386,2.1,1.824,2.758l.462.723a1.212,1.212,0,0,1,.143.256" transform="translate(2287 2656)" fill="#1c262b"/>
    <path id="Path_351" data-name="Path 351" d="M-863.188,2341.978a3.9,3.9,0,0,1-.437.6l-1.332,1.656c-.577.722-1.3,1.592-2.18,2.562s-1.845,2.116-3.006,3.289c-1.139,1.2-2.394,2.5-3.81,3.831-1.377,1.372-2.939,2.739-4.565,4.2a136.591,136.591,0,0,1-11.221,8.717,136.847,136.847,0,0,1-12.138,7.388c-1.942,1-3.776,1.977-5.547,2.776-1.747.85-3.412,1.559-4.936,2.2-1.51.668-2.92,1.168-4.142,1.64s-2.291.843-3.17,1.126l-2.022.657a3.947,3.947,0,0,1-.716.194,3.949,3.949,0,0,1,.683-.294l1.987-.748c.867-.311,1.924-.7,3.132-1.207s2.607-1.019,4.1-1.707c1.51-.658,3.161-1.385,4.894-2.249,1.757-.813,3.577-1.8,5.505-2.809,3.816-2.092,7.925-4.555,12.071-7.4,4.126-2.864,7.888-5.828,11.2-8.65,1.629-1.443,3.2-2.793,4.582-4.146,1.424-1.313,2.69-2.6,3.842-3.774,1.176-1.155,2.16-2.274,3.055-3.228s1.643-1.8,2.243-2.5l1.405-1.592a3.945,3.945,0,0,1,.518-.533" transform="translate(2287 2656)" fill="#1c262b"/>
    <path id="Path_352" data-name="Path 352" d="M-923.655,2454.283c-.145,0-.261-16.062-.261-35.872s.116-35.876.261-35.876.26,16.059.26,35.876-.116,35.872-.26,35.872" transform="translate(2287 2656)" fill="#1c262b"/>
    <path id="Path_353" data-name="Path 353" d="M-921.453,2536.1c-.144,0-.26-11.272-.26-25.174s.116-25.177.26-25.177.261,11.27.261,25.177-.117,25.174-.261,25.174" transform="translate(2287 2656)" fill="#1c262b"/>
    <rect id="Rectangle_82" data-name="Rectangle 82" width="500" height="500" transform="translate(1107 4732)" fill="none"/>
    <path id="Path_354" data-name="Path 354" d="M-864.6,2269.709c-1.009,2.013,2.729,3.637,4.884,4.289a19.511,19.511,0,0,0,6.7.462c2.98-.161,6.068-.439,8.66-1.919a13.765,13.765,0,0,0,5.22-5.855,41.165,41.165,0,0,0,2.649-7.488s-23.626,1.547-28.118,10.511" transform="translate(2287 2656)" fill="#e03848"/>
    <g id="Group_354" data-name="Group 354" transform="translate(2287 2656)" opacity="0.4">
      <g id="Group_353" data-name="Group 353">
        <g id="Group_352" data-name="Group 352" clip-path="url(#clip-path-6)">
          <path id="Path_355" data-name="Path 355" d="M-864.6,2269.709c-1.009,2.013,2.729,3.637,4.884,4.289a19.511,19.511,0,0,0,6.7.462c2.98-.161,6.068-.439,8.66-1.919a13.765,13.765,0,0,0,5.22-5.855,41.165,41.165,0,0,0,2.649-7.488s-23.626,1.547-28.118,10.511" fill="#040405"/>
        </g>
      </g>
    </g>
    <path id="Path_356" data-name="Path 356" d="M-797.857,2263.306a22.657,22.657,0,0,0,13.337,4.187c2.269-.027,4.675-.466,6.35-2,.771-.7,1.346-1.605,2.14-2.283.539-.461,1.17-.81,1.676-1.3a2.14,2.14,0,0,0,.736-1.9A3.952,3.952,0,0,0-775,2257.8c-2.713-1.539-5.951-1.484-9.07-1.412a31.073,31.073,0,0,0-9.149,1.793c-2.419.814-4.954,1.962-6.181,4.2" transform="translate(2287 2656)" fill="#e03848"/>
    <g id="Group_357" data-name="Group 357" transform="translate(2287 2656)" opacity="0.4">
      <g id="Group_356" data-name="Group 356">
        <g id="Group_355" data-name="Group 355" clip-path="url(#clip-path-7)">
          <path id="Path_357" data-name="Path 357" d="M-773.618,2260.009a4.186,4.186,0,0,0-1.773-2.009c-2.714-1.54-5.559-1.683-8.678-1.612a31.112,31.112,0,0,0-9.15,1.794c-2.419.814-4.954,1.962-6.18,4.2l1.542.924a22.655,22.655,0,0,0,13.337,4.187c2.269-.027,4.674-.466,6.35-2,.771-.7,1.346-1.605,2.14-2.283.539-.461,1.17-.81,1.676-1.306a2.141,2.141,0,0,0,.736-1.9" fill="#040405"/>
        </g>
      </g>
    </g>
    <path id="Path_358" data-name="Path 358" d="M-843.98,2299.2l49.851.653a.641.641,0,0,0,.618-.836l-5.848-18.24s.862-9.115,2.053-20.083c1.807-16.645,4.212-37.574,4.243-37.517-3.4-9.555-23.523-11.185-23.523-11.185l-22.932,1.364-.807-1.345-6.6,3.067a30.6,30.6,0,0,0-4.14,2.335c-4.355,2.918-14.861,9.6-16.776,17.058-4.427,17.242,3.072,36.493,3.072,36.493l4.813-3.763a33.707,33.707,0,0,1,3.821-2.553l9.661,25.885a4.562,4.562,0,0,0-2.1,3.323c-.085,2.1,1.039,4.626,4.588,5.344" transform="translate(2287 2656)" fill="#e03848"/>
    <g id="Group_360" data-name="Group 360" transform="translate(2287 2656)" opacity="0.3">
      <g id="Group_359" data-name="Group 359">
        <g id="Group_358" data-name="Group 358" clip-path="url(#clip-path-8)">
          <path id="Path_359" data-name="Path 359" d="M-822.611,2268.681c1.582-8.5.746-17.236-.095-25.839-2.768,7.038-2.668,14.97-5.6,21.942a9.41,9.41,0,0,0-.781,2.31,2.58,2.58,0,0,0,.667,2.254c.8.729,1.983.336,3.054.208a11.641,11.641,0,0,0,2.751-.875" fill="#040405"/>
        </g>
      </g>
    </g>
    <g id="Group_363" data-name="Group 363" transform="translate(2287 2656)" opacity="0.4">
      <g id="Group_362" data-name="Group 362">
        <g id="Group_361" data-name="Group 361" clip-path="url(#clip-path-9)">
          <path id="Path_360" data-name="Path 360" d="M-840.972,2288.355c4.025,1.4,8.258-1.194,12.492-1.653,2.8-.3,5.6.338,8.377.789a62.622,62.622,0,0,0,17,.416,6.5,6.5,0,0,0,2.5-.645,3.018,3.018,0,0,0,1.308-2.482c-9.414-.967-18.829-1.543-28.243-2.508a17.738,17.738,0,0,0-7.062.224c-2.847.882-5.039,3.117-7.045,5.32" fill="#040405"/>
        </g>
      </g>
    </g>
    <path id="Path_361" data-name="Path 361" d="M-775.056,2256.715c-4.075-9.164-18.425-34.525-18.425-34.525l-11.114,13.934,2.594,27.35s5.868-6.551,22.277-6.681a8.04,8.04,0,0,1,6.106,3.216Z" transform="translate(2287 2656)" fill="#e03848"/>
    <path id="Path_362" data-name="Path 362" d="M-841.773,2251.874a37.78,37.78,0,0,1-1.872-5.982,37.822,37.822,0,0,1-1.37-6.117,38.079,38.079,0,0,1,1.873,5.982,37.714,37.714,0,0,1,1.369,6.117" transform="translate(2287 2656)" fill="#1c262b"/>
    <path id="Path_363" data-name="Path 363" d="M-805.434,2234.269a6.639,6.639,0,0,1,1.028.874,28.023,28.023,0,0,1,2.476,2.721,26.265,26.265,0,0,1,5.307,10.859,20.294,20.294,0,0,1,.318,6.7c-.258,2.046-.65,3.845-.9,5.369s-.421,2.757-.5,3.616a9.035,9.035,0,0,1-.14,1.337,5.359,5.359,0,0,1-.063-1.349,31.858,31.858,0,0,1,.338-3.661c.206-1.536.561-3.351.788-5.368a20.577,20.577,0,0,0-.351-6.534,27.474,27.474,0,0,0-5.088-10.741c-1.849-2.465-3.29-3.745-3.213-3.821" transform="translate(2287 2656)" fill="#1c262b"/>
    <path id="Path_364" data-name="Path 364" d="M-815.613,2297.023a4.658,4.658,0,0,1-1.085.315,10.539,10.539,0,0,1-1.3.253,17.253,17.253,0,0,1-1.745.212,25.844,25.844,0,0,1-4.579-.025,29.534,29.534,0,0,1-5.5-1.1,29.521,29.521,0,0,1-5.159-2.208,25.858,25.858,0,0,1-3.788-2.572,17.224,17.224,0,0,1-1.319-1.164,10.432,10.432,0,0,1-.928-.944,4.715,4.715,0,0,1-.716-.875c.074-.072,1.148,1.129,3.19,2.693a28.806,28.806,0,0,0,3.79,2.441,31.725,31.725,0,0,0,5.084,2.132,31.588,31.588,0,0,0,5.4,1.121,28.659,28.659,0,0,0,4.505.136c2.569-.134,4.134-.515,4.155-.413" transform="translate(2287 2656)" fill="#1c262b"/>
    <path id="Path_365" data-name="Path 365" d="M-800.217,2291.32a3.492,3.492,0,0,1,.385,1.459,9,9,0,0,1-.269,3.645,6.354,6.354,0,0,1-1.959,3.1,2.747,2.747,0,0,1-1.317.75c-.044-.074.441-.379,1.066-1.019a7.085,7.085,0,0,0,1.711-2.977c.757-2.642.187-4.943.383-4.955" transform="translate(2287 2656)" fill="#1c262b"/>
    <path id="Path_366" data-name="Path 366" d="M-802.928,2294.843a4.262,4.262,0,0,1-.253,3.076,4.257,4.257,0,0,1-1.888,2.443c-.111-.109.823-1.1,1.4-2.631.6-1.518.584-2.883.739-2.888" transform="translate(2287 2656)" fill="#1c262b"/>
    <path id="Path_367" data-name="Path 367" d="M-811.854,2261.938a20.488,20.488,0,0,1-1.778,2.56,20.5,20.5,0,0,1-1.749,2.58,6.369,6.369,0,0,1,1.319-2.875,6.384,6.384,0,0,1,2.208-2.265" transform="translate(2287 2656)" fill="#1c262b"/>
    <path id="Path_368" data-name="Path 368" d="M-846.068,2237.72a25,25,0,0,1-2.211-1.465,29.493,29.493,0,0,0-5.656-2.866,29.456,29.456,0,0,0-6.154-1.543,24.941,24.941,0,0,1-2.628-.341,9.207,9.207,0,0,1,2.67-.023,23.822,23.822,0,0,1,6.293,1.42,23.876,23.876,0,0,1,5.685,3.051,9.256,9.256,0,0,1,2,1.767" transform="translate(2287 2656)" fill="#1c262b"/>
    <path id="Path_369" data-name="Path 369" d="M-793.475,2221.858a43.443,43.443,0,0,0-5.053,4.728,43.419,43.419,0,0,0-3.8,5.785,6.19,6.19,0,0,1,.7-1.94,19.747,19.747,0,0,1,2.7-4.18,19.7,19.7,0,0,1,3.658-3.375,6.153,6.153,0,0,1,1.793-1.018" transform="translate(2287 2656)" fill="#1c262b"/>
    <path id="Path_370" data-name="Path 370" d="M-814.062,2213.618a1.838,1.838,0,0,1,.225.462,8.6,8.6,0,0,1,.466,1.4,11.874,11.874,0,0,1-.018,5.415,13.322,13.322,0,0,1-4.08,6.892,13.829,13.829,0,0,1-9.2,3.277,15.568,15.568,0,0,1-9.29-3.1,17.758,17.758,0,0,1-5.113-6.2,18.959,18.959,0,0,1-1.7-5.146,14.035,14.035,0,0,1-.18-1.462,1.84,1.84,0,0,1-.008-.515c.051-.005.113.7.387,1.938a20.487,20.487,0,0,0,1.831,5.017,17.785,17.785,0,0,0,5.072,5.979,15.262,15.262,0,0,0,9.005,2.969,13.492,13.492,0,0,0,8.882-3.117,13.129,13.129,0,0,0,4.037-6.617,12.272,12.272,0,0,0,.179-5.286c-.247-1.241-.555-1.885-.493-1.908" transform="translate(2287 2656)" fill="#1c262b"/>
    <g id="Group_366" data-name="Group 366" transform="translate(2287 2656)" opacity="0.3">
      <g id="Group_365" data-name="Group 365">
        <g id="Group_364" data-name="Group 364" clip-path="url(#clip-path-10)">
          <path id="Path_371" data-name="Path 371" d="M-810.564,2263.711c-.016-.5-.08-1.088-.514-1.338a.984.984,0,0,0-.906.015,2.542,2.542,0,0,0-.724.6,12.266,12.266,0,0,0-2.672,4.27l4.9-.422c-.032-1.034-.054-2.088-.086-3.122" fill="#040405"/>
        </g>
      </g>
    </g>
    <g id="Group_369" data-name="Group 369" transform="translate(2287 2656)" opacity="0.3">
      <g id="Group_368" data-name="Group 368">
        <g id="Group_367" data-name="Group 367" clip-path="url(#clip-path-11)">
          <path id="Path_372" data-name="Path 372" d="M-794.291,2253.4a16.049,16.049,0,0,0-3.554-7.595c2.112,6.921,1.4,10.825.217,15.564l.257-.663c1.361-2.769,3.455-4.5,3.08-7.306" fill="#040405"/>
        </g>
      </g>
    </g>
    <path id="Path_373" data-name="Path 373" d="M-804.082,2485.86l-2.991,44.854-19.5-.23-3.071-46.632Z" transform="translate(2287 2656)" fill="#f7ad8b"/>
    <path id="Path_374" data-name="Path 374" d="M-806.517,2524.809l0,1.3s21.981,8.847,22.212,13.019l-43.659-.255.678-14.526c6.474,3.045,13.266,3.423,20.765.465" transform="translate(2287 2656)" fill="#e03848"/>
    <path id="Path_375" data-name="Path 375" d="M-822.888,2529.015a1.782,1.782,0,0,0-1.244,2.027,1.713,1.713,0,0,0,2,1.252,1.882,1.882,0,0,0,1.307-2.154,1.78,1.78,0,0,0-2.224-1.071" transform="translate(2287 2656)" fill="#fff"/>
    <path id="Path_376" data-name="Path 376" d="M-827.96,2538.869l.163-3.494,41.785,1.524s1.94.858,1.711,2.226Z" transform="translate(2287 2656)" fill="#1c262b"/>
    <path id="Path_377" data-name="Path 377" d="M-806.361,2526.229c-.008.214-1.075.3-2.128.983-1.07.652-1.616,1.573-1.812,1.487-.2-.043.128-1.316,1.419-2.116s2.569-.549,2.521-.354" transform="translate(2287 2656)" fill="#1c262b"/>
    <path id="Path_378" data-name="Path 378" d="M-801.792,2528.15c.048.207-.878.564-1.607,1.462-.756.876-.945,1.85-1.157,1.839-.2.032-.34-1.217.588-2.316s2.172-1.188,2.176-.985" transform="translate(2287 2656)" fill="#1c262b"/>
    <path id="Path_379" data-name="Path 379" d="M-799.224,2533.646c-.194.044-.484-1.022.07-2.187s1.554-1.623,1.643-1.445c.12.176-.531.8-.972,1.762-.463.952-.529,1.85-.741,1.87" transform="translate(2287 2656)" fill="#1c262b"/>
    <path id="Path_380" data-name="Path 380" d="M-807.639,2157.854c1.125-2.8-.238-6.2-2.673-7.986a11.6,11.6,0,0,0-8.663-1.7,34.452,34.452,0,0,0-8.542,2.951,9.858,9.858,0,0,0-9.829-2.366,9.859,9.859,0,0,0-6.538,7.71,6.262,6.262,0,0,0-6.058,1.835,6.262,6.262,0,0,0-1.2,6.214l13.517,4.748,14.762,25.968a12.216,12.216,0,0,0,15.584-.221,12.216,12.216,0,0,0,1.8-15.482,10.145,10.145,0,0,0,2.074-2.564,10.352,10.352,0,0,0,4.777-6.4c1.285-5.709-3.19-12.025-9-12.706" transform="translate(2287 2656)" fill="#1c262b"/>
    <path id="Path_381" data-name="Path 381" d="M-816.586,2212c-.84-4.227-1.425-7.122-1.416-7.092,0,0,7.97-3.1,7.42-14.236-.273-5.536-2.385-14.264-4.344-21.35-1.764-6.378-7.709-13.41-14.007-11.378l-19.043,9.3c-1.913.617-2.248,2.414-1.8,4.373l.032.955,7.409,30.657,3.131,13.7a11.574,11.574,0,0,0,12.921,8.78A11.578,11.578,0,0,0-816.586,2212" transform="translate(2287 2656)" fill="#f7ad8b"/>
    <path id="Path_382" data-name="Path 382" d="M-815.052,2176.723a1.411,1.411,0,0,1-1.04,1.673,1.35,1.35,0,0,1-1.686-.946,1.415,1.415,0,0,1,1.039-1.675,1.353,1.353,0,0,1,1.687.948" transform="translate(2287 2656)" fill="#1c262b"/>
    <path id="Path_383" data-name="Path 383" d="M-815.873,2174.594c-.133.216-1.343-.339-2.828-.023-1.489.294-2.42,1.288-2.619,1.14-.1-.064.01-.426.412-.872a3.872,3.872,0,0,1,2.05-1.135,3.709,3.709,0,0,1,2.3.243c.532.255.754.548.687.647" transform="translate(2287 2656)" fill="#1c262b"/>
    <path id="Path_384" data-name="Path 384" d="M-829.522,2180.04a1.411,1.411,0,0,1-1.04,1.673,1.35,1.35,0,0,1-1.686-.946,1.415,1.415,0,0,1,1.039-1.675,1.352,1.352,0,0,1,1.687.948" transform="translate(2287 2656)" fill="#1c262b"/>
    <path id="Path_385" data-name="Path 385" d="M-830.25,2178.119c-.135.216-1.345-.338-2.83-.023-1.488.294-2.419,1.288-2.619,1.14-.1-.064.009-.426.413-.871a3.874,3.874,0,0,1,2.05-1.136,3.724,3.724,0,0,1,2.3.244c.529.254.753.548.687.646" transform="translate(2287 2656)" fill="#1c262b"/>
    <path id="Path_386" data-name="Path 386" d="M-822.721,2187.525a10.044,10.044,0,0,1,2.324-.942c.371-.12.715-.27.725-.542a1.983,1.983,0,0,0-.49-1.073q-.825-1.265-1.729-2.655c-2.423-3.789-4.262-6.937-4.108-7.033s2.242,2.9,4.664,6.685c.588.937,1.15,1.829,1.685,2.684a2.24,2.24,0,0,1,.51,1.448.972.972,0,0,1-.508.686,2.56,2.56,0,0,1-.626.225,9.921,9.921,0,0,1-2.447.517" transform="translate(2287 2656)" fill="#1c262b"/>
    <path id="Path_387" data-name="Path 387" d="M-818,2204.9a28,28,0,0,1-15.236-.822s5.235,6.841,15.806,3.571Z" transform="translate(2287 2656)" fill="#e88559"/>
    <path id="Path_388" data-name="Path 388" d="M-829.97,2176c-.1.428-1.628.417-3.371.846-1.752.394-3.115,1.086-3.4.747-.127-.164.076-.579.6-1.047a5.783,5.783,0,0,1,2.437-1.2,5.779,5.779,0,0,1,2.718-.011c.682.182,1.048.465,1.007.667" transform="translate(2287 2656)" fill="#1c262b"/>
    <path id="Path_389" data-name="Path 389" d="M-816.438,2169.865c-.238.4-1.523.306-2.984.6-1.469.245-2.644.791-3,.5-.161-.145-.037-.524.434-.957a4.8,4.8,0,0,1,2.306-1.061,4.724,4.724,0,0,1,2.517.18c.588.24.831.552.728.745" transform="translate(2287 2656)" fill="#1c262b"/>
    <path id="Path_390" data-name="Path 390" d="M-843.291,2160.078a7.642,7.642,0,0,0,3.82,5.135,7.645,7.645,0,0,0,6.391.342c1.584-.643,3.217-1.85,4.824-1.268,1.691.611,2.222,2.859,3.79,3.737,2.242,1.255,4.944-.919,7.5-.7,1.978.166,3.511,1.7,5.059,2.946s3.7,2.281,5.445,1.341a22.256,22.256,0,0,0-1.77-4.816,7.5,7.5,0,0,0-3.663-3.464c-.875-.343-1.834-.463-2.67-.892-1.805-.928-2.614-3.026-3.93-4.571a8.256,8.256,0,0,0-7-2.807c-2.166.223-4.219,1.313-6.394,1.22-1.607-.068-3.148-.782-4.756-.756-3.134.053-5.487,2.8-7.226,5.405" transform="translate(2287 2656)" fill="#1c262b"/>
    <path id="Path_391" data-name="Path 391" d="M-832.754,2162.366c-1.432-.106-4.378-.408-5.346-1.428a8.438,8.438,0,0,0-8.042-2.639,6.963,6.963,0,0,0-5.019,6.662,10.01,10.01,0,0,0-7.3,7.172,11.605,11.605,0,0,0,2.5,10.5,20.885,20.885,0,0,1,1.642,2.375,16.954,16.954,0,0,0-1.78,2.7c-2.285,5.06,3.918,7,3.918,7,.017,3.4,3.151,3.386,5.162,3.375,1.935-.01,3.124,5.352,4.689,5.144l-1.589-16.563a2.021,2.021,0,0,0,.732.133c3.791.069,2.8-7.1,1.575-8.958a21.461,21.461,0,0,0,2.84-4.576,15.5,15.5,0,0,0,.149-7.667c1.32-.194,6.5-3.182,5.871-3.23" transform="translate(2287 2656)" fill="#1c262b"/>
    <path id="Path_392" data-name="Path 392" d="M-843.356,2187.542a3.21,3.21,0,0,0-5.155-1.72c-.96.857-1.532,2.3-.927,4.712,1.615,6.438,7.744,3.489,7.71,3.3-.023-.116-.937-3.635-1.628-6.293" transform="translate(2287 2656)" fill="#f7ad8b"/>
    <path id="Path_393" data-name="Path 393" d="M-844.306,2191.89c-.034-.013-.093.107-.261.241a1.158,1.158,0,0,1-.834.228c-.742-.079-1.586-1.015-1.908-2.168a3.817,3.817,0,0,1-.089-1.684,1.337,1.337,0,0,1,.628-1.073.587.587,0,0,1,.738.142c.132.158.123.3.161.3.022.011.111-.143-.008-.4a.74.74,0,0,0-.355-.34.88.88,0,0,0-.661-.008,1.629,1.629,0,0,0-.921,1.292,3.916,3.916,0,0,0,.062,1.892c.366,1.286,1.335,2.334,2.333,2.369a1.234,1.234,0,0,0,.982-.427c.16-.209.157-.362.133-.368" transform="translate(2287 2656)" fill="#e88559"/>
    <path id="Path_394" data-name="Path 394" d="M-808.826,2178.55c-.04-.049.582-.449,1.4-1.454a9.445,9.445,0,0,0,2.01-5,9.21,9.21,0,0,0-.358-3.709,7.971,7.971,0,0,0-2.286-3.552,9.4,9.4,0,0,0-9.192-1.789c-.3.1-.58.247-.865.365-.274.143-.531.3-.786.447l-.4.223-.006-.441a3.245,3.245,0,0,0-.808-2.1,5.189,5.189,0,0,0-1.847-1.32,6.824,6.824,0,0,0-4.293-.313c-2.761.626-5.1,1.888-7.312,2.142a7.074,7.074,0,0,1-4.989-1,4.088,4.088,0,0,1-.978-1,1.852,1.852,0,0,1-.222-.432,5.823,5.823,0,0,0,1.311,1.272,7.048,7.048,0,0,0,4.83.81,17.39,17.39,0,0,0,3.357-.969,30.386,30.386,0,0,1,3.905-1.279,8.687,8.687,0,0,1,2.259-.227,6.955,6.955,0,0,1,2.33.537,5.626,5.626,0,0,1,2.038,1.448,3.76,3.76,0,0,1,.939,2.436l-.4-.217c.271-.155.546-.327.838-.479.3-.126.6-.286.921-.389a9.822,9.822,0,0,1,9.69,1.923,8.35,8.35,0,0,1,2.378,3.781,9.448,9.448,0,0,1,.311,3.876,9.344,9.344,0,0,1-2.22,5.091,6.688,6.688,0,0,1-1.116,1.035,2.014,2.014,0,0,1-.443.289" transform="translate(2287 2656)" fill="#354952"/>
    <path id="Path_395" data-name="Path 395" d="M-810.134,2155.944a7.18,7.18,0,0,0-2.072-.711,5.454,5.454,0,0,0-2.461.223,4.85,4.85,0,0,0-2.534,1.842l-.245.354-.151-.4a7.521,7.521,0,0,0-6.1-4.529,9.714,9.714,0,0,0-5.864,1.7,25.953,25.953,0,0,1-4.647,2.4,7.309,7.309,0,0,1-3.519.414,4.423,4.423,0,0,1-.933-.257c-.2-.088-.305-.141-.3-.158.016-.047.446.133,1.258.214a7.639,7.639,0,0,0,3.368-.559A28.063,28.063,0,0,0-829.8,2154a15.964,15.964,0,0,1,2.8-1.368,7.609,7.609,0,0,1,3.358-.43,7.886,7.886,0,0,1,6.465,4.886l-.4-.046a5.171,5.171,0,0,1,2.8-1.94,5.541,5.541,0,0,1,2.613-.131,4.71,4.71,0,0,1,1.568.6c.322.216.473.356.461.372" transform="translate(2287 2656)" fill="#354952"/>
    <path id="Path_396" data-name="Path 396" d="M-823.3,2190.481a2.178,2.178,0,0,0-1.757-.51,2.572,2.572,0,0,0-1.684,1.23.321.321,0,0,0-.026.038c-.016.028-.042.053-.055.082l.024-.017a1.23,1.23,0,0,0-.189.755,1.819,1.819,0,0,0,1.045,1.353,2.3,2.3,0,0,0,2.62-.38,1.875,1.875,0,0,0,.022-2.551" transform="translate(2287 2656)" fill="#e03848"/>
    <path id="Path_397" data-name="Path 397" d="M-822.8,2193.591c-.078.015-.176-.3-.442-.715a3.316,3.316,0,0,0-1.392-1.245,3.315,3.315,0,0,0-1.854-.232c-.491.074-.79.206-.83.138s.209-.311.742-.5a2.984,2.984,0,0,1,2.157.114,2.982,2.982,0,0,1,1.505,1.552c.21.521.176.876.114.883" transform="translate(2287 2656)" fill="#1c262b"/>
    <path id="Path_398" data-name="Path 398" d="M-843.208,2194.828c.049-.031.286.5-.089,1.258a2.034,2.034,0,0,1-1.066.964,2,2,0,0,1-1.763-.21,2,2,0,0,1-.952-1.5,2.036,2.036,0,0,1,.409-1.378c.522-.665,1.1-.68,1.1-.623.034.078-.439.227-.79.829a1.805,1.805,0,0,0-.238,1.12,1.6,1.6,0,0,0,.752,1.111,1.6,1.6,0,0,0,1.327.2,1.807,1.807,0,0,0,.908-.7c.39-.577.32-1.068.406-1.071" transform="translate(2287 2656)" fill="#e03848"/>
    <path id="Path_399" data-name="Path 399" d="M-846.584,2194.443c.056.026-.03.341-.466.554a1.266,1.266,0,0,1-.83.081,1.3,1.3,0,0,1-.818-.65,1.3,1.3,0,0,1-.1-1.041,1.257,1.257,0,0,1,.523-.651c.416-.248.726-.147.717-.086.006.077-.245.129-.494.378a.949.949,0,0,0-.191,1.152.949.949,0,0,0,1.068.47c.345-.072.526-.254.588-.207" transform="translate(2287 2656)" fill="#e03848"/>
    <path id="Path_400" data-name="Path 400" d="M-835.587,2283.254s24.759,1.436,39.394,1.57c11.336.1,16.388-2.907,18.655-10.19,1.9-6.115-2.186-17.841-2.186-17.841-7.665.039-12.4,1.095-17.329,3.407l1.315,5.362-39.92,3.442Z" transform="translate(2287 2656)" fill="#f7ad8b"/>
    <path id="Path_401" data-name="Path 401" d="M-787.416,2271.283a19.674,19.674,0,0,0-3.737-3.709,19.7,19.7,0,0,0-4.819-2.124,3.541,3.541,0,0,1,1.588.139,10.5,10.5,0,0,1,3.525,1.555,10.5,10.5,0,0,1,2.734,2.711,3.519,3.519,0,0,1,.709,1.428" transform="translate(2287 2656)" fill="#e88559"/>
    <path id="Path_402" data-name="Path 402" d="M-844.654,2260.164h0s-7.659,1.836-13.281,5.6l5.98,16.263c2,5.337,8.117,7.96,12.964,5.191,7.531-4.3,10.187-16.863,10.187-16.863l8.275-35.879-13.709-8.59-10.416,34.281" transform="translate(2287 2656)" fill="#f7ad8b"/>
    <path id="Path_403" data-name="Path 403" d="M-834.238,2225.884l.554-11.8-3.062-11.951c-.17-.662-.254-1.488.282-1.891a1.456,1.456,0,0,1,1.849.059c.838.856,4.836,11.353,4.836,11.353s6.066-3.646,7.149-3.824,2.433,3.087,2.518,3.345a19.011,19.011,0,0,1,.011,2.193s3.752.112,4.088.627a12.874,12.874,0,0,1,.432,3.183s1.587.509,1.843,1.713.767,3.181.019,3.616-2.329,1.3-2.329,1.3-.635,6.123-.8,6.679-3.682,3.986-3.682,3.986Z" transform="translate(2287 2656)" fill="#f7ad8b"/>
    <path id="Path_404" data-name="Path 404" d="M-846.989,2287.462c.016-.033.373.213,1.148.465a7.828,7.828,0,0,0,3.536.28,9.859,9.859,0,0,0,5.118-2.361,23.692,23.692,0,0,0,4.758-6.024,27.023,27.023,0,0,0,1.852-4.131,42.077,42.077,0,0,0,1.283-4.794c.785-3.37,1.631-7,2.53-10.853,1.8-7.714,3.822-16.338,6-25.627l.015-.069.052-.051c.689-.675,1.381-1.371,2.066-2.085.341-.357.682-.721,1.008-1.093a6.983,6.983,0,0,0,.454-.565c.118-.12.121-.362.168-.617.271-2,.482-4.071.7-6.154l.015-.133.116-.065,1.907-1.068c.145-.087.359-.191.449-.263a.556.556,0,0,0,.18-.335,3.193,3.193,0,0,0,.011-1.036,15.7,15.7,0,0,0-.443-2.174,2.687,2.687,0,0,0-1.592-1.285l-.173-.063-.008-.174c-.024-.579-.063-1.176-.128-1.768-.034-.3-.072-.595-.133-.878a1.781,1.781,0,0,0-.115-.371c-.032-.065-.017-.017-.062-.059a1.143,1.143,0,0,0-.168-.07,17.668,17.668,0,0,0-3.662-.413l-.261-.013.008-.257c.018-.617.045-1.306.017-1.954a2.082,2.082,0,0,0-.233-.67c-.107-.241-.223-.479-.344-.713a8.586,8.586,0,0,0-.817-1.321,2.235,2.235,0,0,0-.508-.5.487.487,0,0,0-.532-.06,12.816,12.816,0,0,0-1.41.646c-1.866.971-3.68,2.031-5.458,3.088l-.261.154-.111-.28q-1.421-3.552-2.8-7.011l-1.369-3.431a1.423,1.423,0,0,0-1.1-1.029,1.114,1.114,0,0,0-1.3.477,1.173,1.173,0,0,0-.152.712c.029.224.14.56.205.834q.227.865.452,1.722.451,1.716.893,3.4.885,3.368,1.733,6.6l.01.035,0,.035c-.2,4.107-.39,8.047-.571,11.8l0,.028-.008.025c-3.778,12.3-6.913,22.5-9.11,29.645-1.1,3.542-1.971,6.328-2.571,8.251q-.447,1.4-.691,2.164c-.16.489-.259.736-.259.736s.056-.26.194-.755q.225-.773.631-2.183c.573-1.931,1.4-4.728,2.457-8.285,2.155-7.162,5.229-17.379,8.935-29.7l-.01.053c.171-3.753.35-7.694.535-11.8l.008.071-1.749-6.6q-.445-1.681-.9-3.4-.228-.857-.456-1.722c-.072-.306-.162-.536-.219-.906a1.665,1.665,0,0,1,.216-1.018,1.55,1.55,0,0,1,.81-.682,1.935,1.935,0,0,1,1.033-.032,2.047,2.047,0,0,1,.916.466,2.026,2.026,0,0,1,.54.863q.681,1.7,1.374,3.43l2.806,7.01-.372-.126c1.787-1.063,3.6-2.123,5.487-3.108a13.081,13.081,0,0,1,1.484-.677,1.132,1.132,0,0,1,.5-.071,1.089,1.089,0,0,1,.474.189,2.706,2.706,0,0,1,.634.612,9.011,9.011,0,0,1,.872,1.405q.188.364.356.739a2.471,2.471,0,0,1,.277.849c.031.708,0,1.375-.016,2.008l-.252-.27a17.7,17.7,0,0,1,3.819.442,1.492,1.492,0,0,1,.258.112.64.64,0,0,1,.257.262,2.155,2.155,0,0,1,.166.506c.067.317.106.625.141.931.067.613.106,1.211.131,1.807l-.18-.237a3.157,3.157,0,0,1,1.91,1.58,14.969,14.969,0,0,1,.48,2.314,3.7,3.7,0,0,1-.024,1.216,1.064,1.064,0,0,1-.364.618,5.159,5.159,0,0,1-.51.3l-1.916,1.071.132-.2c-.225,2.09-.437,4.148-.715,6.175l-.063.388a1.014,1.014,0,0,1-.185.436,7.191,7.191,0,0,1-.493.614c-.337.383-.681.748-1.026,1.109-.693.719-1.387,1.414-2.081,2.093l.067-.12c-2.2,9.283-4.241,17.9-6.068,25.61l-2.579,10.841a42.355,42.355,0,0,1-1.323,4.822,27.178,27.178,0,0,1-1.9,4.17,23.752,23.752,0,0,1-4.868,6.052,9.957,9.957,0,0,1-5.254,2.344,7.687,7.687,0,0,1-3.583-.363,5.251,5.251,0,0,1-.851-.384,1.755,1.755,0,0,1-.271-.16" transform="translate(2287 2656)" fill="#e88559"/>
    <path id="Path_405" data-name="Path 405" d="M-820.1,2213.348c0,.073-.339.111-.866.136a9.942,9.942,0,0,0-1.993.236,3.937,3.937,0,0,0-1.7.906c-.366.341-.525.631-.6.6s-.019-.384.324-.845a3.362,3.362,0,0,1,1.841-1.165,5.789,5.789,0,0,1,2.137-.1c.536.069.857.162.853.232" transform="translate(2287 2656)" fill="#e88559"/>
    <path id="Path_406" data-name="Path 406" d="M-823.035,2213.458c-.136-.051-.145-.36-.021-.69s.333-.558.469-.507.143.359.019.69-.333.557-.467.507" transform="translate(2287 2656)" fill="#e88559"/>
    <path id="Path_407" data-name="Path 407" d="M-815.416,2217.089a9.38,9.38,0,0,1-2.968.411,2.026,2.026,0,0,0-1.651.795c-.265.408-.176.748-.252.769-.049.046-.319-.337-.077-.935a1.633,1.633,0,0,1,.715-.794,3.151,3.151,0,0,1,1.2-.352,8.4,8.4,0,0,1,3.03.106" transform="translate(2287 2656)" fill="#e88559"/>
    <path id="Path_408" data-name="Path 408" d="M-816.083,2220.687c.145.006.228.746.187,1.651s-.191,1.634-.334,1.628-.227-.746-.187-1.652.19-1.634.334-1.627" transform="translate(2287 2656)" fill="#e88559"/>
    <path id="Path_409" data-name="Path 409" d="M-811.926,2247.621l.889-3.066a.838.838,0,0,1,1.4-.353l1.16,1.184.725-2.883a.837.837,0,0,1,1.567-.158l1.637,3.414Z" transform="translate(2287 2656)" fill="#fff"/>
    <path id="Path_410" data-name="Path 410" d="M-804.531,2247.071a13.4,13.4,0,0,1-3.531,1.143,13.444,13.444,0,0,1-3.657.637,13.4,13.4,0,0,1,3.532-1.143,13.378,13.378,0,0,1,3.656-.637" transform="translate(2287 2656)" fill="#fff"/>
    <path id="Path_411" data-name="Path 411" d="M-864,2229.977c.024.021-.372.385-.889,1.188a10.176,10.176,0,0,0-1.355,3.776,27.228,27.228,0,0,0-.18,5.992c.11,2.263.293,4.748.57,7.348a128.694,128.694,0,0,0,2.11,13.22c.355,1.677.676,3.027.9,3.96.1.414.184.768.258,1.074.057.246.076.378.076.378s-.047-.124-.117-.367c-.084-.3-.182-.654-.3-1.065-.245-.927-.588-2.273-.962-3.948a117.144,117.144,0,0,1-2.174-13.23c-.277-2.6-.455-5.095-.554-7.362a26.775,26.775,0,0,1,.226-6.025,9.949,9.949,0,0,1,1.434-3.795,6,6,0,0,1,.956-1.144" transform="translate(2287 2656)" fill="#fff"/>
    <path id="Path_412" data-name="Path 412" d="M-842.954,2216.382a1.282,1.282,0,0,1-.226.123l-.66.314c-.571.273-1.4.675-2.39,1.224a86.429,86.429,0,0,0-7.515,4.7c-2.855,1.963-5.386,3.818-7.234,5.139l-2.2,1.555-.6.412a1.128,1.128,0,0,1-.22.132,1.227,1.227,0,0,1,.2-.166l.581-.444q.908-.675,2.157-1.608c1.826-1.351,4.344-3.226,7.2-5.192a75.105,75.105,0,0,1,7.564-4.654c1-.533,1.842-.917,2.426-1.167l.677-.28a1.106,1.106,0,0,1,.242-.084" transform="translate(2287 2656)" fill="#fff"/>
    <path id="Path_413" data-name="Path 413" d="M-795.263,2222.887a.845.845,0,0,1-.167-.126c-.144-.124-.292-.253-.45-.391a18.174,18.174,0,0,0-1.751-1.306,35.6,35.6,0,0,0-6.429-3.253,65.074,65.074,0,0,0-6.854-2.28c-.892-.248-1.619-.43-2.121-.554l-.578-.148a.785.785,0,0,1-.2-.065.838.838,0,0,1,.207.024l.588.11c.508.1,1.241.26,2.14.49a55.678,55.678,0,0,1,6.894,2.229,32.656,32.656,0,0,1,6.434,3.326,12.649,12.649,0,0,1,2.286,1.944" transform="translate(2287 2656)" fill="#fff"/>
    <path id="Path_414" data-name="Path 414" d="M-842.671,2299.22a1.415,1.415,0,0,1-.39-.134,6.668,6.668,0,0,1-.992-.531,4.822,4.822,0,0,1-2.175-2.945,5.765,5.765,0,0,1,.387-3.66,5.049,5.049,0,0,1,.579-.966,1.357,1.357,0,0,1,.278-.3,11.552,11.552,0,0,0-.721,1.331,5.919,5.919,0,0,0-.32,3.553,4.868,4.868,0,0,0,2.055,2.87c.768.534,1.317.751,1.3.787" transform="translate(2287 2656)" fill="#fff"/>
    <path id="Path_415" data-name="Path 415" d="M-845.854,2288.392a4.342,4.342,0,0,1,.476,1.255,4.328,4.328,0,0,1,.275,1.315,4.427,4.427,0,0,1-.476-1.256,4.4,4.4,0,0,1-.275-1.314" transform="translate(2287 2656)" fill="#fff"/>
    <path id="Path_416" data-name="Path 416" d="M-832.333,2512.6l30.5-.153-.554-105.458-.284-107.271-41.312-.513-7.427,14a50.294,50.294,0,0,0-5.714,18.147c-.52,4.846,3.111,20.65,4.38,24.672l11.371,36.06Z" transform="translate(2287 2656)" fill="#86748a"/>
    <path id="Path_417" data-name="Path 417" d="M-793.717,2299.861l33.517,91.371a42.155,42.155,0,0,1-4.132,35.7l-38.915,75.955-21.879-27.373,32.559-68.043-28.7-46.5,4.83-61.007,13.521-.218Z" transform="translate(2287 2656)" fill="#86748a"/>
    <path id="Path_418" data-name="Path 418" d="M-805.453,2330.471s.025.158.047.469c.021.333.051.79.086,1.377.066,1.235.161,3.015.284,5.3.223,4.626.544,11.276.94,19.486.38,8.235.83,18.029,1.332,28.9.244,5.441.5,11.15.767,17.069.19,2.959.1,5.975.139,9.035q.012,4.589.029,9.305c.041,25.132.079,47.88.106,64.373-.01,8.218-.019,14.877-.026,19.507-.015,2.284-.026,4.067-.034,5.3-.009.588-.016,1.046-.022,1.379-.006.31-.024.47-.024.47s-.02-.159-.029-.47c-.007-.333-.017-.791-.03-1.379-.014-1.237-.036-3.02-.064-5.3-.032-4.63-.079-11.288-.139-19.5-.065-16.491-.158-39.237-.259-64.365q-.014-4.712-.026-9.306c-.034-3.058.056-6.075-.131-9.033-.256-5.918-.5-11.628-.736-17.067-.46-10.874-.873-20.669-1.219-28.9-.328-8.211-.594-14.865-.778-19.491-.079-2.283-.142-4.064-.184-5.3-.015-.589-.027-1.047-.036-1.38-.005-.311.007-.471.007-.471" transform="translate(2287 2656)" fill="#354952"/>
    <path id="Path_419" data-name="Path 419" d="M-806.217,2301.664a3.831,3.831,0,0,1,.212.993c.1.643.227,1.577.36,2.734.268,2.313.548,5.52.709,9.07s.169,6.771.112,9.1c-.03,1.164-.069,2.1-.114,2.755a3.805,3.805,0,0,1-.122,1.009,31.313,31.313,0,0,1-.133-3.765c-.037-2.324-.1-5.533-.262-9.074s-.383-6.742-.556-9.059a30.967,30.967,0,0,1-.206-3.762" transform="translate(2287 2656)" fill="#354952"/>
    <path id="Path_420" data-name="Path 420" d="M-812.939,2303.723a2.438,2.438,0,0,0-.677,1.14,1.3,1.3,0,0,0,.389,1.218,1.436,1.436,0,0,0,1.5.274,1.435,1.435,0,0,0,.772-1.315,1.293,1.293,0,0,0-.669-1.089,2.439,2.439,0,0,0-1.3-.233c-.015-.027.095-.132.353-.207a1.649,1.649,0,0,1,1.121.113,1.65,1.65,0,0,1,.979,1.391,1.876,1.876,0,0,1-1.035,1.814,1.876,1.876,0,0,1-2.049-.4,1.65,1.65,0,0,1-.415-1.65,1.652,1.652,0,0,1,.647-.923c.226-.146.377-.16.388-.132" transform="translate(2287 2656)" fill="#354952"/>
    <path id="Path_421" data-name="Path 421" d="M-828.942,2301.91a3.075,3.075,0,0,1,.274.957,9.47,9.47,0,0,1,.088,2.719,10.918,10.918,0,0,1-1.154,3.874,10.672,10.672,0,0,1-3.208,3.778,10.682,10.682,0,0,1-4.606,1.832,10.918,10.918,0,0,1-4.04-.146,9.52,9.52,0,0,1-2.547-.953,3.016,3.016,0,0,1-.819-.565,17.481,17.481,0,0,0,3.439,1.158,11.006,11.006,0,0,0,8.269-1.749,10.993,10.993,0,0,0,4.3-7.275,17.335,17.335,0,0,0,0-3.63" transform="translate(2287 2656)" fill="#354952"/>
    <path id="Path_422" data-name="Path 422" d="M-789.7,2310.665a4.06,4.06,0,0,1-1.922-.228,8.794,8.794,0,0,1-3.936-2.517,8.8,8.8,0,0,1-2.126-4.161,4.046,4.046,0,0,1-.041-1.934c.092,0,.1.735.4,1.85a9.715,9.715,0,0,0,2.152,3.9,9.723,9.723,0,0,0,3.669,2.519c1.081.408,1.813.484,1.8.576" transform="translate(2287 2656)" fill="#354952"/>
    <path id="Path_423" data-name="Path 423" d="M-777.791,2409.172a6.331,6.331,0,0,1-1.768,1.406,8.147,8.147,0,0,1-2.275.994,5.475,5.475,0,0,1-3.07-.082,8.923,8.923,0,0,1-4.272-3.4,8,8,0,0,1-1.173-1.924,12.352,12.352,0,0,1,1.462,1.7,9.459,9.459,0,0,0,4.142,3.131,6.406,6.406,0,0,0,5-.736,20.659,20.659,0,0,1,1.95-1.086" transform="translate(2287 2656)" fill="#354952"/>
    <path id="Path_424" data-name="Path 424" d="M-785.426,2415.008a25.076,25.076,0,0,1-3.156-3.989,25.023,25.023,0,0,1-2.734-4.292,24.921,24.921,0,0,1,3.158,3.99,25.008,25.008,0,0,1,2.732,4.291" transform="translate(2287 2656)" fill="#354952"/>
    <path id="Path_425" data-name="Path 425" d="M-836.675,2334.018c-.133.054-.489-.522-.795-1.286s-.444-1.426-.311-1.48.489.523.794,1.287.446,1.426.312,1.479" transform="translate(2287 2656)" fill="#fafafa"/>
    <path id="Path_426" data-name="Path 426" d="M-817.312,2336.785c-.145,0-.261-.5-.261-1.106s.116-1.107.261-1.107.26.495.26,1.107-.116,1.106-.26,1.106" transform="translate(2287 2656)" fill="#fafafa"/>
    <path id="Path_427" data-name="Path 427" d="M-825.269,2347.3c-.144.01-.3-.6-.354-1.365s.023-1.391.167-1.4.3.6.353,1.366-.022,1.39-.166,1.4" transform="translate(2287 2656)" fill="#fafafa"/>
    <path id="Path_428" data-name="Path 428" d="M-839.81,2355.04c-.118.088-.531-.28-1.066-.665s-1.009-.67-.962-.811.662-.053,1.267.39.876,1.007.761,1.086" transform="translate(2287 2656)" fill="#fafafa"/>
    <path id="Path_429" data-name="Path 429" d="M-814.177,2364.814c-.12-.08.031-.516.336-.974s.65-.765.77-.685-.031.515-.336.973-.651.766-.77.686" transform="translate(2287 2656)" fill="#fafafa"/>
    <path id="Path_430" data-name="Path 430" d="M-830.036,2367.58c-.145,0-.261-.826-.261-1.845s.116-1.843.261-1.843.26.825.26,1.843-.116,1.845-.26,1.845" transform="translate(2287 2656)" fill="#fafafa"/>
    <path id="Path_431" data-name="Path 431" d="M-835.176,2378.8c-.085.116-.607-.119-1.168-.526s-.946-.831-.861-.949.606.12,1.167.527.946.832.862.948" transform="translate(2287 2656)" fill="#fafafa"/>
    <path id="Path_432" data-name="Path 432" d="M-819.157,2382.7c.059.131-.266.4-.724.606s-.877.263-.935.131.265-.4.723-.606.877-.263.936-.131" transform="translate(2287 2656)" fill="#fafafa"/>
    <path id="Path_433" data-name="Path 433" d="M-830.036,2400.957c-.129.064-.647-.709-1.155-1.728s-.819-1.9-.69-1.96.646.709,1.156,1.728.817,1.9.689,1.96" transform="translate(2287 2656)" fill="#fafafa"/>
    <path id="Path_434" data-name="Path 434" d="M-812.333,2399.3c-.127-.068.1-.742.508-1.506s.841-1.328.968-1.261-.1.743-.508,1.506-.841,1.328-.968,1.261" transform="translate(2287 2656)" fill="#fafafa"/>
    <path id="Path_435" data-name="Path 435" d="M-820.078,2414.787c-.147-.021-.137-.811-.289-1.749s-.4-1.688-.265-1.754.618.64.779,1.673-.09,1.858-.225,1.83" transform="translate(2287 2656)" fill="#fafafa"/>
    <path id="Path_436" data-name="Path 436" d="M-828.376,2423.639c-.106.1-.605-.278-1.115-.839s-.835-1.093-.73-1.189.606.279,1.116.84.835,1.091.729,1.188" transform="translate(2287 2656)" fill="#fafafa"/>
    <path id="Path_437" data-name="Path 437" d="M-808.236,2427c-.1-.1.265-.64.82-1.2s1.09-.941,1.193-.84-.265.641-.822,1.2-1.088.94-1.191.839" transform="translate(2287 2656)" fill="#fafafa"/>
    <path id="Path_438" data-name="Path 438" d="M-819.82,2440.247c-.143-.021-.145-.784-.005-1.7s.367-1.647.51-1.625.144.784.005,1.7-.368,1.645-.51,1.624" transform="translate(2287 2656)" fill="#fafafa"/>
    <path id="Path_439" data-name="Path 439" d="M-827.615,2446.676c-.124.072-.562-.443-.977-1.151s-.65-1.342-.526-1.414.562.442.977,1.151.65,1.342.526,1.414" transform="translate(2287 2656)" fill="#fafafa"/>
    <path id="Path_440" data-name="Path 440" d="M-808.837,2454.793c.084.117-.426.625-1.139,1.135s-1.357.829-1.441.712.426-.625,1.139-1.135,1.357-.829,1.441-.712" transform="translate(2287 2656)" fill="#fafafa"/>
    <path id="Path_441" data-name="Path 441" d="M-824.477,2465.325c-.14-.051.039-.856.122-1.852s.058-1.818.2-1.843.412.816.315,1.889-.512,1.859-.641,1.806" transform="translate(2287 2656)" fill="#fafafa"/>
    <path id="Path_442" data-name="Path 442" d="M-818.234,2480.437c-.112.09-.534-.251-.941-.76s-.647-1-.535-1.085.534.25.941.76.646.995.535,1.085" transform="translate(2287 2656)" fill="#fafafa"/>
    <path id="Path_443" data-name="Path 443" d="M-825.057,2490.578c-.119.082-.669-.513-1.229-1.327s-.918-1.541-.8-1.623.668.512,1.228,1.328.918,1.541.8,1.622" transform="translate(2287 2656)" fill="#fafafa"/>
    <path id="Path_444" data-name="Path 444" d="M-806.247,2477.855c-.135-.051-.12-.422.032-.829s.386-.7.521-.647.12.422-.033.83-.386.7-.52.646" transform="translate(2287 2656)" fill="#fafafa"/>
    <path id="Path_445" data-name="Path 445" d="M-814.546,2502.012c-.132-.069.119-.781.313-1.672s.276-1.641.424-1.647.3.792.084,1.76-.7,1.628-.821,1.559" transform="translate(2287 2656)" fill="#fafafa"/>
    <path id="Path_446" data-name="Path 446" d="M-809.154,2347.458c-.13.062-.447-.341-.708-.9s-.366-1.059-.236-1.12.447.341.708.9.367,1.058.236,1.119" transform="translate(2287 2656)" fill="#fafafa"/>
    <path id="Path_447" data-name="Path 447" d="M-823.029,2316.315c.079.126-.625.689-1.368,1.489s-1.267,1.532-1.4,1.461.215-.965,1.019-1.817,1.681-1.254,1.748-1.133" transform="translate(2287 2656)" fill="#fafafa"/>
    <path id="Path_448" data-name="Path 448" d="M-810.673,2315.946c-.146.03-.381-.564-.728-1.25s-.673-1.233-.563-1.332.652.341,1.029,1.1.4,1.46.262,1.483" transform="translate(2287 2656)" fill="#fafafa"/>
    <path id="Path_449" data-name="Path 449" d="M-849.167,2326.107c-.134-.053,0-.716.306-1.481s.656-1.342.79-1.29,0,.716-.306,1.481-.656,1.343-.79,1.29" transform="translate(2287 2656)" fill="#fafafa"/>
    <path id="Path_450" data-name="Path 450" d="M-847.923,2341.21c-.093.11-.662-.213-1.273-.723s-1.033-1.01-.94-1.122.661.213,1.273.723,1.032,1.012.94,1.122" transform="translate(2287 2656)" fill="#fafafa"/>
    <path id="Path_451" data-name="Path 451" d="M-822.659,2304.329c-.134.053-.407-.316-.612-.825s-.259-.966-.126-1.019.406.316.609.825.262.965.129,1.019" transform="translate(2287 2656)" fill="#fafafa"/>
    <path id="Path_452" data-name="Path 452" d="M-798.471,2311.712c-.141-.031-.128-.633.027-1.345s.4-1.265.537-1.234.128.633-.028,1.346-.4,1.264-.536,1.233" transform="translate(2287 2656)" fill="#fafafa"/>
    <path id="Path_453" data-name="Path 453" d="M-792.786,2323.138c-.134-.055.048-.8.4-1.667s.753-1.522.886-1.468-.048.8-.4,1.667-.754,1.523-.886,1.468" transform="translate(2287 2656)" fill="#fafafa"/>
    <path id="Path_454" data-name="Path 454" d="M-796.843,2332.359c-.129.064-.6-.627-1.062-1.543s-.726-1.712-.6-1.776.6.626,1.063,1.543.726,1.712.6,1.776" transform="translate(2287 2656)" fill="#fafafa"/>
    <path id="Path_455" data-name="Path 455" d="M-788.176,2341.578c-.134-.052-.036-.63.218-1.292s.57-1.156.7-1.1.037.629-.218,1.292-.57,1.156-.7,1.1" transform="translate(2287 2656)" fill="#fafafa"/>
    <path id="Path_456" data-name="Path 456" d="M-795.921,2350.615c-.122.076-.427-.192-.682-.6s-.362-.8-.24-.876.427.193.682.6.362.8.24.875" transform="translate(2287 2656)" fill="#fafafa"/>
    <path id="Path_457" data-name="Path 457" d="M-794.268,2369.245c-.1.1-.728-.4-1.39-1.113s-1.113-1.37-1.007-1.468.727.4,1.389,1.113,1.113,1.37,1.008,1.468" transform="translate(2287 2656)" fill="#fafafa"/>
    <path id="Path_458" data-name="Path 458" d="M-784.12,2358.544c-.112.089-.658-.417-1.219-1.13s-.923-1.363-.809-1.452.659.417,1.218,1.13.923,1.363.81,1.452" transform="translate(2287 2656)" fill="#fafafa"/>
    <path id="Path_459" data-name="Path 459" d="M-778.551,2373.314c-.13-.062.1-.812.507-1.677s.847-1.515.977-1.454-.1.813-.506,1.677-.848,1.516-.978,1.454" transform="translate(2287 2656)" fill="#fafafa"/>
    <path id="Path_460" data-name="Path 460" d="M-790.389,2385.467c-.127.077-.592-.479-1.235-1.066s-1.229-1.014-1.162-1.147.814.112,1.515.764,1,1.383.882,1.449" transform="translate(2287 2656)" fill="#fafafa"/>
    <path id="Path_461" data-name="Path 461" d="M-789.652,2398.007c0,.144-.495.26-1.106.26s-1.107-.116-1.107-.26.5-.261,1.107-.261,1.106.117,1.106.261" transform="translate(2287 2656)" fill="#fafafa"/>
    <path id="Path_462" data-name="Path 462" d="M-777.481,2394.5c-.126-.078.131-.7.322-1.486s.268-1.454.416-1.464.311.715.09,1.59-.713,1.439-.828,1.36" transform="translate(2287 2656)" fill="#fafafa"/>
    <path id="Path_463" data-name="Path 463" d="M-765.389,2398.707c-.136.048-.505-.652-.824-1.563s-.47-1.69-.334-1.738.505.653.825,1.565.469,1.689.333,1.736" transform="translate(2287 2656)" fill="#fafafa"/>
    <path id="Path_464" data-name="Path 464" d="M-767.316,2415.907c-.127-.067.182-.906.688-1.874s1.023-1.7,1.151-1.633-.182.905-.689,1.874-1.022,1.7-1.15,1.633" transform="translate(2287 2656)" fill="#fafafa"/>
    <path id="Path_465" data-name="Path 465" d="M-778.351,2426.015c-.133.055-.543-.638-.917-1.548s-.568-1.69-.436-1.746.544.639.917,1.549.57,1.69.436,1.745" transform="translate(2287 2656)" fill="#fafafa"/>
    <path id="Path_466" data-name="Path 466" d="M-790.574,2429.91c0,.144-.413.26-.922.26s-.922-.116-.922-.26.413-.261.922-.261.922.116.922.261" transform="translate(2287 2656)" fill="#fafafa"/>
    <path id="Path_467" data-name="Path 467" d="M-783.566,2445.952c-.139.038-.417-.551-.62-1.314s-.257-1.414-.117-1.451.416.552.62,1.316.256,1.413.117,1.449" transform="translate(2287 2656)" fill="#fafafa"/>
    <path id="Path_468" data-name="Path 468" d="M-792.417,2440.6c-.123-.074.024-.547.33-1.056s.653-.862.776-.788-.024.546-.33,1.056-.653.862-.776.788" transform="translate(2287 2656)" fill="#fafafa"/>
    <path id="Path_469" data-name="Path 469" d="M-792.6,2458.308c-.143.017-.341-.672-.443-1.537s-.069-1.581.074-1.6.342.671.443,1.537.069,1.581-.074,1.6" transform="translate(2287 2656)" fill="#fafafa"/>
    <rect id="Rectangle_89" data-name="Rectangle 89" width="500" height="500" transform="translate(1107 4732)" fill="none"/>
    <rect id="Rectangle_90" data-name="Rectangle 90" width="500" height="500" transform="translate(1107 4732)" fill="none"/>
    <rect id="Rectangle_91" data-name="Rectangle 91" width="500" height="500" transform="translate(1107 4732)" fill="none"/>
  </g>
</svg>
