<?xml version="1.0" encoding="utf-8"?>
<svg viewBox="0 0 1601 2306" xmlns="http://www.w3.org/2000/svg">
  <defs>
    <linearGradient id="linear-gradient" y1="0.5" x2="1" y2="0.5" gradientUnits="objectBoundingBox">
      <stop offset="0" stop-color="#b636ff"/>
      <stop offset="1" stop-color="#ff6ed4"/>
    </linearGradient>
    <linearGradient id="linear-gradient-2" y1="0.5" x2="1" y2="0.5" gradientUnits="objectBoundingBox">
      <stop offset="0" stop-color="#58595b"/>
      <stop offset="1" stop-color="#323232"/>
    </linearGradient>
  </defs>
  <g id="Group_381" data-name="Group 381" transform="matrix(1, 0, 0, 1, -119, -1940)">
    <g id="Ellipse_61" data-name="Ellipse 61" transform="translate(960 1940)" fill="#ffb000" stroke="#707070" stroke-width="1" opacity="0.13">
      <circle cx="170" cy="170" r="170" stroke="none"/>
      <circle cx="170" cy="170" r="169.5" fill="none"/>
    </g>
    <g id="Ellipse_62" data-name="Ellipse 62" transform="translate(922 3906)" fill="#ffb000" stroke="#707070" stroke-width="1" opacity="0.13">
      <circle cx="170" cy="170" r="170" stroke="none"/>
      <circle cx="170" cy="170" r="169.5" fill="none"/>
    </g>
    <text id="INITIAL_IDEA" data-name="INITIAL IDEA" transform="translate(1250 2052)" fill="#fff" font-size="32" font-family="Poppins-Bold, Poppins" font-weight="700" style="white-space: pre;"><tspan x="0" y="0">INITIAL IDEA</tspan></text>
    <text id="PROJECT_STARTED" data-name="PROJECT STARTED" transform="translate(737 2291)" fill="#fff" font-size="32" font-family="Poppins-Bold, Poppins" font-weight="700" style="white-space: pre;"><tspan x="0" y="0">PROJECT STARTED</tspan></text>
    <text id="ALPHA_TESTNET_SMART_CONTRACTS" data-name="ALPHA TESTNET SMART CONTRACTS" transform="translate(246 2418)" fill="#fff" font-size="32" font-family="Poppins-Bold, Poppins" font-weight="700" style="white-space: pre;"><tspan x="0" y="0">TEAM OF 5</tspan></text>
    <text id="TEAM_OF_5" data-name="TEAM OF 5" transform="translate(123 2799)" fill="#fff" font-size="32" font-family="Poppins-Bold, Poppins" font-weight="700" style="white-space: pre;"><tspan x="0" y="0">ALPHA FE RUNNING</tspan></text>
    <text id="ALPHA_FE_RUNNING" data-name="ALPHA FE RUNNING" transform="translate(542 2957)" fill="#fff" font-size="32" font-family="Poppins-Bold, Poppins" font-weight="700" style="white-space: pre;"><tspan x="0" y="0">STARTED AUDIT</tspan></text>
    <text id="ML_BASED_FEES_FOR_OPTIONS" data-name="ML BASED FEES FOR &#10;OPTIONS" transform="translate(326 3604)" fill="#fff" font-size="32" font-family="Poppins-Bold, Poppins" font-weight="700" style="white-space: pre;"><tspan x="-156" y="0">BASIC LEVERAGE</tspan></text>
    <text id="SIMPLE_LEVERAGE" data-name="SIMPLE LEVERAGE" transform="translate(1000 4123)" fill="#fff" font-size="32" font-family="Poppins-Bold, Poppins" font-weight="700" style="white-space: pre;"><tspan x="-138" y="0">ETHEREUM ECOSYSTEM WIDE</tspan></text>
    <text id="BETA" transform="translate(1304 3064)" fill="#fff" font-size="32" font-family="Poppins-Bold, Poppins" font-weight="700" style="white-space: pre;"><tspan x="0" y="0">MAINNET LAUNCH</tspan></text>
    <text id="OPTIONS_FOR_NFTS_AND_GAME_COMMODITY_PORTFOLIOS" data-name="OPTIONS FOR NFTS AND GAME COMMODITY PORTFOLIOS" transform="translate(900 3604)" fill="#fff" font-size="32" font-family="Poppins-Bold, Poppins" font-weight="700" style="white-space: pre;"><tspan x="-80" y="0">HEDGING AGAINST IMPERMANENT LOSS</tspan></text>
    <text id="RAISING_CAPITAL" data-name="RAISING CAPITAL" transform="translate(716 2647)" fill="#fff" font-size="32" font-family="Poppins-Bold, Poppins" font-weight="700" style="white-space: pre;"><tspan x="0" y="0">ALPHA TESTNET SMART CONTRACTS</tspan></text>
    <text id="Q1_2020" data-name="Q1 2020" transform="translate(1279 2106)" fill="#fff" font-size="32" font-family="Poppins-Medium, Poppins" font-weight="500" style="white-space: pre;"><tspan x="0" y="0">Q1 2020</tspan></text>
    <text id="Apr_2022" data-name="Apr 2022" transform="translate(814 2345)" fill="#fff" font-size="32" font-family="Poppins-Medium, Poppins" font-weight="500" style="white-space: pre;"><tspan x="0" y="0">Apr 2022</tspan></text>
    <text id="Oct_2022" data-name="Oct 2022" transform="translate(275 2470)" fill="#fff" font-size="32" font-family="Poppins-Medium, Poppins" font-weight="500" style="white-space: pre;"><tspan x="0" y="0">Oct 2022</tspan></text>
    <text id="Oct_2022-2" data-name="Oct 2022" transform="translate(246 2851)" fill="#fff" font-size="32" font-family="Poppins-Medium, Poppins" font-weight="500" style="white-space: pre;"><tspan x="0" y="0">Nov 2022</tspan></text>
    <text id="Nov_2022" data-name="Nov 2022" transform="translate(624 3009)" fill="#fff" font-size="32" font-family="Poppins-Medium, Poppins" font-weight="500" style="white-space: pre;"><tspan x="0" y="0">Q1 2023</tspan></text>
    <text id="Mar_2023" data-name="Mar 2023" transform="translate(262 3658)" fill="#fff" font-size="32" font-family="Poppins-Medium, Poppins" font-weight="500" style="white-space: pre;"><tspan x="0" y="0">Q3 2023</tspan></text>
    <text id="Mar_2023-2" data-name="Mar 2023" transform="translate(1019 4182)" fill="#fff" font-size="32" font-family="Poppins-Medium, Poppins" font-weight="500" style="white-space: pre;"><tspan x="0" y="0">Q4 2023</tspan></text>
    <text id="Dec_2022" data-name="Dec 2022" transform="translate(1417 3116)" fill="#fff" font-size="32" font-family="Poppins-Medium, Poppins" font-weight="500" style="white-space: pre;"><tspan x="0" y="0">Apr 2023</tspan></text>
    <text id="Q1_2023" data-name="Q1 2023" transform="translate(1088 3656)" fill="#fff" font-size="32" font-family="Poppins-Medium, Poppins" font-weight="500" style="white-space: pre;"><tspan x="0" y="0">Q3 2023</tspan></text>
    <text id="May-Sep_2022" data-name="May-Sep 2022" transform="translate(937 2704)" fill="#fff" font-size="32" font-family="Poppins-Medium, Poppins" font-weight="500" style="white-space: pre;"><tspan x="0" y="0">Oct 2022</tspan></text>
    <g id="Group_380" data-name="Group 380">
      <g id="Group_55" data-name="Group 55" transform="translate(399.398 2044.7)">
        <g id="Group_49" data-name="Group 49" transform="translate(0)">
          <path id="Path_21" data-name="Path 21" d="M853.012,1999.8H733.024V1845.451a81.928,81.928,0,0,0-81.832-81.832H364.737c-111.289,0-201.82-90.531-201.82-201.82v-1.536c0-111.285,90.531-201.82,201.82-201.82H933.152a81.928,81.928,0,0,0,81.832-81.832v-54.071a81.928,81.928,0,0,0-81.832-81.832H784.867c-111.289,0-201.82-90.539-201.82-201.82V889.823a81.925,81.925,0,0,0-81.832-81.832H304.695c-111.285,0-201.82-90.539-201.82-201.82v-1.54c0-111.285,90.535-201.82,201.82-201.82h384.29a81.925,81.925,0,0,0,81.832-81.832V0H890.8V320.98c0,111.285-90.539,201.82-201.82,201.82H304.695a81.925,81.925,0,0,0-81.832,81.832v1.54A81.928,81.928,0,0,0,304.695,688h196.52c111.281,0,201.82,90.535,201.82,201.82V938.89a81.923,81.923,0,0,0,81.832,81.832H933.152c111.281,0,201.82,90.539,201.82,201.82v54.071c0,111.281-90.539,201.82-201.82,201.82H364.737a81.923,81.923,0,0,0-81.832,81.832v1.536a81.923,81.923,0,0,0,81.832,81.832H651.192c111.285,0,201.82,90.539,201.82,201.82Z" transform="translate(-102.875)" fill="url(#linear-gradient)"/>
        </g>
        <g id="Group_50" data-name="Group 50" transform="translate(11.999)">
          <path id="Path_22" data-name="Path 22" d="M832.014,1999.8h-95.99V1845.451a93.941,93.941,0,0,0-93.831-93.831H355.738c-104.67,0-189.821-85.151-189.821-189.821v-1.536c0-104.67,85.152-189.821,189.821-189.821H924.153a93.941,93.941,0,0,0,93.831-93.831v-54.071a93.941,93.941,0,0,0-93.831-93.83H775.868c-104.67,0-189.821-85.152-189.821-189.821V889.823a93.939,93.939,0,0,0-93.831-93.831H295.7c-104.67,0-189.821-85.155-189.821-189.821v-1.54c0-104.67,85.152-189.821,189.821-189.821h384.29a93.939,93.939,0,0,0,93.831-93.831V0h95.99V320.98c0,104.665-85.151,189.821-189.821,189.821H295.7a93.936,93.936,0,0,0-93.831,93.831v1.54A93.936,93.936,0,0,0,295.7,700h196.52c104.669,0,189.821,85.151,189.821,189.821V938.89a93.936,93.936,0,0,0,93.831,93.831H924.153c104.67,0,189.821,85.151,189.821,189.821v54.071c0,104.67-85.151,189.821-189.821,189.821H355.738a93.936,93.936,0,0,0-93.831,93.831v1.536a93.936,93.936,0,0,0,93.831,93.831H642.193c104.67,0,189.821,85.151,189.821,189.821Z" transform="translate(-105.875)" fill="url(#linear-gradient-2)"/>
        </g>
        <g id="Group_54" data-name="Group 54" transform="translate(57.994)">
          <g id="Group_51" data-name="Group 51" transform="translate(667.941)">
            <rect id="Rectangle_2" data-name="Rectangle 2" width="4" height="5.999" fill="#fff"/>
          </g>
          <g id="Group_52" data-name="Group 52" transform="translate(0 29.997)">
            <path id="Path_23" data-name="Path 23" d="M751.524,1945.866h-4v-11.995h4Zm0-35.992h-4v-12h4Zm0-35.992h-4v-12h4Zm0-36h-4v-12h4Zm-5.531-35.612c-.6-3.908-1.352-7.815-2.256-11.6l3.892-.932c.928,3.9,1.712,7.915,2.316,11.935Zm-9.683-34.029c-1.544-3.6-3.26-7.187-5.107-10.655l3.528-1.88c1.9,3.564,3.668,7.255,5.26,10.959Zm-17.938-30.489c-2.4-3.1-4.963-6.147-7.619-9.043l2.956-2.7c2.724,2.984,5.359,6.111,7.827,9.3Zm-24.977-25.082c-3.08-2.408-6.319-4.723-9.619-6.879l2.188-3.352c3.4,2.224,6.723,4.6,9.895,7.075Zm-30.417-18.082c-3.616-1.572-7.331-3-11.043-4.248l1.276-3.788c3.816,1.28,7.639,2.748,11.359,4.364Zm-33.993-9.835c-3.891-.6-7.843-1.036-11.751-1.3l.276-3.992c4.02.276,8.083.728,12.083,1.344Zm-35.592-1.628h-12v-4h12Zm-35.992,0h-12v-4h12Zm-36,0h-12v-4h12Zm-35.992,0h-12v-4h12Zm-36,0h-12v-4h12Zm-35.992,0h-12v-4h12Zm-36,0h-12v-4h12Zm-36,0h-12v-4h12Zm-36.176-.884c-4-.448-8.043-1.076-12.015-1.868l.78-3.924c3.86.772,7.787,1.38,11.679,1.812ZM269.9,1673.6c-3.76-1.448-7.507-3.076-11.147-4.852l1.748-3.592c3.54,1.72,7.183,3.3,10.835,4.712Zm-32.017-17.266c-3.268-2.336-6.491-4.855-9.587-7.487l2.6-3.048c3.008,2.56,6.143,5.008,9.319,7.275Zm-26.717-24.725c-2.6-3.088-5.1-6.331-7.427-9.623l3.264-2.312c2.272,3.208,4.7,6.359,7.227,9.367Zm-19.742-30.581c-1.74-3.632-3.348-7.4-4.788-11.187l3.744-1.412c1.4,3.68,2.96,7.335,4.651,10.871ZM180,1566.452c-.76-3.944-1.364-7.991-1.788-12.023l3.976-.424c.416,3.924,1,7.855,1.744,11.691Zm1.608-36.088-4-.212c.212-4.036.6-8.107,1.16-12.107l3.96.556C182.192,1522.48,181.813,1526.44,181.609,1530.364Zm6.351-34.8-3.812-1.212c1.224-3.832,2.628-7.671,4.184-11.411l3.7,1.528C190.516,1488.112,189.148,1491.843,187.96,1495.567Zm14.951-32.057-3.384-2.132c2.14-3.4,4.468-6.764,6.915-10l3.192,2.4C207.254,1456.943,204.99,1460.21,202.91,1463.51Zm22.486-27.325-2.744-2.9c2.94-2.776,6.027-5.459,9.183-7.975l2.492,3.128C231.26,1430.881,228.256,1433.489,225.4,1436.185Zm28.581-20.89-1.936-3.5c3.536-1.956,7.2-3.784,10.887-5.432l1.632,3.648C260.973,1411.619,257.413,1413.4,253.977,1415.3Zm32.9-13.055-.992-3.875c3.912-1,7.915-1.84,11.9-2.5l.656,3.944C294.565,1400.453,290.674,1401.268,286.874,1402.24Zm587.029-4.3H861.909v-4H873.9Zm-35.992,0h-12v-4h12Zm-36,0H789.92v-4h11.995Zm-35.992,0h-12v-4h12Zm-36,0H717.931v-4h11.995Zm-35.992,0h-12v-4h12Zm-36,0H645.942v-4h11.995Zm-35.992,0h-12v-4h12Zm-35.992,0h-12v-4h12Zm-36,0h-12v-4h12Zm-35.992,0h-12v-4h12Zm-36,0h-12v-4h12Zm-35.992,0h-12v-4h12Zm-36,0h-12v-4h12Zm-35.992,0h-12v-4h12Zm-36,0h-12v-4h12Zm564.024-.248-.228-3.992c3.92-.228,7.875-.62,11.755-1.184l.572,3.96C906.116,1397.053,902.045,1397.461,898.013,1397.693Zm35.768-6.715-1.236-3.8c3.728-1.216,7.455-2.6,11.071-4.128l1.556,3.688C941.449,1388.3,937.621,1389.73,933.781,1390.977Zm32.893-15.546-2.156-3.368c3.3-2.108,6.559-4.391,9.687-6.775l2.428,3.176C973.413,1370.924,970.062,1373.267,966.674,1375.431Zm27.981-23.274-2.924-2.724c2.688-2.884,5.284-5.9,7.707-8.975l3.14,2.48C1000.083,1346.1,997.419,1349.2,994.655,1352.157Zm21.326-29.489-3.508-1.92c1.884-3.448,3.64-7.015,5.219-10.607l3.668,1.612C1019.729,1315.449,1017.921,1319.125,1015.981,1322.668Zm13.255-33.913-3.88-.968c.952-3.816,1.752-7.711,2.368-11.583l3.956.632C1031.036,1280.82,1030.216,1284.832,1029.236,1288.756Zm4.247-36.124h-4v-12h4Zm0-35.992h-4v-12h4Zm-5.3-35.661c-.532-3.855-1.24-7.771-2.112-11.627l3.9-.88c.9,3.968,1.628,8,2.172,11.963Zm-9.271-34.133c-1.512-3.636-3.188-7.239-4.988-10.715l3.556-1.836c1.848,3.572,3.572,7.279,5.127,11.015Zm-17.586-30.7c-2.356-3.128-4.883-6.2-7.507-9.135l2.98-2.664c2.7,3.016,5.3,6.175,7.723,9.391Zm-24.677-25.37c-3.072-2.46-6.279-4.807-9.539-6.983l2.228-3.328c3.352,2.24,6.651,4.66,9.811,7.187Zm-30.217-18.438c-3.572-1.6-7.271-3.072-10.987-4.371l1.32-3.776c3.824,1.336,7.627,2.848,11.307,4.5Zm-33.881-10.227c-3.84-.644-7.787-1.128-11.727-1.448l.32-3.984c4.056.32,8.115.82,12.071,1.484ZM877,1060.219H865v-4h12Zm-36,0h-12v-4h12Zm-35.992,0h-12v-4h12Zm-36,0h-12v-4h12Zm-36.108-.248c-4.032-.236-8.1-.652-12.1-1.228l.58-3.96c3.876.564,7.831.964,11.755,1.2Zm-35.76-6.747c-3.864-1.26-7.7-2.7-11.387-4.252l1.556-3.688c3.592,1.52,7.315,2.908,11.075,4.136Zm-32.881-15.566c-3.388-2.168-6.739-4.512-9.959-6.975l2.428-3.18c3.132,2.4,6.391,4.676,9.687,6.787Zm-27.961-23.294c-2.76-2.956-5.423-6.059-7.915-9.223l3.14-2.48c2.424,3.08,5.015,6.1,7.7,8.979ZM615,984.85c-1.928-3.524-3.736-7.2-5.372-10.911l3.664-1.612c1.592,3.608,3.344,7.179,5.215,10.611Zm-13.235-33.917c-.976-3.92-1.792-7.927-2.428-11.919l3.952-.628c.616,3.876,1.412,7.775,2.36,11.583Zm-.216-36.124h-4v-12h4Zm0-36h-4l0-12h4Zm-6.079-35.524c-.676-3.864-1.528-7.747-2.536-11.539l3.868-1.028c1.036,3.908,1.916,7.9,2.6,11.879Zm-10.511-33.777c-1.624-3.552-3.432-7.091-5.372-10.527l3.484-1.968c2,3.532,3.852,7.175,5.528,10.831Zm-18.67-30.049c-2.48-3.052-5.115-6.035-7.831-8.863l2.884-2.768c2.792,2.9,5.5,5.971,8.051,9.111Zm-25.561-24.478c-3.148-2.332-6.439-4.568-9.791-6.639l2.112-3.4c3.444,2.136,6.831,4.432,10.059,6.831Zm-30.853-17.342c-3.648-1.48-7.4-2.816-11.143-3.972l1.18-3.82c3.852,1.188,7.707,2.564,11.463,4.084Zm-34.225-9c-3.88-.5-7.839-.844-11.771-1.016l.172-4c4.044.176,8.123.532,12.115,1.048Zm-35.68-1.148h-12v-4h12Zm-35.992,0h-12v-4h12Zm-36,0H355.983v-4h11.995Zm-35.992,0h-12v-4h12Zm-36,0H283.994v-4h11.995Zm-36.008-.008c-4.036-.036-8.119-.24-12.143-.616l.368-3.984c3.912.368,7.887.568,11.807.6Zm-36.06-4.924c-3.892-1.048-7.8-2.284-11.591-3.668l1.368-3.76c3.692,1.344,7.483,2.548,11.267,3.568Zm-33.633-13.887c-3.5-2-6.963-4.176-10.291-6.467l2.268-3.3c3.236,2.228,6.6,4.344,10.011,6.287Zm-29.081-21.87c-2.9-2.8-5.715-5.775-8.371-8.823l3.016-2.628c2.584,2.964,5.319,5.852,8.135,8.579Zm-22.758-28.405c-2.108-3.448-4.1-7.027-5.907-10.635l3.576-1.792c1.76,3.508,3.692,6.983,5.747,10.335ZM123.518,625.2c-1.176-3.888-2.2-7.847-3.032-11.779l3.916-.832c.812,3.824,1.8,7.675,2.944,11.447Zm-6.035-35.888q-.108-2.8-.108-5.635v-1.54q.006-2.5.084-4.964l4,.132q-.078,2.412-.084,4.836v1.536q0,2.748.108,5.475Zm6.783-35.452-3.916-.82c.828-3.968,1.828-7.931,2.976-11.787l3.836,1.144C126.046,546.142,125.07,550,124.266,553.857Zm11.551-33.437-3.584-1.78c1.784-3.6,3.756-7.179,5.859-10.651l3.42,2.068C139.465,513.437,137.553,516.925,135.817,520.421Zm19.594-29.465-3.024-2.612c2.644-3.064,5.443-6.047,8.323-8.867l2.8,2.86C160.707,485.08,157.983,487.98,155.411,490.956Zm26.3-23.686-2.28-3.284c3.324-2.312,6.779-4.5,10.267-6.519l2,3.464C188.308,462.89,184.944,465.022,181.713,467.27ZM213.1,450.888l-1.392-3.752c3.776-1.4,7.675-2.648,11.583-3.724l1.064,3.856C220.553,448.312,216.765,449.532,213.1,450.888Zm34.477-7.919-.392-3.98c4.02-.392,8.1-.616,12.139-.668l.056,4C255.445,442.372,251.478,442.588,247.574,442.968Zm397.916-.66h-2.2v-4h2.2c3.22,0,6.463-.112,9.647-.336l.272,3.992C652.138,442.192,648.8,442.3,645.49,442.309Zm-26.2,0h-12v-4h12Zm-36,0h-12v-4h12Zm-35.992,0h-12v-4h12Zm-36,0h-12v-4h12Zm-35.992,0h-12v-4h12Zm-36,0h-12v-4h12Zm-35.992,0h-12v-4h12Zm-36,0H355.335v-4H367.33Zm-35.992,0h-12v-4h12Zm-36,0H283.346v-4h11.995Zm384.082-4.072-.948-3.888c3.816-.932,7.631-2.04,11.355-3.292l1.276,3.792C687.278,436.137,683.35,437.277,679.423,438.237Zm33.961-13.071-1.9-3.52c3.46-1.868,6.879-3.9,10.155-6.047l2.188,3.348C720.459,421.151,716.943,423.242,713.383,425.166ZM742.98,404l-2.72-2.94c2.88-2.66,5.683-5.479,8.339-8.383l2.952,2.7C748.82,398.365,745.936,401.265,742.98,404ZM766.4,376.139l-3.356-2.172c2.124-3.288,4.139-6.719,5.991-10.2l3.528,1.88C770.662,369.228,768.586,372.755,766.4,376.139ZM782.125,343.3l-3.8-1.256c1.232-3.744,2.32-7.571,3.22-11.371l3.892.924C784.512,335.511,783.392,339.447,782.125,343.3Zm6.907-35.732-3.992-.256c.18-2.908.276-5.879.276-8.831v-3.028h4v3.028C789.316,301.519,789.216,304.574,789.032,307.57Zm.284-36.112h-4v-12h4Zm0-36h-4V223.466h4Zm0-35.992h-4v-12h4Zm0-36h-4V151.478h4Zm0-35.992h-4v-12h4Zm0-35.992h-4v-12h4Zm0-36h-4v-12h4Zm0-35.992h-4V7.5h4Z" transform="translate(-117.375 -7.5)" fill="#fff"/>
          </g>
          <g id="Group_53" data-name="Group 53" transform="translate(630.148 1993.8)">
            <rect id="Rectangle_3" data-name="Rectangle 3" width="4" height="5.999" fill="#fff"/>
          </g>
        </g>
      </g>
      <g id="Group_11" data-name="Group 11" transform="translate(1079.121 1991.26)">
        <g id="Group_9" data-name="Group 9" transform="translate(0 0)">
          <circle id="Ellipse_1" data-name="Ellipse 1" cx="39.97" cy="39.97" r="39.97" transform="matrix(0.276, -0.961, 0.961, 0.276, 0, 76.841)" fill="#fff"/>
          <text id="_01" data-name="01" transform="translate(46.879 58.136)" fill="#fff" font-size="32" font-family="Anton-Regular, Anton" letter-spacing="0.01em" style="white-space: pre;"><tspan x="-13" y="0">01</tspan></text>
        </g>
        <g id="Group_10" data-name="Group 10" transform="translate(0 0)">
          <circle id="Ellipse_2" data-name="Ellipse 2" cx="39.97" cy="39.97" r="39.97" transform="matrix(0.276, -0.961, 0.961, 0.276, 0, 76.841)" fill="#7399f5" stroke="#fff" stroke-width="3"/>
          <text id="_1" data-name="1" transform="translate(49.44 62.94)" fill="#fff" font-size="32" font-family="Anton-Regular, Anton" letter-spacing="0.01em" style="white-space: pre;"><tspan x="-5" y="0">1</tspan></text>
        </g>
      </g>
      <g id="Group_379" data-name="Group 379" transform="translate(1042.121 3976.06)">
        <g id="Group_9-2" data-name="Group 9" transform="translate(0 0)">
          <circle id="Ellipse_1-2" data-name="Ellipse 1" cx="39.97" cy="39.97" r="39.97" transform="matrix(0.276, -0.961, 0.961, 0.276, 0, 76.841)" fill="#fff"/>
          <text id="_01-2" data-name="01" transform="translate(46.879 58.136)" fill="#fff" font-size="32" font-family="Anton-Regular, Anton" letter-spacing="0.01em" style="white-space: pre;"><tspan x="-13" y="0">01</tspan></text>
        </g>
        <g id="Group_10-2" data-name="Group 10" transform="translate(0 0)">
          <circle id="Ellipse_2-2" data-name="Ellipse 2" cx="39.97" cy="39.97" r="39.97" transform="matrix(0.276, -0.961, 0.961, 0.276, 0, 76.841)" fill="#a85cff" stroke="#fff" stroke-width="3"/>
          <text id="_10" data-name="10" transform="translate(49.44 62.94)" fill="#fff" font-size="32" font-family="Anton-Regular, Anton" letter-spacing="0.01em" style="white-space: pre;"><tspan x="-13" y="0">10</tspan></text>
        </g>
      </g>
      <g id="Group_371" data-name="Group 371" transform="translate(1079.121 2266.621)">
        <g id="Group_9-3" data-name="Group 9" transform="translate(0 0)">
          <circle id="Ellipse_1-3" data-name="Ellipse 1" cx="39.97" cy="39.97" r="39.97" transform="matrix(0.276, -0.961, 0.961, 0.276, 0, 76.841)" fill="#fff"/>
          <text id="_01-3" data-name="01" transform="translate(46.879 58.136)" fill="#fff" font-size="32" font-family="Anton-Regular, Anton" letter-spacing="0.01em" style="white-space: pre;"><tspan x="-13" y="0">01</tspan></text>
        </g>
        <g id="Group_10-3" data-name="Group 10" transform="translate(0 0)">
          <circle id="Ellipse_2-3" data-name="Ellipse 2" cx="39.97" cy="39.97" r="39.97" transform="matrix(0.276, -0.961, 0.961, 0.276, 0, 76.841)" fill="#f57373" stroke="#fff" stroke-width="3"/>
          <text id="_2" data-name="2" transform="translate(49.44 62.94)" fill="#fff" font-size="32" font-family="Anton-Regular, Anton" letter-spacing="0.01em" style="white-space: pre;"><tspan x="-7" y="0">2</tspan></text>
        </g>
      </g>
      <g id="Group_375" data-name="Group 375" transform="translate(888.56 2920.621)">
        <g id="Group_9-4" data-name="Group 9" transform="translate(0 0)">
          <circle id="Ellipse_1-4" data-name="Ellipse 1" cx="39.97" cy="39.97" r="39.97" transform="matrix(0.276, -0.961, 0.961, 0.276, 0, 76.841)" fill="#fff"/>
          <text id="_01-4" data-name="01" transform="translate(46.879 58.136)" fill="#fff" font-size="32" font-family="Anton-Regular, Anton" letter-spacing="0.01em" style="white-space: pre;"><tspan x="-13" y="0">01</tspan></text>
        </g>
        <g id="Group_10-4" data-name="Group 10" transform="translate(0 0)">
          <circle id="Ellipse_2-4" data-name="Ellipse 2" cx="39.97" cy="39.97" r="39.97" transform="matrix(0.276, -0.961, 0.961, 0.276, 0, 76.841)" fill="#f57373" stroke="#fff" stroke-width="3"/>
          <text id="_6" data-name="6" transform="translate(49.44 62.94)" fill="#fff" font-size="32" font-family="Anton-Regular, Anton" letter-spacing="0.01em" style="white-space: pre;"><tspan x="-7" y="0">6</tspan></text>
        </g>
      </g>
      <g id="Group_376" data-name="Group 376" transform="translate(1189 3077.621)">
        <g id="Group_9-5" data-name="Group 9" transform="translate(0 0)">
          <circle id="Ellipse_1-5" data-name="Ellipse 1" cx="39.97" cy="39.97" r="39.97" transform="matrix(0.276, -0.961, 0.961, 0.276, 0, 76.841)" fill="#fff"/>
          <text id="_01-5" data-name="01" transform="translate(46.879 58.136)" fill="#fff" font-size="32" font-family="Anton-Regular, Anton" letter-spacing="0.01em" style="white-space: pre;"><tspan x="-13" y="0">01</tspan></text>
        </g>
        <g id="Group_10-5" data-name="Group 10" transform="translate(0 0)">
          <circle id="Ellipse_2-5" data-name="Ellipse 2" cx="39.97" cy="39.97" r="39.97" transform="matrix(0.276, -0.961, 0.961, 0.276, 0, 76.841)" fill="#f573d7" stroke="#fff" stroke-width="3"/>
          <text id="_7" data-name="7" transform="translate(49.44 62.94)" fill="#fff" font-size="32" font-family="Anton-Regular, Anton" letter-spacing="0.01em" style="white-space: pre;"><tspan x="-7" y="0">7</tspan></text>
        </g>
      </g>
      <g id="Group_377" data-name="Group 377" transform="translate(1070.121 3415.621)">
        <g id="Group_9-6" data-name="Group 9" transform="translate(0 0)">
          <circle id="Ellipse_1-6" data-name="Ellipse 1" cx="39.97" cy="39.97" r="39.97" transform="matrix(0.276, -0.961, 0.961, 0.276, 0, 76.841)" fill="#fff"/>
          <text id="_01-6" data-name="01" transform="translate(46.879 58.136)" fill="#fff" font-size="32" font-family="Anton-Regular, Anton" letter-spacing="0.01em" style="white-space: pre;"><tspan x="-13" y="0">01</tspan></text>
        </g>
        <g id="Group_10-6" data-name="Group 10" transform="translate(0 0)">
          <circle id="Ellipse_2-6" data-name="Ellipse 2" cx="39.97" cy="39.97" r="39.97" transform="matrix(0.276, -0.961, 0.961, 0.276, 0, 76.841)" fill="#f90" stroke="#fff" stroke-width="3"/>
          <text id="_8" data-name="8" transform="translate(49.44 62.94)" fill="#fff" font-size="32" font-family="Anton-Regular, Anton" letter-spacing="0.01em" style="white-space: pre;"><tspan x="-7" y="0">8</tspan></text>
        </g>
      </g>
      <g id="Group_378" data-name="Group 378" transform="translate(472.121 3559)">
        <g id="Group_9-7" data-name="Group 9" transform="translate(0 0)">
          <circle id="Ellipse_1-7" data-name="Ellipse 1" cx="39.97" cy="39.97" r="39.97" transform="matrix(0.276, -0.961, 0.961, 0.276, 0, 76.841)" fill="#fff"/>
          <text id="_01-7" data-name="01" transform="translate(46.879 58.136)" fill="#fff" font-size="32" font-family="Anton-Regular, Anton" letter-spacing="0.01em" style="white-space: pre;"><tspan x="-13" y="0">01</tspan></text>
        </g>
        <g id="Group_10-7" data-name="Group 10" transform="translate(0 0)">
          <circle id="Ellipse_2-7" data-name="Ellipse 2" cx="39.97" cy="39.97" r="39.97" transform="matrix(0.276, -0.961, 0.961, 0.276, 0, 76.841)" fill="#2158b5" stroke="#fff" stroke-width="3"/>
          <text id="_9" data-name="9" transform="translate(49.44 62.94)" fill="#fff" font-size="32" font-family="Anton-Regular, Anton" letter-spacing="0.01em" style="white-space: pre;"><tspan x="-8" y="0">9</tspan></text>
        </g>
      </g>
      <g id="Group_372" data-name="Group 372" transform="translate(910.121 2458.26)">
        <g id="Group_9-8" data-name="Group 9" transform="translate(0 0)">
          <circle id="Ellipse_1-8" data-name="Ellipse 1" cx="39.97" cy="39.97" r="39.97" transform="matrix(0.276, -0.961, 0.961, 0.276, 0, 76.841)" fill="#fff"/>
          <text id="_01-8" data-name="01" transform="translate(46.879 58.136)" fill="#fff" font-size="32" font-family="Anton-Regular, Anton" letter-spacing="0.01em" style="white-space: pre;"><tspan x="-13" y="0">01</tspan></text>
        </g>
        <g id="Group_10-8" data-name="Group 10" transform="translate(0 0)">
          <circle id="Ellipse_2-8" data-name="Ellipse 2" cx="39.97" cy="39.97" r="39.97" transform="matrix(0.276, -0.961, 0.961, 0.276, 0, 76.841)" fill="#f573d7" stroke="#fff" stroke-width="3"/>
          <text id="_3" data-name="3" transform="translate(49.44 62.94)" fill="#fff" font-size="32" font-family="Anton-Regular, Anton" letter-spacing="0.01em" style="white-space: pre;"><tspan x="-7" y="0">3</tspan></text>
        </g>
      </g>
      <g id="Group_373" data-name="Group 373" transform="translate(484.121 2477.26)">
        <g id="Group_9-9" data-name="Group 9" transform="translate(0 0)">
          <circle id="Ellipse_1-9" data-name="Ellipse 1" cx="39.97" cy="39.97" r="39.97" transform="matrix(0.276, -0.961, 0.961, 0.276, 0, 76.841)" fill="#fff"/>
          <text id="_01-9" data-name="01" transform="translate(46.879 58.136)" fill="#fff" font-size="32" font-family="Anton-Regular, Anton" letter-spacing="0.01em" style="white-space: pre;"><tspan x="-13" y="0">01</tspan></text>
        </g>
        <g id="Group_10-9" data-name="Group 10" transform="translate(0 0)">
          <circle id="Ellipse_2-9" data-name="Ellipse 2" cx="39.97" cy="39.97" r="39.97" transform="matrix(0.276, -0.961, 0.961, 0.276, 0, 76.841)" fill="#f90" stroke="#fff" stroke-width="3"/>
          <text id="_4" data-name="4" transform="translate(49.44 62.94)" fill="#fff" font-size="32" font-family="Anton-Regular, Anton" letter-spacing="0.01em" style="white-space: pre;"><tspan x="-7" y="0">4</tspan></text>
        </g>
      </g>
      <g id="Group_374" data-name="Group 374" transform="translate(467.121 2715)">
        <g id="Group_9-10" data-name="Group 9" transform="translate(0 0)">
          <circle id="Ellipse_1-10" data-name="Ellipse 1" cx="39.97" cy="39.97" r="39.97" transform="matrix(0.276, -0.961, 0.961, 0.276, 0, 76.841)" fill="#fff"/>
          <text id="_01-10" data-name="01" transform="translate(46.879 58.136)" fill="#fff" font-size="32" font-family="Anton-Regular, Anton" letter-spacing="0.01em" style="white-space: pre;"><tspan x="-13" y="0">01</tspan></text>
        </g>
        <g id="Group_10-10" data-name="Group 10" transform="translate(0 0)">
          <circle id="Ellipse_2-10" data-name="Ellipse 2" cx="39.97" cy="39.97" r="39.97" transform="matrix(0.276, -0.961, 0.961, 0.276, 0, 76.841)" fill="#2158b5" stroke="#fff" stroke-width="3"/>
          <text id="_5" data-name="5" transform="translate(49.44 62.94)" fill="#fff" font-size="32" font-family="Anton-Regular, Anton" letter-spacing="0.01em" style="white-space: pre;"><tspan x="-7" y="0">5</tspan></text>
        </g>
      </g>
    </g>
  </g>
</svg>