<svg xmlns="http://www.w3.org/2000/svg" width="598.309" height="585.349" viewBox="0 0 598.309 585.349">
  <g id="Group_324" data-name="Group 324" transform="translate(-149.057 -171.864)">
    <g id="Group_299" data-name="Group 299" transform="translate(153.796 175.557)">
      <g id="Group_298" data-name="Group 298">
        <g id="Group_297" data-name="Group 297">
          <g id="Group_287" data-name="Group 287" transform="translate(0 398.774)">
            <line id="Line_2" data-name="Line 2" x2="25.359" fill="none" stroke="#ffb000" stroke-width="10.446"/>
            <line id="Line_3" data-name="Line 3" x2="12.681" transform="translate(29.139)" fill="none" stroke="#ffb000" stroke-width="10.446"/>
          </g>
          <g id="Group_288" data-name="Group 288" transform="translate(530.529 314.877)">
            <line id="Line_4" data-name="Line 4" x2="29.539" fill="none" stroke="#ffb000" stroke-width="11.275"/>
            <line id="Line_5" data-name="Line 5" x2="14.77" transform="translate(33.945)" fill="none" stroke="#ffb000" stroke-width="11.275"/>
          </g>
          <g id="Group_289" data-name="Group 289" transform="translate(346.793 576.018)">
            <line id="Line_6" data-name="Line 6" x1="29.539" transform="translate(19.176)" fill="none" stroke="#ffb000" stroke-width="11.275"/>
            <line id="Line_7" data-name="Line 7" x1="14.77" fill="none" stroke="#ffb000" stroke-width="11.275"/>
          </g>
          <g id="Group_290" data-name="Group 290" transform="translate(508.305 93.589)">
            <line id="Line_8" data-name="Line 8" x1="25.361" transform="translate(16.458)" fill="none" stroke="#ffb000" stroke-width="10.446"/>
            <line id="Line_9" data-name="Line 9" x1="12.68" fill="none" stroke="#ffb000" stroke-width="10.446"/>
          </g>
          <g id="Group_291" data-name="Group 291" transform="translate(168.045 536.725)">
            <line id="Line_10" data-name="Line 10" x1="25.361" transform="translate(16.457)" fill="none" stroke="#ffb000" stroke-width="10.446"/>
            <line id="Line_11" data-name="Line 11" x1="12.679" fill="none" stroke="#ffb000" stroke-width="10.446"/>
          </g>
          <g id="Group_292" data-name="Group 292" transform="translate(287.652)">
            <line id="Line_12" data-name="Line 12" x2="3.535" y2="3.535" fill="none" stroke="#ffb000" stroke-width="10.446"/>
            <line id="Line_13" data-name="Line 13" x2="3.535" y2="3.535" transform="translate(6.029 6.029)" fill="none" stroke="#ffb000" stroke-width="10.446"/>
            <line id="Line_14" data-name="Line 14" x1="3.535" y2="3.535" transform="translate(6.029)" fill="none" stroke="#ffb000" stroke-width="10.446"/>
            <line id="Line_15" data-name="Line 15" x1="3.535" y2="3.535" transform="translate(0 6.029)" fill="none" stroke="#ffb000" stroke-width="10.446"/>
          </g>
          <g id="Group_293" data-name="Group 293" transform="translate(1.276 164.613)">
            <line id="Line_16" data-name="Line 16" x2="3.535" y2="3.535" fill="none" stroke="#ffb000" stroke-width="10.446"/>
            <line id="Line_17" data-name="Line 17" x2="3.535" y2="3.535" transform="translate(6.029 6.029)" fill="none" stroke="#ffb000" stroke-width="10.446"/>
            <line id="Line_18" data-name="Line 18" x1="3.535" y2="3.535" transform="translate(6.029)" fill="none" stroke="#ffb000" stroke-width="10.446"/>
            <line id="Line_19" data-name="Line 19" x1="3.535" y2="3.535" transform="translate(0 6.029)" fill="none" stroke="#ffb000" stroke-width="10.446"/>
          </g>
          <g id="Group_294" data-name="Group 294" transform="translate(369.383 171.274)">
            <line id="Line_20" data-name="Line 20" x2="3.535" y2="3.535" fill="none" stroke="#ffb000" stroke-width="10.446"/>
            <line id="Line_21" data-name="Line 21" x2="3.535" y2="3.535" transform="translate(6.029 6.029)" fill="none" stroke="#ffb000" stroke-width="10.446"/>
            <line id="Line_22" data-name="Line 22" x1="3.535" y2="3.535" transform="translate(6.029)" fill="none" stroke="#ffb000" stroke-width="10.446"/>
            <line id="Line_23" data-name="Line 23" x1="3.535" y2="3.535" transform="translate(0 6.029)" fill="none" stroke="#ffb000" stroke-width="10.446"/>
          </g>
          <g id="Group_295" data-name="Group 295" transform="translate(564.497 398.774)">
            <line id="Line_24" data-name="Line 24" x2="3.535" y2="3.535" fill="none" stroke="#ffb000" stroke-width="10.446"/>
            <line id="Line_25" data-name="Line 25" x2="3.535" y2="3.535" transform="translate(6.029 6.029)" fill="none" stroke="#ffb000" stroke-width="10.446"/>
            <line id="Line_26" data-name="Line 26" x1="3.535" y2="3.535" transform="translate(6.029)" fill="none" stroke="#ffb000" stroke-width="10.446"/>
            <line id="Line_27" data-name="Line 27" x1="3.535" y2="3.535" transform="translate(0 6.029)" fill="none" stroke="#ffb000" stroke-width="10.446"/>
          </g>
          <g id="Group_296" data-name="Group 296" transform="translate(278.088 494.633)">
            <line id="Line_28" data-name="Line 28" x2="3.535" y2="3.535" fill="none" stroke="#ffb000" stroke-width="10.446"/>
            <line id="Line_29" data-name="Line 29" x2="3.535" y2="3.535" transform="translate(6.029 6.029)" fill="none" stroke="#ffb000" stroke-width="10.446"/>
            <line id="Line_30" data-name="Line 30" x1="3.535" y2="3.535" transform="translate(6.029)" fill="none" stroke="#ffb000" stroke-width="10.446"/>
            <line id="Line_31" data-name="Line 31" x1="3.535" y2="3.535" transform="translate(0 6.029)" fill="none" stroke="#ffb000" stroke-width="10.446"/>
          </g>
          <path id="Path_158" data-name="Path 158" d="M1726.252,248.555a4.388,4.388,0,1,1-4.387-4.388A4.388,4.388,0,0,1,1726.252,248.555Z" transform="translate(-1207.517 -221.652)" fill="none" stroke="#ffb000" stroke-width="10.446"/>
          <path id="Path_159" data-name="Path 159" d="M435.839,290.973a4.388,4.388,0,1,1-4.387-4.388A4.388,4.388,0,0,1,435.839,290.973Z" transform="translate(-340.57 -250.15)" fill="none" stroke="#ffb000" stroke-width="10.446"/>
          <path id="Path_160" data-name="Path 160" d="M493.748,1196.354a4.387,4.387,0,1,1-4.387-4.387A4.386,4.386,0,0,1,493.748,1196.354Z" transform="translate(-379.477 -858.419)" fill="none" stroke="#ffb000" stroke-width="10.446"/>
        </g>
      </g>
    </g>
    <g id="Group_323" data-name="Group 323" transform="translate(149.057 244.291)">
      <g id="Group_303" data-name="Group 303" transform="translate(143.527 0)">
        <path id="Path_161" data-name="Path 161" d="M748,1038.6c-89.23,0-161.572-41.239-161.572-92.122,0-50.867,72.343-92.115,161.572-92.115s161.569,41.248,161.569,92.115C909.564,997.359,837.231,1038.6,748,1038.6Z" transform="translate(-586.423 -700.336)" fill="#98a7d3"/>
        <g id="Group_302" data-name="Group 302" transform="translate(20.81)">
          <g id="Group_300" data-name="Group 300" transform="translate(0 121.343)">
            <path id="Path_162" data-name="Path 162" d="M649.836,999.324v32.5c0,44.328,63.025,80.256,140.762,80.256s140.758-35.928,140.758-80.256v-32.5Z" transform="translate(-649.836 -919.071)" fill="#9d2833"/>
            <path id="Path_163" data-name="Path 163" d="M790.6,915.279c-77.737,0-140.762-35.927-140.762-80.257s63.025-80.251,140.762-80.251,140.758,35.935,140.758,80.251S868.34,915.279,790.6,915.279Z" transform="translate(-649.836 -754.771)" fill="#c83240"/>
            <path id="Path_164" data-name="Path 164" d="M851.769,933.12c-61.237,0-110.882-28.3-110.882-63.22s49.645-63.216,110.882-63.216S962.648,834.99,962.648,869.9,913.009,933.12,851.769,933.12Z" transform="translate(-711.007 -789.648)" fill="#fff"/>
            <ellipse id="Ellipse_51" data-name="Ellipse 51" cx="83.962" cy="47.87" rx="83.962" ry="47.87" transform="translate(56.798 32.384)" fill="#c83240"/>
            <path id="Path_165" data-name="Path 165" d="M965.985,966.431c-30.426,0-55.092-14.061-55.092-31.41s24.666-31.409,55.092-31.409,55.091,14.063,55.091,31.409S996.411,966.431,965.985,966.431Z" transform="translate(-825.224 -854.767)" fill="#fff"/>
            <path id="Path_166" data-name="Path 166" d="M1021.749,982.694c-15.383,0-27.854-7.109-27.854-15.88s12.471-15.88,27.854-15.88,27.852,7.11,27.852,15.88S1037.131,982.694,1021.749,982.694Z" transform="translate(-880.988 -886.561)" fill="#9a000e"/>
            <path id="Path_167" data-name="Path 167" d="M1059.491,993.7c-5.2,0-9.419-2.4-9.419-5.37s4.217-5.369,9.419-5.369,9.417,2.4,9.417,5.369S1064.692,993.7,1059.491,993.7Z" transform="translate(-918.729 -908.079)" fill="#c83240"/>
          </g>
          <g id="Group_301" data-name="Group 301" transform="translate(112.478)">
            <path id="Path_168" data-name="Path 168" d="M1078.771,474.522V402.506l33.317-17.5v68.651Z" transform="translate(-1050.489 -398.533)" fill="#c83240"/>
            <path id="Path_169" data-name="Path 169" d="M1025.9,474.522V402.506l-33.317-17.5v68.651Z" transform="translate(-997.621 -398.533)" fill="#9a000e"/>
            <path id="Path_192" data-name="Path 192" d="M0,0V191.22" transform="translate(28.283 11.713)" fill="#9d2833" stroke="#9d2833" stroke-width="31.339"/>
          </g>
        </g>
      </g>
      <g id="Group_304" data-name="Group 304" transform="translate(360.453 345.159)">
        <path id="Path_170" data-name="Path 170" d="M1247.454,1480.463l42.928-18.065a20.65,20.65,0,0,1,3.358,2.548c2.007,2.643-.582,6.248,2.784,8.52,4.146,2.795,14.342,2.183,22.777-1.366q.353-.148.695-.3c7.927-3.535,11.105-8.471,7.076-11.188-2.575-1.737-7.013-1.628-10.63-2.295a23.676,23.676,0,0,1-5.3-1.547,18.571,18.571,0,0,1-2.894-1.887l42.982-18.084,80.952,54.624-103.77,43.667-33.491-22.6c.131-.063.27-.126.415-.19a40.446,40.446,0,0,1,4.421-1.622c4.995-1.1,11.751.234,16.066-1.58,5.287-2.356,4.208-7.7-2.3-12.087-6.58-4.441-16.221-6.229-21.532-3.994-3.3,1.47-3.168,3.781-4.445,5.675a9.788,9.788,0,0,1-2.97,2.839c-.157.1-.762.4-1.525.741-.632.281-1.372.587-2.061.82Z" transform="translate(-1247.454 -1436.798)" fill="#98a7d3"/>
      </g>
      <g id="Group_307" data-name="Group 307" transform="translate(368.635 324.814)" style="mix-blend-mode: normal;isolation: isolate">
        <path id="Path_171" data-name="Path 171" d="M1456.579,1431.8a3.1,3.1,0,0,0-1.564-2.555,5.461,5.461,0,0,0-.529-.31c-.057-.03-.117-.058-.176-.086-.132-.064-.268-.125-.407-.182-.035-.014-.066-.031-.1-.045s-.063-.019-.092-.031c-.223-.085-.45-.164-.686-.234l-.012,0,0,0c-.24-.07-.487-.131-.738-.188l-.084-.022-.105-.02c-.3-.064-.6-.122-.907-.173l-.023,0c-.025,0-.052-.008-.077-.012-.318-.052-.639-.1-.964-.14l-.1-.014c-.341-.044-.685-.084-1.029-.123l-.06-.009-.836-.094c-.328-.038-.655-.077-.979-.118l-.179-.023q-.478-.063-.943-.136c-.161-.027-.322-.052-.48-.082-.325-.06-.651-.127-.976-.2l-.176-.038q-.357-.08-.708-.169l-.018-.005c-.238-.06-.471-.125-.7-.192l-.221-.067c-.161-.048-.32-.1-.477-.15-.077-.025-.153-.05-.229-.078-.162-.055-.322-.114-.477-.173l-.179-.068q-.3-.118-.582-.246a16.616,16.616,0,0,1-2.591-1.688l.19,21.6a16.593,16.593,0,0,0,2.591,1.689c.186.085.382.166.581.246a.35.35,0,0,1,.043.018c.044.017.091.031.135.049.157.059.317.119.481.175.074.026.149.05.223.075.161.053.325.1.491.155l.136.042.069.019c.234.068.47.133.709.194h0c.24.061.482.118.726.173l.068.016.1.02c.327.072.655.14.982.2.133.024.267.048.4.07.026,0,.053.006.079.012.309.049.621.094.938.136l.188.024c.317.041.638.079.961.116l.01,0,.634.071.256.029c.35.04.7.081,1.044.125l.082.012c.329.043.655.09.976.142l.1.016c.308.051.609.11.906.173l.191.042c.253.058.5.12.74.19s.472.152.7.237l.192.075c.14.058.276.12.409.184.058.029.117.055.174.085a5.687,5.687,0,0,1,.529.31,3.1,3.1,0,0,1,1.564,2.556Z" transform="translate(-1383.762 -1407.935)" fill="#2d3a61"/>
        <path id="Path_172" data-name="Path 172" d="M1313.908,1526.236c.073-.018.148-.034.222-.05.1-.022.2-.045.3-.065.082-.016.167-.029.25-.043l.211-.036.159,18.1,29.973,20.226-.191-21.6-24.827-16.755c.362.044.727.094,1.095.155.084.013.169.029.253.043.137.023.274.048.412.075l.3.058c.131.026.262.053.393.082l.276.062c.213.049.427.1.64.154l.178.045q.4.1.8.221l.153.046c.366.109.732.224,1.1.348l.056.019q.545.187,1.083.4l.088.034c.411.162.819.335,1.223.516l.059.026q.612.278,1.207.585l.04.019q.6.313,1.182.654l.02.011c.392.232.774.471,1.146.724,3.308,2.232,5.049,4.739,5.068,6.874q-.1-10.8-.189-21.6c-.02-2.135-1.76-4.642-5.068-6.875-.371-.251-.754-.492-1.145-.723-.007,0-.015-.008-.022-.012q-.577-.342-1.18-.653l-.042-.02c-.395-.2-.8-.4-1.205-.584l-.06-.026q-.6-.272-1.222-.516l-.023-.01c-.021-.008-.042-.014-.063-.023q-.543-.212-1.094-.4l-.042-.015c-.368-.126-.736-.241-1.105-.351l-.085-.027-.056-.016c-.269-.079-.538-.152-.807-.223l-.164-.041q-.33-.083-.659-.158l-.123-.03-.137-.029q-.206-.045-.412-.085l-.285-.057c-.138-.027-.276-.051-.415-.074-.067-.011-.134-.026-.2-.036l-.051-.009q-.558-.09-1.108-.156l-.086-.012c-.021,0-.043,0-.064-.007q-.48-.052-.953-.087l-.078-.007c-.035,0-.069,0-.1-.005q-.879-.054-1.716-.034c-.033,0-.067,0-.1,0l-.087,0c-.271.009-.539.023-.8.043h-.012l-.052.006c-.275.023-.543.055-.808.091-.028,0-.058.006-.085.01l-.06.01c-.109.017-.216.036-.323.054-.076.013-.153.026-.228.04-.111.022-.219.047-.328.07-.058.013-.118.023-.175.038l-.024.006c-.234.056-.461.121-.682.191l-.151.05c-.221.073-.44.151-.648.239-.166.074-.32.152-.469.23l-.129.073c-.052.029-.108.057-.158.087s-.081.054-.123.08-.107.068-.159.1c-.081.055-.158.112-.233.17-.045.033-.091.067-.132.1-.015.012-.032.023-.045.036-.089.073-.173.149-.253.225l-.028.028c-.064.062-.127.126-.186.189l-.05.058c-.029.032-.056.065-.083.1-.056.067-.111.135-.162.2-.023.032-.049.063-.071.094-.013.017-.026.033-.038.051-.025.035-.045.072-.07.108-.044.065-.087.132-.128.2-.03.051-.06.1-.09.156s-.073.131-.107.2c-.011.023-.026.045-.037.069s-.025.051-.037.077c-.058.115-.113.231-.165.347l-.036.075c-.069.156-.135.311-.2.466-.05.119-.1.238-.154.356l-.06.137c-.063.142-.13.283-.2.423-.037.074-.078.147-.119.22-.019.035-.037.071-.056.1-.061.106-.126.213-.2.317-.045.065-.092.13-.139.2q-.1.142-.215.286c-.032.041-.063.081-.1.122-.1.123-.2.244-.314.366l-.026.03c-.116.126-.24.252-.369.376l-.114.106c-.1.087-.191.174-.291.26-.049.042-.1.083-.151.125-.1.081-.2.161-.31.24-.048.036-.1.073-.147.11-.157.111-.318.22-.487.325l-.053.03-.024.014-.068.037a.248.248,0,0,0-.038.02l-.082.042-.057.029-.087.043-.078.039c-.027.015-.059.028-.088.043l-.1.051-.1.046-.111.052-.156.072c-.025.011-.048.023-.073.034l-.248.111c-.566.252-1.229.526-1.845.734l-30.008-20.249.189,21.6,30.009,20.248c.616-.208,1.279-.482,1.845-.734q.247-.111.464-.212l.009,0,.194-.092a.075.075,0,0,0,.015-.008l.138-.066.055-.027.1-.05.065-.032.075-.039.063-.032.054-.027.054-.03.035-.02.033-.019.007,0c.172-.106.334-.215.491-.328.048-.034.095-.069.141-.1.108-.08.214-.162.316-.245.024-.02.052-.039.077-.06l.07-.062c.1-.085.2-.171.289-.258.039-.037.08-.073.119-.111q.192-.184.366-.373l0-.005c.01-.01.017-.02.027-.029.107-.12.211-.24.31-.361l.1-.125q.109-.141.211-.281c.018-.025.038-.05.056-.075.029-.041.057-.082.085-.123.07-.1.135-.21.2-.317.022-.038.042-.079.064-.117.035-.064.072-.129.1-.194l0-.01c.071-.14.138-.283.2-.427.019-.044.038-.088.058-.132.052-.118.1-.236.155-.355.067-.158.134-.316.205-.474.009-.022.021-.044.03-.065.054-.12.112-.24.17-.358l.07-.137c.036-.069.074-.137.112-.2.029-.051.057-.1.087-.152.041-.068.085-.135.13-.2s.068-.105.1-.158l.074-.1c.05-.067.1-.133.159-.2.028-.033.055-.067.085-.1.073-.083.151-.164.233-.244a.4.4,0,0,1,.031-.032c.093-.089.193-.176.3-.261.042-.034.085-.066.129-.1.075-.058.154-.115.236-.172.051-.034.1-.068.156-.1.091-.057.185-.114.284-.17l.128-.07c.148-.079.3-.156.469-.231.208-.087.425-.166.647-.239l.151-.049C1313.448,1526.356,1313.674,1526.292,1313.908,1526.236Z" transform="translate(-1272.386 -1454.803)" fill="#2f3672"/>
        <g id="Group_305" data-name="Group 305" transform="translate(72.447 48.885)">
          <path id="Path_173" data-name="Path 173" d="M1586.022,1523.768l.19,21.6-92.869,39.079-.191-21.6Z" transform="translate(-1493.152 -1523.768)" fill="#3d4794"/>
        </g>
        <g id="Group_306" data-name="Group 306">
          <path id="Path_174" data-name="Path 174" d="M1272.386,1413.878l38.418-16.167a18.449,18.449,0,0,1,3.006,2.28c1.8,2.365-.52,5.592,2.491,7.625,3.71,2.5,12.834,1.954,20.384-1.222q.317-.133.623-.268c7.094-3.164,9.939-7.581,6.332-10.013-2.3-1.555-6.277-1.457-9.514-2.054a21.187,21.187,0,0,1-4.747-1.384,16.616,16.616,0,0,1-2.591-1.688l38.466-16.185,72.449,48.885-92.87,39.079-29.972-20.226c.118-.056.243-.114.372-.171a36.119,36.119,0,0,1,3.956-1.452c4.47-.982,10.516.21,14.378-1.414,4.732-2.108,3.766-6.887-2.057-10.817-5.889-3.974-14.516-5.575-19.27-3.574-2.951,1.315-2.835,3.384-3.978,5.078a8.759,8.759,0,0,1-2.659,2.54c-.141.085-.681.358-1.364.663-.566.252-1.229.526-1.845.734Z" transform="translate(-1272.386 -1374.801)" fill="#4860a8"/>
        </g>
      </g>
      <g id="Group_310" data-name="Group 310" transform="translate(42.235 321.117)">
        <path id="Path_175" data-name="Path 175" d="M438.331,1506.144c-2.574-1.739-7.017-1.629-10.628-2.295a23.694,23.694,0,0,1-5.306-1.546,18.544,18.544,0,0,1-2.895-1.887l42.98-18.086-33.489-22.6c.136-.067.281-.133.432-.2a39.827,39.827,0,0,1,4.4-1.615c4.992-1.1,11.748.235,16.239-1.656,5.113-2.28,4.035-7.621-2.475-12.01-6.579-4.442-16.22-6.229-21.691-3.925-3.135,1.4-3.009,3.71-4.285,5.605a9.777,9.777,0,0,1-2.971,2.839c-.158.1-.761.4-1.524.741-.633.282-1.372.587-2.062.82l-33.53-22.625-103.77,43.666,80.952,54.624,42.934-18.065a20.862,20.862,0,0,1,3.353,2.548c2.007,2.641-.582,6.247,2.783,8.518,4.146,2.8,14.342,2.184,22.778-1.365.237-.1.471-.2.7-.3C439.184,1513.794,442.357,1508.86,438.331,1506.144Z" transform="translate(-277.759 -1406.647)" fill="#98a7d3"/>
        <g id="Group_309" data-name="Group 309" transform="translate(12.677)" style="mix-blend-mode: normal;isolation: isolate">
          <g id="Group_308" data-name="Group 308" transform="translate(135.347 21.723)">
            <path id="Path_176" data-name="Path 176" d="M764.241,1429.732c0,.053,0,.1-.005.158s0,.111-.007.167-.01.092-.015.138-.012.109-.02.162-.018.1-.03.156-.015.079-.024.119c-.012.054-.028.107-.044.159s-.02.077-.033.113-.016.044-.024.065a3.569,3.569,0,0,1-.182.431s0,.008,0,.01a3.664,3.664,0,0,1-.239.4c-.014.021-.028.043-.043.064a4.135,4.135,0,0,1-.293.363l-.091.1c-.034.035-.069.07-.1.1s-.081.077-.123.115-.076.069-.116.1-.072.059-.109.089c-.067.054-.137.106-.207.158-.038.027-.076.054-.114.08-.077.052-.157.1-.239.155l-.107.068c-.071.042-.146.081-.22.12-.041.024-.081.047-.123.069-.12.06-.242.12-.369.177a10,10,0,0,1-1.526.493c-.425.1-.864.184-1.315.249-.429.062-.868.11-1.315.146-.622.051-1.259.08-1.9.1-1.409.04-2.854.027-4.258.066-.633.018-1.258.047-1.867.1l.19,21.6c.609-.05,1.234-.079,1.866-.1,1.406-.04,2.851-.027,4.26-.066.644-.018,1.281-.048,1.9-.1.446-.036.886-.085,1.315-.147.45-.065.889-.147,1.314-.249a9.781,9.781,0,0,0,1.527-.494c.127-.057.251-.116.37-.177l.1-.055c.082-.044.164-.089.243-.135l.024-.013c.024-.015.046-.031.07-.045.085-.052.169-.106.249-.161l.112-.079q.107-.078.208-.158c.02-.017.043-.032.064-.049s.03-.028.047-.041l.115-.1c.041-.038.083-.075.122-.114s.07-.07.1-.1.044-.043.064-.064.017-.022.026-.032a3.831,3.831,0,0,0,.294-.365l.018-.023c.009-.012.015-.026.024-.038a3.619,3.619,0,0,0,.238-.4l0,0,0-.005a3.643,3.643,0,0,0,.184-.437c0-.012.01-.022.013-.033l.008-.025c.014-.043.026-.086.038-.129s.027-.095.039-.142.018-.087.028-.131.017-.071.023-.107c0-.013,0-.026,0-.038.009-.057.016-.116.022-.174,0-.041.01-.082.013-.124,0-.064.007-.128.008-.193,0-.032,0-.063,0-.094v-.043Z" transform="translate(-742.496 -1429.732)" fill="#6d1e3a"/>
            <path id="Path_177" data-name="Path 177" d="M733.154,1445.246l-.022.005a36.331,36.331,0,0,0-3.92,1.44c-.134.06-.265.119-.386.179l.19,21.6c.122-.059.251-.119.386-.179a36.653,36.653,0,0,1,3.919-1.44l.023-.005c.339-.074.689-.137,1.045-.189.424-.061.86-.108,1.3-.144l-.19-21.6q-.667.054-1.3.145Q733.664,1445.135,733.154,1445.246Z" transform="translate(-728.826 -1439.931)" fill="#6d1e3a"/>
          </g>
          <path id="Path_178" data-name="Path 178" d="M630.217,1534.1l-.189-21.6-38.466,16.187.157,17.975c-4.467.535-8.48.115-10.646-1.346a3.86,3.86,0,0,1-1.7-3.513q0-.534-.01-1.069a4.8,4.8,0,0,0-.785-3.042,18.566,18.566,0,0,0-3-2.281l-38.424,16.167.19,21.6,38.423-16.167a18.479,18.479,0,0,1,3,2.28,4.443,4.443,0,0,1,.779,2.71c0,.355.006.712.01,1.068.012,1.412.14,2.79,1.7,3.845,3.711,2.5,12.835,1.955,20.384-1.221q.319-.136.628-.272c5.022-2.239,7.913-5.108,7.892-7.455q-.066-7.686-.135-15.373Z" transform="translate(-464.71 -1463.618)" fill="#922b58"/>
          <path id="Path_179" data-name="Path 179" d="M747.688,1441.413l.19,21.6c-4.019,1.694-10.065.5-14.533,1.483a35.889,35.889,0,0,0-3.942,1.445c-.135.06-.263.12-.386.179l-.19-21.6c.121-.059.252-.119.386-.179a35.717,35.717,0,0,1,3.942-1.445C737.621,1441.913,743.667,1443.1,747.688,1441.413Z" transform="translate(-593.479 -1415.856)" fill="#6d1e3a"/>
          <path id="Path_180" data-name="Path 180" d="M388.837,1531.505l-72.448-48.886.19,21.6,72.448,48.887Z" transform="translate(-316.389 -1443.54)" fill="#6d1e3a"/>
          <path id="Path_181" data-name="Path 181" d="M460.093,1433.734c-2.3-1.557-6.279-1.458-9.511-2.054a21.168,21.168,0,0,1-4.749-1.383,16.624,16.624,0,0,1-2.591-1.689l38.466-16.187L451.736,1392.2c.121-.059.252-.119.386-.179a35.722,35.722,0,0,1,3.942-1.445c4.468-.982,10.514.21,14.534-1.482,4.576-2.041,3.611-6.82-2.215-10.749-5.888-3.975-14.517-5.574-19.412-3.513-2.8,1.251-2.694,3.32-3.835,5.017a8.759,8.759,0,0,1-2.659,2.54c-.141.085-.681.358-1.364.663-.566.253-1.229.526-1.846.734l-30.008-20.249-92.869,39.079,72.448,48.886,38.424-16.167a18.548,18.548,0,0,1,3,2.281c1.8,2.364-.52,5.591,2.492,7.624,3.71,2.5,12.834,1.955,20.384-1.222.213-.089.422-.18.627-.271C460.857,1440.581,463.7,1436.165,460.093,1433.734Z" transform="translate(-316.389 -1363.535)" fill="#bd2f64"/>
        </g>
      </g>
      <g id="Group_314" data-name="Group 314" transform="translate(0 98.618)">
        <g id="Group_311" data-name="Group 311" transform="translate(0 20.027)">
          <path id="Path_182" data-name="Path 182" d="M149.057,786.618l95.217-40.067,74.281,50.122-39.439,16.594A16.824,16.824,0,0,0,281.774,815a21.711,21.711,0,0,0,4.864,1.418c3.318.612,7.391.512,9.754,2.106,3.695,2.494.785,7.021-6.487,10.263-.21.094-.425.187-.643.279-7.741,3.256-17.1,3.819-20.9,1.252-3.088-2.084-.713-5.393-2.557-7.815a18.7,18.7,0,0,0-3.079-2.339L223.337,836.74,192.6,816c.126-.059.257-.12.394-.181a36.745,36.745,0,0,1,4.045-1.482c4.584-1.007,10.783.216,14.742-1.45,4.852-2.161,3.863-7.061-2.108-11.091-6.037-4.075-14.884-5.715-19.759-3.665-3.025,1.346-2.905,3.469-4.079,5.209a8.954,8.954,0,0,1-2.723,2.6c-.146.088-.693.365-1.39.675-.582.26-1.268.542-1.905.757Z" transform="translate(-149.057 -746.551)" fill="#57afe5"/>
        </g>
        <g id="Group_313" data-name="Group 313" transform="translate(7.587)" style="mix-blend-mode: normal;isolation: isolate">
          <path id="Path_183" data-name="Path 183" d="M211.692,829.651c.065-.016.131-.029.2-.044.1-.023.2-.046.3-.066.073-.014.147-.027.221-.039l.214-.036.152,17.228,28.529,19.248-.18-20.557L217.495,829.44c.347.041.7.09,1.048.147l.23.04c.135.023.269.047.4.073l.27.054c.131.026.261.053.392.082l.247.055c.206.047.412.1.62.149l.165.041q.383.1.765.211l.135.041c.353.1.7.215,1.052.334l.038.013q.528.182,1.048.386l.075.028q.591.232,1.169.493l.053.024q.583.264,1.15.556l.037.019q.572.3,1.123.621l.02.012q.56.331,1.09.688c3.148,2.125,4.8,4.51,4.823,6.543q-.09-10.278-.181-20.557c-.017-2.032-1.673-4.418-4.822-6.543q-.53-.358-1.09-.688l-.022-.012q-.549-.324-1.122-.621l-.039-.019q-.565-.291-1.147-.556l-.058-.025q-.575-.259-1.162-.491l-.024-.01-.064-.024c-.341-.133-.684-.26-1.03-.378l-.049-.017c-.345-.118-.693-.228-1.041-.331l-.091-.028-.059-.017q-.378-.11-.758-.209l-.17-.043q-.306-.077-.611-.147c-.041-.01-.082-.021-.123-.03l-.137-.029c-.125-.027-.25-.053-.375-.078l-.287-.057c-.127-.024-.254-.047-.381-.069-.067-.011-.134-.025-.2-.036l-.051-.007c-.349-.057-.7-.106-1.044-.147l-.091-.013-.067-.006q-.454-.051-.9-.082l-.075-.007-.1,0c-.28-.017-.56-.031-.833-.036h-.025c-.259,0-.514,0-.767,0h-.1l-.088,0c-.255.009-.506.022-.752.041h-.022l-.056.007c-.257.022-.508.051-.754.085l-.084.01-.058.01c-.1.015-.2.032-.292.049-.079.013-.158.027-.236.041-.1.019-.188.04-.282.061-.064.014-.13.026-.194.042l-.025.007c-.22.054-.434.114-.644.18l-.145.047c-.211.07-.417.144-.615.227-.158.071-.3.144-.445.219-.042.022-.082.045-.122.068s-.1.055-.151.084-.078.052-.118.077-.1.064-.149.1c-.077.053-.152.107-.223.162-.042.032-.086.063-.125.1-.013.011-.03.022-.043.033-.085.07-.165.142-.241.215l-.03.031c-.059.058-.118.116-.172.176v.006h0v-.006c-.018.019-.032.038-.05.057s-.053.06-.077.091c-.054.064-.106.128-.155.194-.023.03-.046.06-.068.09l-.035.047c-.023.034-.043.068-.066.1-.043.064-.084.128-.123.192-.028.048-.055.1-.082.143-.036.066-.074.132-.107.2-.012.02-.023.039-.033.06s-.022.045-.032.067c-.057.115-.112.23-.164.346-.01.019-.018.038-.027.057-.07.157-.137.315-.205.473-.044.1-.087.2-.133.306l-.062.14c-.061.136-.124.271-.191.4-.034.067-.071.133-.108.2-.021.037-.039.074-.059.11-.059.1-.121.2-.189.3-.043.064-.091.128-.136.192-.064.089-.132.179-.2.269-.031.038-.06.078-.093.116-.1.118-.2.235-.3.351l-.019.022c-.111.121-.229.24-.351.357-.035.034-.073.068-.109.1-.09.083-.182.166-.278.247-.045.039-.092.078-.14.117-.1.079-.2.156-.3.232-.046.034-.091.068-.137.1-.15.106-.3.211-.464.31l-.029.016-.049.027-.03.016-.07.037-.049.025-.081.041-.057.029-.1.048-.078.038-.1.049-.122.058-.074.035-.142.066-.077.036-.233.1c-.54.241-1.177.5-1.768.7l-28.555-19.27.18,20.557,28.556,19.271c.592-.2,1.229-.461,1.768-.7l.234-.105.04-.018.178-.083.066-.031.131-.062.081-.039.1-.048.062-.031.095-.047.047-.024.082-.043.036-.019.064-.034.025-.014.039-.022.008-.005c.161-.1.314-.2.462-.309.05-.035.1-.07.143-.106.1-.074.2-.149.292-.226.025-.02.052-.039.076-.059s.045-.041.069-.061q.14-.119.27-.241c.039-.035.078-.071.116-.107.121-.117.238-.235.347-.354l0,0c.008-.008.013-.016.021-.024q.157-.172.3-.346l.092-.116q.106-.136.2-.272c.016-.022.034-.044.05-.067.03-.041.057-.082.085-.123.067-.1.129-.2.189-.3.026-.047.051-.1.077-.143s.058-.1.086-.157l0-.008c.069-.136.134-.273.2-.411l.051-.114q.08-.183.159-.367.09-.212.184-.424c.011-.026.025-.052.036-.078.05-.11.1-.22.157-.329.021-.045.044-.089.068-.134.033-.064.069-.128.105-.192.027-.049.054-.1.084-.146.039-.065.082-.128.124-.192s.064-.1.1-.148l.07-.093c.048-.064.1-.127.151-.19.027-.032.054-.064.082-.095q.1-.118.22-.231l.031-.032c.087-.084.183-.167.284-.248.039-.032.082-.064.123-.1.071-.054.145-.109.223-.162l.149-.1c.086-.054.176-.108.269-.161l.123-.068c.141-.075.287-.149.446-.219.2-.083.4-.157.613-.227l.146-.048C211.256,829.766,211.471,829.7,211.692,829.651Z" transform="translate(-172.178 -761.666)" fill="#0082bc"/>
          <path id="Path_184" data-name="Path 184" d="M470.858,847.859l-.18-20.557-36.61,15.4.149,17.108-.035,0-.237.027c-.292.033-.583.062-.87.086l-.086.006c-.211.017-.421.032-.63.044l-.235.011c-.158.008-.314.015-.47.02l-.172,0c-.369.009-.731.012-1.086.006l-.142,0c-.3-.007-.589-.019-.874-.038l-.067,0c-.268-.018-.528-.042-.785-.07l-.192-.022c-.219-.027-.434-.056-.645-.09l-.076-.011c-.227-.038-.449-.082-.664-.129l-.166-.037c-.2-.047-.4-.1-.592-.152l-.083-.022-.119-.038c-.105-.032-.209-.066-.311-.1l-.156-.057c-.086-.031-.172-.064-.256-.1l-.142-.06c-.082-.036-.163-.072-.241-.109l-.135-.065c-.081-.04-.16-.083-.237-.125-.036-.02-.074-.039-.11-.06-.111-.064-.219-.13-.32-.2a3.681,3.681,0,0,1-1.616-3.351q0-.5-.008-1a4.574,4.574,0,0,0-.75-2.9,17.334,17.334,0,0,0-2.857-2.172L382.29,864.495l.18,20.557,36.564-15.387a17.255,17.255,0,0,1,2.858,2.171,4.237,4.237,0,0,1,.744,2.592q0,.5.008,1a3.866,3.866,0,0,0,1.622,3.666c.1.069.209.135.32.2l.112.061c.076.042.154.084.234.124.044.023.091.044.136.065.078.037.159.074.242.109l.14.058.077.033.181.066c.051.019.1.038.154.056.1.035.2.067.3.1.043.013.084.028.129.04l.02.007.054.014c.195.056.4.107.6.155.03.007.056.016.087.022l.072.013c.218.048.44.092.67.13l.008,0,.054.008c.214.035.435.065.66.092.032,0,.062.01.095.013l.089.008c.257.029.518.053.787.071l.017,0,.053,0q.429.028.876.038l.089,0h.045q.533.009,1.086-.005c.03,0,.058,0,.088,0l.091,0c.153,0,.31-.012.467-.02l.234-.012c.222-.013.448-.028.673-.046l.037,0h0c.29-.024.583-.054.878-.086l.231-.027q.388-.045.781-.1l.1-.013.033-.005c.243-.035.486-.073.73-.115l.124-.022c.205-.035.409-.072.615-.111l.275-.055c.157-.031.312-.062.468-.1.1-.022.206-.046.308-.068.147-.033.293-.066.44-.1l.116-.027.1-.026c.4-.1.794-.2,1.189-.31l.157-.044q.6-.172,1.2-.365l.122-.041q.616-.2,1.226-.426l.072-.028q.633-.235,1.253-.495.3-.127.6-.258c.278-.124.546-.25.81-.377l.266-.133c.171-.085.341-.171.506-.258.1-.051.194-.1.289-.155.153-.082.3-.165.448-.248.093-.053.184-.105.274-.159.055-.032.113-.064.166-.1.093-.055.179-.112.269-.168l.236-.147q.242-.156.472-.314c.049-.034.1-.068.15-.1q.3-.209.573-.419c.048-.036.092-.073.138-.109.108-.085.218-.17.32-.256.021-.016.038-.033.058-.05.133-.113.259-.226.383-.339.055-.05.114-.1.166-.151.172-.164.336-.328.487-.493l0,0c.132-.144.254-.287.369-.431.037-.046.069-.092.1-.138.061-.079.124-.158.18-.238.015-.022.026-.043.041-.064.028-.04.053-.08.079-.12q.1-.151.184-.3c.024-.042.049-.084.07-.126.013-.024.028-.048.04-.072.054-.105.1-.211.147-.315.008-.018.013-.036.022-.054.03-.073.059-.147.084-.22.015-.047.028-.092.041-.138.007-.024.015-.048.022-.072.029-.1.054-.209.072-.313,0-.021,0-.043.008-.064s.006-.044.009-.066a2.858,2.858,0,0,0,.025-.352v-.036q-.063-7.316-.128-14.632Z" transform="translate(-313.339 -780.775)" fill="#2ca1df"/>
          <g id="Group_312" data-name="Group 312">
            <path id="Path_185" data-name="Path 185" d="M172.178,722.716l88.386-37.193,68.952,46.527-36.61,15.4a15.652,15.652,0,0,0,2.467,1.608,20.144,20.144,0,0,0,4.516,1.316c3.08.568,6.861.475,9.054,1.955,3.429,2.316.729,6.518-6.021,9.528q-.293.13-.6.258c-7.186,3.023-15.872,3.545-19.4,1.162-2.866-1.935-.662-5.006-2.374-7.254a17.33,17.33,0,0,0-2.857-2.171l-36.564,15.388L212.6,749.993q.175-.083.366-.169a34.144,34.144,0,0,1,3.755-1.376c4.255-.935,10.009.2,13.684-1.346,4.5-2.006,3.585-6.555-1.957-10.3-5.6-3.782-13.815-5.305-18.342-3.4-2.807,1.25-2.7,3.22-3.786,4.835a8.311,8.311,0,0,1-2.528,2.416c-.135.082-.644.339-1.29.627-.54.241-1.177.5-1.768.7Z" transform="translate(-172.178 -685.523)" fill="#77b5e5"/>
          </g>
        </g>
      </g>
      <g id="Group_322" data-name="Group 322" transform="translate(415.299 63.676)">
        <g id="Group_315" data-name="Group 315" transform="translate(0 22.322)">
          <path id="Path_186" data-name="Path 186" d="M1597.594,690.327l-42.534-17.9a20.374,20.374,0,0,0-3.321,2.524c-1.989,2.617.575,6.189-2.759,8.439-4.108,2.77-14.209,2.164-22.566-1.352-.235-.1-.466-.2-.693-.3-7.851-3.5-11-8.391-7.007-11.083,2.551-1.722,6.95-1.612,10.529-2.272a23.314,23.314,0,0,0,5.254-1.532,18.138,18.138,0,0,0,2.869-1.869l-42.581-17.919-33.216,22.416c-.687-.232-1.427-.537-2.056-.817-.751-.335-1.343-.634-1.5-.729a9.7,9.7,0,0,1-2.946-2.811c-1.264-1.88-1.139-4.17-4.244-5.554-5.422-2.285-14.971-.512-21.493,3.886-6.446,4.35-7.514,9.642-2.448,11.9,4.448,1.874,11.139.553,16.086,1.642a39.3,39.3,0,0,1,4.365,1.6c.148.067.291.133.427.2l-33.181,22.388,102.809,43.26Z" transform="translate(-1414.584 -647.065)" fill="#57afe5"/>
        </g>
        <g id="Group_321" data-name="Group 321" transform="translate(6.52)" style="mix-blend-mode: normal;isolation: isolate">
          <path id="Path_187" data-name="Path 187" d="M1724.3,637.622a3.181,3.181,0,0,1,1.605-2.627,5.889,5.889,0,0,1,.542-.319c.059-.031.122-.059.182-.089.135-.065.273-.128.416-.186.036-.015.068-.032.1-.047s.066-.021.1-.033c.228-.086.459-.167.7-.238l.012,0h0c.245-.072.5-.134.755-.193.03-.007.059-.017.09-.023s.077-.014.115-.022c.3-.064.606-.123.918-.176l.029-.006.1-.014q.464-.075.943-.138l.127-.017q.514-.066,1.035-.125l.061-.007.234-.027.7-.079c.325-.037.649-.077.97-.118l.194-.025q.482-.063.95-.138c.166-.027.332-.054.495-.084.335-.062.672-.131,1.007-.2l.189-.041c.241-.054.482-.111.72-.172l.022-.006c.243-.062.482-.128.72-.2l.22-.066c.165-.05.328-.1.49-.154l.239-.081c.162-.055.319-.113.474-.172l.2-.075c.206-.082.408-.166.6-.254a16.881,16.881,0,0,0,2.663-1.735l-.195,22.2a16.905,16.905,0,0,1-2.663,1.735c-.193.089-.4.174-.6.256-.015.005-.028.012-.044.019-.044.017-.091.032-.135.049q-.24.092-.491.179l-.232.078c-.16.053-.323.1-.489.154-.051.015-.1.032-.149.047l-.077.02q-.354.1-.714.2l-.031.008c-.235.06-.472.117-.711.17l-.08.02c-.039.009-.078.015-.117.023-.334.073-.669.142-1,.2-.136.026-.274.049-.413.072l-.088.013q-.463.075-.937.137l-.212.027c-.31.04-.623.077-.938.114l-.029,0-.665.075-.334.038c-.343.039-.684.079-1.023.123l-.123.017q-.479.062-.947.138l-.128.02c-.315.052-.621.112-.924.177l-.2.043c-.259.06-.514.122-.76.195l-.006,0c-.245.072-.48.154-.709.241-.069.026-.134.052-.2.079-.143.059-.281.121-.417.187-.059.029-.122.058-.181.088a5.735,5.735,0,0,0-.543.32,3.18,3.18,0,0,0-1.605,2.626Z" transform="translate(-1629.053 -613.096)" fill="#003c74"/>
          <path id="Path_188" data-name="Path 188" d="M1460.323,670.187c-.01-.042-.018-.085-.027-.127s-.018-.076-.024-.114c0-.013,0-.027-.005-.04-.009-.058-.015-.117-.022-.175s-.011-.088-.014-.133c0-.061-.006-.123-.008-.185,0-.036,0-.071,0-.107v-.044l.195-22.2c0,.051,0,.1,0,.152s0,.124.008.185c0,.044.01.089.014.133s.014.117.022.175.02.1.03.155.016.085.026.127.029.106.044.159.022.081.036.12c.007.021.016.042.023.063a3.661,3.661,0,0,0,.189.449.053.053,0,0,1,0,.009,3.661,3.661,0,0,0,.245.406l.044.065a4.065,4.065,0,0,0,.3.374c.03.033.061.067.093.1s.07.072.1.107.084.08.127.118l.116.1c.037.031.076.062.115.093.069.055.14.109.213.162l.115.082c.083.056.168.111.255.165l.1.061c.078.046.16.091.244.135.037.02.072.041.11.061.123.063.249.123.381.182.253.107.515.2.782.287.09.029.184.051.275.077.183.053.366.108.554.152.05.012.1.021.151.032.213.048.429.091.647.13l.264.044c.2.033.41.062.619.088.069.009.136.018.205.026q.406.047.822.08c.173.014.35.023.525.034.148.01.295.02.443.028.18.009.361.014.542.021.145,0,.289.012.437.016.346.01.7.016,1.045.021h.028c.411.006.824.01,1.235.013l.788.009.388.007c.223,0,.447.008.667.013l.172,0c.1,0,.193.008.289.011q.255.008.507.02c.158.007.314.017.471.026s.326.02.487.032c.054,0,.11.006.164.011v0h0v0c.182.015.361.033.539.051l.11.011c.233.026.464.054.692.087.027,0,.054.01.08.014.34.051.675.109,1,.181l.029.007.033.009.045.012.071.02.057.017.094.029.07.022.117.037.074.024.14.046.084.027.154.052.091.031.169.058.1.033.174.061.113.04.165.059.135.049.162.059.144.053.166.062.146.055.167.064.148.057.165.066.149.058.164.067.144.059.175.073.126.053.288.126c.138.062.271.123.4.183l-.195,22.2c-.125-.061-.259-.122-.4-.183l-.289-.126-.1-.041-.2-.085-.118-.048-.19-.077-.133-.052-.18-.072-.138-.053-.176-.068-.144-.054-.166-.062-.141-.052-.167-.061-.132-.048-.16-.058-.145-.051-.134-.047-.141-.048-.128-.045-.125-.042-.121-.041-.11-.036-.113-.037-.1-.031-.1-.03-.087-.027-.077-.024-.068-.02-.064-.019-.047-.013-.062-.015c-.327-.071-.661-.13-1-.18-.253-.038-.507-.073-.766-.1l-.131-.013q-.342-.035-.689-.06c-.159-.012-.32-.022-.481-.031s-.316-.02-.475-.027-.331-.013-.5-.019-.315-.012-.474-.015l-.648-.013-.408-.007c-.258,0-.518-.006-.778-.008l-1.02-.012-.255,0c-.345,0-.69-.011-1.031-.02h-.051c-.143,0-.284-.011-.426-.017-.169-.006-.34-.011-.507-.02s-.306-.019-.459-.029c-.169-.01-.34-.019-.506-.033l-.056,0c-.262-.021-.519-.047-.774-.076l-.192-.024c-.128-.016-.258-.031-.385-.049v-.006h0v.006c-.083-.012-.163-.027-.245-.041l-.26-.044q-.328-.057-.648-.13c-.051-.011-.1-.02-.154-.033l-.043-.009c-.177-.043-.346-.1-.517-.145-.089-.026-.181-.046-.268-.075-.268-.085-.53-.181-.783-.287-.131-.058-.257-.119-.38-.181l-.126-.069c-.078-.042-.154-.083-.227-.126a.269.269,0,0,1-.029-.016c-.028-.017-.053-.035-.082-.052-.084-.053-.166-.105-.245-.159l-.119-.085c-.071-.053-.141-.105-.208-.159-.022-.017-.046-.033-.068-.052v0h0v0c-.018-.014-.032-.029-.05-.043-.039-.033-.077-.067-.114-.1s-.087-.08-.13-.121-.07-.069-.1-.1-.045-.044-.067-.068-.018-.023-.028-.034a4.165,4.165,0,0,1-.3-.374c-.006-.008-.013-.015-.019-.023s-.015-.028-.024-.041a3.6,3.6,0,0,1-.245-.407l0,0s0-.006,0-.009a3.649,3.649,0,0,1-.187-.441c0-.013-.011-.025-.016-.038v-.005h0v.005c0-.01-.005-.019-.009-.029-.012-.039-.023-.078-.034-.118S1460.335,670.241,1460.323,670.187Z" transform="translate(-1451.763 -624.743)" fill="#003c74"/>
          <g id="Group_317" data-name="Group 317" transform="translate(0 50.236)">
            <g id="Group_316" data-name="Group 316">
              <path id="Path_189" data-name="Path 189" d="M1434.647,732.125l-.195,22.2,95.435,40.158.194-22.2Z" transform="translate(-1434.453 -732.125)" fill="#004b8f"/>
            </g>
          </g>
          <g id="Group_318" data-name="Group 318" transform="translate(95.435 40.158)">
            <path id="Path_190" data-name="Path 190" d="M1725.461,751.651l-.194,22.2,74.447-50.236.194-22.2Z" transform="translate(-1725.267 -701.416)" fill="#003c74"/>
          </g>
          <g id="Group_320" data-name="Group 320" transform="translate(0.195)">
            <g id="Group_319" data-name="Group 319">
              <path id="Path_191" data-name="Path 191" d="M1604.927,619.2l-39.483-16.614a18.9,18.9,0,0,0-3.082,2.343c-1.846,2.43.534,5.745-2.561,7.834-3.813,2.571-13.189,2.009-20.947-1.255-.219-.092-.433-.185-.644-.279-7.288-3.25-10.206-7.789-6.5-10.288,2.368-1.6,6.452-1.5,9.774-2.109a21.637,21.637,0,0,0,4.877-1.422,16.881,16.881,0,0,0,2.663-1.735l-39.527-16.633-30.833,20.808c-.638-.216-1.325-.5-1.908-.759-.7-.311-1.247-.588-1.389-.677a8.985,8.985,0,0,1-2.735-2.609c-1.174-1.745-1.057-3.87-3.94-5.155-5.033-2.121-13.9-.475-19.95,3.607-5.984,4.039-6.975,8.951-2.273,11.047,4.13,1.74,10.34.514,14.932,1.524a36.37,36.37,0,0,1,4.052,1.484c.138.062.271.123.4.183l-30.8,20.782,95.434,40.157Z" transform="translate(-1435.046 -579.043)" fill="#005b9c"/>
            </g>
          </g>
        </g>
      </g>
    </g>
  </g>
</svg>
