<svg xmlns="http://www.w3.org/2000/svg" width="69.452" height="81.026" viewBox="0 0 69.452 81.026">
  <g id="Group_18" data-name="Group 18" transform="translate(-304 -231.132)">
    <path id="Icon_awesome-money-bill-wave" data-name="Icon awesome-money-bill-wave" d="M67.406,4.687A32.135,32.135,0,0,0,54.774,2.25c-13.366,0-26.731,6.765-40.1,6.765A32.925,32.925,0,0,1,4.623,7.526,3.71,3.71,0,0,0,3.5,7.35,3.453,3.453,0,0,0,0,10.8V45.23a3.451,3.451,0,0,0,2.044,3.2,32.117,32.117,0,0,0,12.632,2.438c13.366,0,26.732-6.766,40.1-6.766a32.925,32.925,0,0,1,10.054,1.489,3.71,3.71,0,0,0,1.123.176,3.453,3.453,0,0,0,3.5-3.452V7.885a3.455,3.455,0,0,0-2.046-3.2Zm-62.2,8.438a37.764,37.764,0,0,0,6.806.969,6.953,6.953,0,0,1-6.806,5.593Zm0,30.927V38.868a6.943,6.943,0,0,1,6.914,6.663A26.215,26.215,0,0,1,5.209,44.053Zm29.517-7.077c-4.8,0-8.681-4.665-8.681-10.418S29.931,16.14,34.725,16.14s8.681,4.664,8.681,10.418S39.519,36.975,34.725,36.975ZM64.242,39.99a37.31,37.31,0,0,0-5.895-.916,6.93,6.93,0,0,1,5.895-5.348Zm0-25.622a6.931,6.931,0,0,1-6.056-6.679,26.086,26.086,0,0,1,6.056,1.374Z" transform="translate(304 261.292)" fill="#ffb000"/>
    <path id="Icon_material-compare-arrows" data-name="Icon material-compare-arrows" d="M16.228,20.835H0v4.63H16.228V32.41l9.237-9.26-9.237-9.26ZM30.072,18.52V11.575H46.3V6.945H30.072V0L20.835,9.26Z" transform="translate(315.576 231.132)" fill="#ffb000"/>
  </g>
</svg>
